<?xml version="1.0" encoding="utf-8"?>
<!-- Generator: Adobe Illustrator 22.1.0, SVG Export Plug-In . SVG Version: 6.00 Build 0)  -->
<svg version="1.1" id="clock-icon" xmlns="http://www.w3.org/2000/svg" xmlns:xlink="http://www.w3.org/1999/xlink" x="0px" y="0px"
	 viewBox="0 0 126.7 126.7" style="enable-background:new 0 0 126.7 126.7;" xml:space="preserve">
<style type="text/css">
	.st0{fill:#234DD4;stroke:#FFFFFF;stroke-miterlimit:10;}
</style>
<g>
	<path class="st0" d="M120.7,5.6H6c-2.6,0-4.7,2.1-4.7,4.7v86.9c0,2.6,2.1,4.7,4.7,4.7h43.2v15.1H30.6c-1.1,0-2,0.9-2,2s0.9,2,2,2
		h65.5c1.1,0,2-0.9,2-2s-0.9-2-2-2H77.4V102h43.2c2.6,0,4.7-2.1,4.7-4.7V10.3C125.4,7.7,123.3,5.6,120.7,5.6z M73.5,117.1H53.2V102
		h20.3V117.1z M121.4,97.2c0,0.4-0.3,0.8-0.8,0.8H6c-0.4,0-0.8-0.3-0.8-0.8V10.3c0-0.4,0.3-0.8,0.8-0.8h114.7c0.4,0,0.8,0.3,0.8,0.8
		V97.2z"/>
	<path class="st0" d="M115.2,81.9H11.5c-1.1,0-2,0.9-2,2c0,1.1,0.9,2,2,2h103.7c1.1,0,2-0.9,2-2C117.2,82.8,116.3,81.9,115.2,81.9z"
		/>
	<path class="st0" d="M30.4,75.3h10.6c1.1,0,2-0.9,2-2V44.6c0-1.1-0.9-2-2-2H30.4c-1.1,0-2,0.9-2,2v28.7
		C28.4,74.4,29.3,75.3,30.4,75.3z M32.3,46.6h6.6v24.8h-6.6V46.6z"/>
	<path class="st0" d="M48.8,75.3h10.6c1.1,0,2-0.9,2-2V35.2c0-1.1-0.9-2-2-2H48.8c-1.1,0-2,0.9-2,2v38.1
		C46.8,74.4,47.7,75.3,48.8,75.3z M50.8,37.2h6.6v34.1h-6.6V37.2z"/>
	<path class="st0" d="M67.3,75.3h10.6c1.1,0,2-0.9,2-2V26.4c0-1.1-0.9-2-2-2H67.3c-1.1,0-2,0.9-2,2v46.9
		C65.3,74.4,66.2,75.3,67.3,75.3z M69.3,28.3h6.6v43h-6.6V28.3z"/>
	<path class="st0" d="M85.8,75.3h10.6c1.1,0,2-0.9,2-2V53.7c0-1.1-0.9-2-2-2H85.8c-1.1,0-2,0.9-2,2v19.6
		C83.8,74.4,84.7,75.3,85.8,75.3z M87.8,55.7h6.6v15.7h-6.6V55.7z"/>
</g>
</svg>
