<?xml version="1.0" encoding="utf-8"?>
<!-- Generator: Adobe Illustrator 22.1.0, SVG Export Plug-In . SVG Version: 6.00 Build 0)  -->
<svg version="1.1" id="Layer_1" xmlns="http://www.w3.org/2000/svg" xmlns:xlink="http://www.w3.org/1999/xlink" x="0px" y="0px"
	 viewBox="0 0 150 150" style="enable-background:new 0 0 150 150;" xml:space="preserve">
<style type="text/css">
	.st0{fill:#43C370;stroke:#151B26;stroke-width:1.3895;stroke-miterlimit:10;}
</style>
<g>
	<path class="st0" d="M132.4,43.8v-4.2c0-7.3-5.9-14-13.1-14.8c-29.4-3.3-59.1-3.3-88.5,0c-7.2,0.9-13.1,7.5-13.1,14.8v4.2
		c-2.2,0.8-3.8,2.9-3.8,5.4v7.7c0,3.2,2.6,5.7,5.7,5.7h26.8c3.2,0,5.7-2.6,5.7-5.7v-7.7c0-3.2-2.6-5.7-5.7-5.7v-3.6
		c9.5-1.5,19.1-2.3,28.7-2.3c9.6,0,19.2,0.8,28.7,2.3c0,1.3,0,2.6,0,3.6c-3.2,0-5.7,2.6-5.7,5.7v7.7c0,3.2,2.6,5.7,5.7,5.7h26.8
		c3.2,0,5.7-2.6,5.7-5.7v-7.7C136.2,46.7,134.6,44.6,132.4,43.8z M132.4,56.9c0,1.1-0.9,1.9-1.9,1.9h-26.8c-1.1,0-1.9-0.9-1.9-1.9
		v-7.7c0-1.1,0.9-1.9,1.9-1.9h1.8c0,0,0,0,0,0c0,0,0,0,0,0H119c1.1,0,1.9-0.9,1.9-1.9c0-1.1-0.9-1.9-1.9-1.9h-11.5
		c0-0.3,0-0.6,0-0.9c0-1.4,0-2.9,0-2.9c0,0,0,0,0,0c0-1.2-1-3.1-2.5-3.4c0,0,0,0,0,0c-9.9-1.6-20-2.4-30-2.4
		c-10,0-20.1,0.8-30.1,2.4c0,0,0,0,0,0c-1.5,0.3-2.4,2.4-2.4,3.4c0,0,0,0,0,0v3.8h-1.9c-1.1,0-1.9,0.9-1.9,1.9
		c0,1.1,0.9,1.9,1.9,1.9h5.7c1.1,0,1.9,0.9,1.9,1.9v7.7c0,1.1-0.9,1.9-1.9,1.9H19.5c-1.1,0-1.9-0.9-1.9-1.9v-7.7
		c0-1.1,0.9-1.9,1.9-1.9h13.4c1.1,0,1.9-0.9,1.9-1.9c0-1.1-0.9-1.9-1.9-1.9H21.4v-3.8c0-5.3,4.5-10.4,9.7-11
		c29.1-3.3,58.6-3.3,87.6,0c5.3,0.6,9.8,5.7,9.8,11v3.8h-1.9c-1.1,0-1.9,0.9-1.9,1.9c0,1.1,0.9,1.9,1.9,1.9h3.8
		c1.1,0,1.9,0.9,1.9,1.9V56.9z"/>
	<path class="st0" d="M118.2,75c-2.5-3-6.3-4.7-10.2-4.7h-6.2c-6.3,0-11.5-5.1-11.5-11.5v-1.9c0-3.2-2.6-5.7-5.7-5.7H65.4
		c-3.2,0-5.7,2.6-5.7,5.7v1.9c0,6.3-5.1,11.5-11.5,11.5h-6.2c-3.9,0-7.7,1.7-10.2,4.7L17,92.6c-2,2.4-3.2,5.5-3.2,8.7v13
		c0,7.4,6,13.4,13.4,13.4h95.7c7.4,0,13.4-6,13.4-13.4v-13c0-3.2-1.1-6.2-3.2-8.7L118.2,75z M132.4,114.3c0,5.3-4.3,9.6-9.6,9.6
		H27.2c-5.3,0-9.6-4.3-9.6-9.6v-13c0-2.3,0.8-4.5,2.3-6.2l14.9-17.6c1.8-2.2,4.5-3.4,7.3-3.4h6.2c8.4,0,15.3-6.9,15.3-15.3v-1.9
		c0-1.1,0.9-1.9,1.9-1.9h19.1c1.1,0,1.9,0.9,1.9,1.9v1.9c0,8.4,6.9,15.3,15.3,15.3h6.2c2.8,0,5.5,1.2,7.3,3.4l14.9,17.6
		c1.5,1.7,2.3,3.9,2.3,6.2V114.3z"/>
	<path class="st0" d="M75,70.3c-12.7,0-23,10.3-23,23s10.3,23,23,23s23-10.3,23-23S87.7,70.3,75,70.3z M75,112.4
		c-10.5,0-19.1-8.6-19.1-19.1S64.5,74.1,75,74.1s19.1,8.6,19.1,19.1S85.5,112.4,75,112.4z"/>
	<path class="st0" d="M86.3,85.8c-1,0.5-1.4,1.6-0.9,2.5c0.7,1.5,1.1,3.2,1.1,4.9c0,6.3-5.1,11.5-11.5,11.5s-11.5-5.1-11.5-11.5
		S68.7,81.7,75,81.7c2.4,0,4.6,0.7,6.6,2.1c0.9,0.6,2.1,0.4,2.7-0.5c0.6-0.9,0.4-2.1-0.5-2.7c-2.6-1.8-5.6-2.7-8.7-2.7
		c-8.4,0-15.3,6.9-15.3,15.3s6.9,15.3,15.3,15.3s15.3-6.9,15.3-15.3c0-2.3-0.5-4.5-1.5-6.6C88.4,85.7,87.2,85.3,86.3,85.8z"/>
</g>
</svg>
