<?xml version="1.0" encoding="utf-8"?>
<!-- Generator: Adobe Illustrator 22.1.0, SVG Export Plug-In . SVG Version: 6.00 Build 0)  -->
<svg version="1.1" id="dollarsun-icon" xmlns="http://www.w3.org/2000/svg" xmlns:xlink="http://www.w3.org/1999/xlink" x="0px"
	 y="0px" viewBox="0 0 123.2 123.2" style="enable-background:new 0 0 123.2 123.2;" xml:space="preserve">
<style type="text/css">
	.st0{fill:#43C370;stroke:#FFFFFF;stroke-miterlimit:10;}
</style>
<g>
	<path class="st0" d="M66.4,80.6c1.1,0,2-0.9,2-2s-0.9-2-2-2H4.2c-0.2,0-0.3-0.1-0.3-0.3V4.5c0-0.2,0.1-0.3,0.3-0.3h94.8
		c0.2,0,0.3,0.1,0.3,0.3v34.6c0,1.1,0.9,2,2,2s2-0.9,2-2V4.5c0-2.3-1.9-4.2-4.2-4.2H4.2C1.9,0.2,0,2.1,0,4.5v71.9
		c0,2.3,1.9,4.2,4.2,4.2h35.4v11.9H24.5c-1.1,0-2,0.9-2,2s0.9,2,2,2h41.9c1.1,0,2-0.9,2-2s-0.9-2-2-2h-2.8V80.6L66.4,80.6L66.4,80.6
		z M59.7,92.4H43.6V80.6h16.1V92.4z"/>
	<path class="st0" d="M66.4,63.3H9.8c-1.1,0-2,0.9-2,2c0,1.1,0.9,2,2,2h56.6c1.1,0,2-0.9,2-2C68.4,64.2,67.5,63.3,66.4,63.3z"/>
	<path class="st0" d="M119,45H76.6c-2.3,0-4.2,1.9-4.2,4.2v70c0,2.3,1.9,4.2,4.2,4.2H119c2.3,0,4.2-1.9,4.2-4.2v-70
		C123.2,46.9,121.3,45,119,45z M76.3,56.8h43v47h-43V56.8z M76.6,48.9H119c0.2,0,0.3,0.1,0.3,0.3v3.6h-43v-3.6
		C76.3,49,76.4,48.9,76.6,48.9z M119,119.5H76.6c-0.2,0-0.3-0.1-0.3-0.3v-11.5h43v11.5C119.3,119.4,119.1,119.5,119,119.5z"/>
	<path class="st0" d="M101.7,111.6h-7.9c-1.1,0-2,0.9-2,2c0,1.1,0.9,2,2,2h7.9c1.1,0,2-0.9,2-2C103.7,112.5,102.8,111.6,101.7,111.6
		z"/>
</g>
</svg>
