<?xml version="1.0" encoding="utf-8"?>
<!-- Generator: Adobe Illustrator 22.1.0, SVG Export Plug-In . SVG Version: 6.00 Build 0)  -->
<svg version="1.1" id="Layer_1" xmlns="http://www.w3.org/2000/svg" xmlns:xlink="http://www.w3.org/1999/xlink" x="0px" y="0px"
	 viewBox="0 0 150 150" style="enable-background:new 0 0 150 150;" xml:space="preserve">
<style type="text/css">
	.st0{fill:#43C370;stroke:#151B26;stroke-width:1.5;stroke-miterlimit:10;}
</style>
<g>
	<path class="st0" d="M129.5,67.1c-1,0-1.8,0.8-1.8,1.8v47.5c0,4.9-3.9,8.8-8.8,8.8H31c-4.9,0-8.8-3.9-8.8-8.8V68.8
		c0-1-0.8-1.8-1.8-1.8s-1.8,0.8-1.8,1.8v47.5c0,6.8,5.5,12.3,12.3,12.3h88c6.8,0,12.3-5.5,12.3-12.3V68.8
		C131.3,67.9,130.5,67.1,129.5,67.1z"/>
	<path class="st0" d="M20.4,63.8l48,30.9c2,1.3,4.4,2,6.7,2c2.3,0,4.6-0.7,6.7-2l48-30.9c1.1-0.7,1.7-1.9,1.6-3.2
		c-0.3-3-1.7-5.8-4-7.9c-1.8-1.7-4.1-2.8-6.5-3.1v-23c0-2.9-2.4-5.3-5.3-5.3H34.5c-2.9,0-5.3,2.4-5.3,5.3v23
		c-2.4,0.4-4.7,1.4-6.5,3.1c-2.3,2.1-3.7,4.9-4,7.9C18.6,61.9,19.2,63.1,20.4,63.8z M29.3,53.2v8.6c0,1,0.8,1.8,1.8,1.8
		s1.8-0.8,1.8-1.8V26.6c0-1,0.8-1.8,1.8-1.8h80.9c1,0,1.8,0.8,1.8,1.8v35.2c0,1,0.8,1.8,1.8,1.8c1,0,1.8-0.8,1.8-1.8v-8.6
		c3.7,0.8,6.6,3.9,7,7.7c0,0,0,0,0,0l-48,30.9c-2.9,1.9-6.6,1.9-9.5,0l-48-30.9c0,0,0,0,0,0C22.7,57.1,25.6,54,29.3,53.2z"/>
	<path class="st0" d="M41.6,40.7h66.9c1,0,1.8-0.8,1.8-1.8s-0.8-1.8-1.8-1.8H41.6c-1,0-1.8,0.8-1.8,1.8S40.6,40.7,41.6,40.7z"/>
	<path class="st0" d="M108.4,47.7H68c-1,0-1.8,0.8-1.8,1.8s0.8,1.8,1.8,1.8h40.5c1,0,1.8-0.8,1.8-1.8S109.4,47.7,108.4,47.7z"/>
	<path class="st0" d="M41.6,51.2h19.4c1,0,1.8-0.8,1.8-1.8s-0.8-1.8-1.8-1.8H41.6c-1,0-1.8,0.8-1.8,1.8S40.6,51.2,41.6,51.2z"/>
	<path class="st0" d="M41.6,61.8h44c1,0,1.8-0.8,1.8-1.8s-0.8-1.8-1.8-1.8h-44c-1,0-1.8,0.8-1.8,1.8S40.6,61.8,41.6,61.8z"/>
	<path class="st0" d="M108.4,58.3H92.6c-1,0-1.8,0.8-1.8,1.8s0.8,1.8,1.8,1.8h15.8c1,0,1.8-0.8,1.8-1.8S109.4,58.3,108.4,58.3z"/>
	<path class="st0" d="M104.9,68.8H59.2c-1,0-1.8,0.8-1.8,1.8c0,1,0.8,1.8,1.8,1.8h45.7c1,0,1.8-0.8,1.8-1.8
		C106.7,69.6,105.9,68.8,104.9,68.8z"/>
	<path class="st0" d="M52.1,68.8h-7c-1,0-1.8,0.8-1.8,1.8c0,1,0.8,1.8,1.8,1.8h7c1,0,1.8-0.8,1.8-1.8C53.9,69.6,53.1,68.8,52.1,68.8
		z"/>
	<path class="st0" d="M85.6,79.4H64.4c-1,0-1.8,0.8-1.8,1.8c0,1,0.8,1.8,1.8,1.8h21.1c1,0,1.8-0.8,1.8-1.8
		C87.3,80.2,86.5,79.4,85.6,79.4z"/>
</g>
</svg>
