<?xml version="1.0" encoding="utf-8"?>
<!-- Generator: Adobe Illustrator 22.1.0, SVG Export Plug-In . SVG Version: 6.00 Build 0)  -->
<svg version="1.1" id="Layer_1" xmlns="http://www.w3.org/2000/svg" xmlns:xlink="http://www.w3.org/1999/xlink" x="0px" y="0px"
	 viewBox="0 0 150 150" style="enable-background:new 0 0 150 150;" xml:space="preserve">
<style type="text/css">
	.st0{fill:#234DD4;stroke:#FFFFFF;stroke-miterlimit:10;}
</style>
<g>
	<path class="st0" d="M121,32c-12.3-12.3-28.6-19-46-19c-15.6,0-30.7,5.6-42.5,15.8c-0.8,0.7-0.9,1.9-0.2,2.7
		c0.7,0.8,1.9,0.9,2.7,0.2c11.1-9.6,25.3-14.9,40-14.9c16.3,0,31.7,6.4,43.2,17.9s17.9,26.9,17.9,43.2s-6.4,31.7-17.9,43.2
		S91.3,139.1,75,139.1s-31.7-6.4-43.2-17.9S13.9,94.3,13.9,78c0-15.2,5.6-29.8,15.8-41c0.7-0.8,0.7-2-0.1-2.7
		c-0.8-0.7-2-0.7-2.7,0.1C16,46.4,10,61.9,10,78c0,17.4,6.8,33.7,19,46s28.6,19,46,19s33.7-6.8,46-19s19-28.6,19-46
		S133.2,44.3,121,32z"/>
	<path class="st0" d="M72.5,101.1c-6,0-10.8,4.9-10.8,10.9S66.6,123,72.5,123c2.9,0,5.7-1.2,7.8-3.3c2-2.1,3.2-4.8,3.2-7.6
		c0-2.9-1.1-5.6-3.2-7.7C78.2,102.3,75.4,101.1,72.5,101.1z M72.5,119.1c-3.8,0-7-3.2-7-7.1s3.1-7.1,7-7.1c3.8,0,7.1,3.2,7.1,7.1
		S76.4,119.1,72.5,119.1z"/>
	<path class="st0" d="M91.1,71c0.8,0.7,2,0.6,2.7-0.2c4.7-5.3,7-10.9,7-16.6c0-6-2.7-11.4-7.6-15.3C88.4,35.1,81.8,33,74.1,33
		c-9.5,0-15.4,3.2-18.7,5.9c-3.9,3.3-6.3,7.6-6.3,11.7c0,2.6,1.1,5,3,6.5c1.6,1.3,3.8,2,5.9,2c3.7,0,5.3-2.4,6.6-4.3
		c1.6-2.4,3.2-4.7,9.1-4.7c2,0,8.6,0.4,8.6,6c0,4.2-3.9,7.2-7.3,9.8c-0.8,0.7-1.7,1.3-2.4,1.9c-4,3.4-8.5,8.7-8.5,19.2
		c0,5.9,1.4,9.8,8.4,9.8c3.1,0,5.4-0.7,6.9-2.1c1.3-1.2,1.9-2.8,1.9-4.7c0-5.7,0-8.5,5.8-13.1l0.1-0.1c0.3-0.2,0.6-0.4,0.9-0.7
		c0.8-0.7,1-1.9,0.3-2.7s-1.9-1-2.7-0.3c-0.3,0.2-0.6,0.5-0.8,0.7l-0.1,0.1c-6.9,5.4-7.3,9.5-7.3,16.1c0,0.9,0,2.9-5,2.9
		c-2.4,0-3.2-0.5-3.5-0.9c-0.6-0.8-1-2.4-1-5c0-8.9,3.6-13.3,7.1-16.3c0.7-0.6,1.4-1.2,2.2-1.8c3.9-3,8.8-6.8,8.8-12.9
		c0-6-4.9-9.9-12.4-9.9c-7.9,0-10.4,3.7-12.3,6.4c-1.3,1.8-1.8,2.6-3.4,2.6c-2,0-5.1-1.3-5.1-4.7c0-2.3,1.3-5.7,4.9-8.7
		c2.8-2.3,7.8-5,16.2-5c13.5,0,23,7.1,23,17.4c0,4.7-2,9.4-6.1,14C90.3,69.1,90.3,70.3,91.1,71z"/>
</g>
</svg>
