<?xml version="1.0" encoding="utf-8"?>
<!-- Generator: Adobe Illustrator 22.1.0, SVG Export Plug-In . SVG Version: 6.00 Build 0)  -->
<svg version="1.1" id="Layer_1" xmlns="http://www.w3.org/2000/svg" xmlns:xlink="http://www.w3.org/1999/xlink" x="0px" y="0px"
	 viewBox="0 0 150 150" style="enable-background:new 0 0 150 150;" xml:space="preserve">
<style type="text/css">
	.st0{fill:#234DD4;stroke:#FFFFFF;stroke-miterlimit:10;}
	.st1{fill:#234DD4;stroke:#FFFFFF;stroke-width:1.5;stroke-miterlimit:10;}
</style>
<g>
	<g>
		<path class="st0" d="M132,132.2h-2.2V32.6h0.1c1.1,0,2-0.9,2-2c0-1.1-0.9-2-2-2H104c0.3-0.7,0.4-1.5,0.4-2.2v-6.3
			c0-3.4-2.8-6.2-6.2-6.2H51.8c-3.4,0-6.2,2.8-6.2,6.2v6.3c0,0.8,0.2,1.5,0.4,2.2H20.1c-1.1,0-2,0.9-2,2c0,1.1,0.9,2,2,2h0.1v99.5
			H18c-1.1,0-2,0.9-2,2s0.9,2,2,2h114c1.1,0,2-0.9,2-2C134,133,133.1,132.2,132,132.2z M49.5,20.1c0-1.2,1-2.2,2.2-2.2h46.5
			c1.2,0,2.2,1,2.2,2.2v6.3c0,1.2-1,2.2-2.2,2.2H51.8c-1.2,0-2.2-1-2.2-2.2L49.5,20.1L49.5,20.1z M51.9,132.2H34.7V115h17.2
			L51.9,132.2L51.9,132.2z M51.9,111H34.7v-0.1c0-4.7,3.8-8.6,8.6-8.6c4.7,0,8.6,3.8,8.6,8.6L51.9,111L51.9,111z M73,132.2h-6.6V115
			H73V132.2z M83.6,132.2H77V115h6.6V132.2z M83.6,111H66.4v-0.1c0-4.7,3.8-8.6,8.6-8.6c4.7,0,8.6,3.8,8.6,8.6L83.6,111L83.6,111z
			 M115.3,132.2H98.1V115h17.2C115.3,115,115.3,132.2,115.3,132.2z M115.3,111H98.1v-0.1c0-4.7,3.8-8.6,8.6-8.6s8.6,3.8,8.6,8.6
			L115.3,111L115.3,111z M125.8,81.5H115V47.5c0-4.6-3.7-8.3-8.3-8.3c-4.6,0-8.3,3.7-8.3,8.3v33.9h-4.5V47.5c0-4.6-3.7-8.3-8.3-8.3
			s-8.3,3.7-8.3,8.3v33.9h-4.5V47.5c0-4.6-3.7-8.3-8.3-8.3c-4.6,0-8.3,3.7-8.3,8.3v33.9h-4.5V47.5c0-4.6-3.7-8.3-8.3-8.3
			S35,43,35,47.5v35.9c0,1.1,0.9,2,2,2h88.8v4.5h-14.9c-1.1,0-2,0.9-2,2c0,1.1,0.9,2,2,2h14.9v38.3h-6.6v-21.3
			c0-6.9-5.6-12.5-12.5-12.5s-12.5,5.6-12.5,12.5v21.3h-6.6v-21.3c0-6.9-5.6-12.5-12.5-12.5s-12.5,5.6-12.5,12.5v21.3h-6.6v-21.3
			c0-6.9-5.6-12.5-12.5-12.5s-12.5,5.6-12.5,12.5v21.3h-6.6V93.9h65.6c1.1,0,2-0.9,2-2c0-1.1-0.9-2-2-2H24.2v-4.5h4.4
			c1.1,0,2-0.9,2-2c0-1.1-0.9-2-2-2h-4.4V32.6h101.6L125.8,81.5L125.8,81.5z M102.3,64.6v-8.7h8.7v8.7H102.3z M111,68.5v12.9h-8.7
			V68.5H111L111,68.5z M102.3,51.9v-4.4c0-2.4,2-4.4,4.4-4.4c2.4,0,4.4,2,4.4,4.4v4.4H102.3z M81.2,64.6v-8.7h8.7v8.7H81.2z
			 M89.9,68.5v12.9h-8.7V68.5H89.9L89.9,68.5z M81.2,51.9v-4.4c0-2.4,2-4.4,4.4-4.4c2.4,0,4.4,2,4.4,4.4v4.4H81.2z M60.1,64.6v-8.7
			h8.7v8.7H60.1z M68.8,68.5v12.9h-8.7V68.5H68.8L68.8,68.5z M60.1,51.9v-4.4c0-2.4,2-4.4,4.4-4.4s4.4,2,4.4,4.4v4.4H60.1z M39,64.6
			v-8.7h8.7v8.7H39z M47.7,68.5v12.9H39V68.5H47.7L47.7,68.5z M39,51.9v-4.4c0-2.4,2-4.4,4.4-4.4s4.4,2,4.4,4.4v4.4H39z"/>
	</g>
</g>
<g>
	<g>
		<path class="st1" d="M100.2,88.7h-3.9c-1,0-1.8,0.8-1.8,1.8c0,1,0.8,1.8,1.8,1.8h3.9c1,0,1.8-0.8,1.8-1.8
			C102,89.5,101.2,88.7,100.2,88.7z"/>
	</g>
</g>
</svg>
