<?xml version="1.0" encoding="utf-8"?>
<!-- Generator: Adobe Illustrator 22.1.0, SVG Export Plug-In . SVG Version: 6.00 Build 0)  -->
<svg version="1.1" id="idea" xmlns="http://www.w3.org/2000/svg" xmlns:xlink="http://www.w3.org/1999/xlink" x="0px" y="0px"
	 viewBox="0 0 124 124" style="enable-background:new 0 0 124 124;" xml:space="preserve">
<style type="text/css">
	.st0{fill:#43C370;stroke:#FFFFFF;stroke-miterlimit:10;}
</style>
<g>
	<path class="st0" d="M89,60.3c5.5,0,9.9-4.4,9.9-9.9s-4.4-9.9-9.9-9.9s-9.9,4.4-9.9,9.9S83.5,60.3,89,60.3z M89,44.5
		c3.3,0,5.9,2.7,5.9,5.9c0,3.3-2.7,5.9-5.9,5.9c-3.3,0-5.9-2.7-5.9-5.9S85.7,44.5,89,44.5z"/>
	<path class="st0" d="M89,64.3c-2.7,0-5.3,0.7-7.7,1.9c-1,0.5-1.3,1.7-0.8,2.7c0.5,1,1.7,1.3,2.7,0.8c1.8-1,3.8-1.5,5.8-1.5
		c6.2,0,11.3,4.5,12.2,10.4H89c-1.1,0-2,0.9-2,2c0,1.1,0.9,2,2,2h14.4c1.1,0,2-0.9,2-2C105.3,71.6,98,64.3,89,64.3L89,64.3z"/>
	<path class="st0" d="M35.2,78.6H22.8c1-5.9,6.1-10.4,12.2-10.4c2,0,4.1,0.5,5.8,1.5c1,0.5,2.2,0.2,2.7-0.8c0.5-1,0.2-2.2-0.8-2.7
		c-2.4-1.3-5-1.9-7.7-1.9c-9,0-16.3,7.3-16.3,16.3c0,1.1,0.9,2,2,2h14.5c1.1,0,2-0.9,2-2S36.3,78.6,35.2,78.6z"/>
	<path class="st0" d="M35,60.3c5.5,0,9.9-4.4,9.9-9.9s-4.4-9.9-9.9-9.9s-9.9,4.4-9.9,9.9S29.6,60.3,35,60.3z M35,44.5
		c3.3,0,5.9,2.7,5.9,5.9c0,3.3-2.7,5.9-5.9,5.9c-3.3,0-5.9-2.7-5.9-5.9C29.1,47.1,31.8,44.5,35,44.5z"/>
	<path class="st0" d="M62,61c7,0,12.7-5.7,12.7-12.7S69,35.5,62,35.5s-12.7,5.7-12.7,12.7S55,61,62,61z M62,39.5
		c4.8,0,8.8,3.9,8.8,8.8s-3.9,8.8-8.8,8.8s-8.8-3.9-8.8-8.8S57.2,39.5,62,39.5z"/>
	<path class="st0" d="M62,65c-11.9,0-21.5,9.6-21.5,21.5c0,1.1,0.9,2,2,2h39c1.1,0,2-0.9,2-2C83.5,74.6,73.9,65,62,65L62,65z
		 M44.6,84.5c1-8.7,8.4-15.6,17.4-15.6s16.4,6.8,17.4,15.6H44.6L44.6,84.5z"/>
	<path class="st0" d="M122,60h-4.8C116.2,31.1,92.9,7.8,64,6.8V2c0-1.1-0.9-2-2-2s-2,0.9-2,2v4.8C31.1,7.8,7.8,31.1,6.8,60H2
		c-1.1,0-2,0.9-2,2c0,1.1,0.9,2,2,2h4.8c1,28.9,24.3,52.2,53.2,53.2v4.8c0,1.1,0.9,2,2,2s2-0.9,2-2v-4.8c28.9-1,52.2-24.3,53.2-53.2
		h4.8c1.1,0,2-0.9,2-2C124,60.9,123.1,60,122,60z M64,113.3v-4.7c0-1.1-0.9-2-2-2s-2,0.9-2,2v4.7c-26.7-1-48.3-22.6-49.3-49.3h4.7
		c1.1,0,2-0.9,2-2c0-1.1-0.9-2-2-2h-4.7c1-26.7,22.6-48.3,49.3-49.3v4.7c0,1.1,0.9,2,2,2s2-0.9,2-2v-4.7c26.7,1,48.3,22.6,49.3,49.3
		h-4.7c-1.1,0-2,0.9-2,2c0,1.1,0.9,2,2,2h4.7C112.2,90.7,90.7,112.2,64,113.3z"/>
</g>
</svg>
