<?xml version="1.0" standalone="no"?>
<!DOCTYPE svg PUBLIC "-//W3C//DTD SVG 20010904//EN"
 "http://www.w3.org/TR/2001/REC-SVG-20010904/DTD/svg10.dtd">
<svg version="1.0" xmlns="http://www.w3.org/2000/svg"
 width="512.000000pt" height="512.000000pt" viewBox="0 0 512.000000 512.000000"
 preserveAspectRatio="xMidYMid meet">

<g transform="translate(0.000000,512.000000) scale(0.100000,-0.100000)"
fill="#43C370" stroke="none">
<path d="M2211 4674 c-21 -26 -21 -35 -21 -574 0 -510 1 -549 18 -570 17 -21
21 -22 316 -23 l299 0 19 22 c17 22 18 53 18 571 0 539 0 548 -21 574 l-20 26
-294 0 -294 0 -20 -26z m517 -571 l-3 -468 -200 0 -200 0 -3 468 -2 467 205 0
205 0 -2 -467z"/>
<path d="M2486 3879 c-14 -11 -26 -31 -26 -43 0 -27 39 -66 66 -66 26 0 64 40
64 67 0 22 -43 63 -65 63 -7 0 -24 -9 -39 -21z"/>
<path d="M1362 3886 c-50 -18 -97 -60 -121 -110 l-21 -46 0 -1570 c0 -1295 2
-1576 13 -1603 20 -47 64 -95 108 -117 37 -20 66 -20 1184 -20 1108 0 1147 1
1183 19 48 25 87 66 106 113 14 32 16 104 16 496 0 447 0 459 -20 480 -24 26
-57 28 -88 6 l-22 -15 0 -469 0 -469 -22 -15 c-20 -14 -146 -16 -1159 -16
-1088 0 -1137 1 -1152 18 -16 17 -17 142 -17 1589 l0 1570 23 21 c23 22 28 22
351 22 l327 0 -3 63 -3 62 -325 1 c-223 1 -335 -2 -358 -10z"/>
<path d="M3007 3893 c-4 -3 -7 -33 -7 -65 l0 -58 328 0 329 0 21 -23 22 -23 0
-860 0 -861 23 -21 c30 -28 58 -28 85 1 l22 23 0 862 c0 858 0 862 -21 907
-27 56 -78 100 -135 114 -47 12 -656 16 -667 4z"/>
<path d="M2423 3241 c-119 -44 -191 -126 -222 -255 -14 -58 -1 -136 34 -206
25 -50 110 -135 150 -150 14 -5 25 -16 25 -25 0 -8 -18 -106 -40 -217 -23
-111 -40 -214 -38 -227 4 -34 153 -160 189 -161 26 0 95 47 167 114 35 33 39
57 22 129 -5 23 -16 83 -25 132 -14 79 -25 135 -41 212 -3 18 7 30 55 62 108
74 168 186 157 299 -15 173 -141 296 -312 307 -52 4 -82 0 -121 -14z m187
-128 c166 -86 157 -306 -17 -378 -124 -52 -272 54 -273 194 0 108 97 208 206
210 17 1 54 -11 84 -26z m-66 -635 c21 -116 44 -282 40 -292 -2 -6 -18 -20
-34 -29 -29 -17 -30 -17 -60 10 l-32 28 21 110 c12 61 21 118 21 127 0 26 18
68 30 68 5 0 11 -10 14 -22z"/>
<path d="M2099 2602 c-62 -40 -126 -114 -156 -178 -46 -101 -52 -151 -53 -417
0 -269 3 -284 56 -326 26 -21 34 -21 573 -21 417 0 552 3 571 13 13 7 35 28
47 46 22 33 23 40 23 287 0 271 -6 314 -54 420 -29 63 -103 146 -163 181 l-44
25 -48 -43 c-27 -24 -49 -47 -50 -51 -1 -3 14 -12 33 -18 52 -17 124 -76 147
-122 44 -86 49 -122 49 -370 l0 -238 -505 0 -505 0 0 243 c0 253 3 275 50 367
24 47 81 95 138 117 23 9 41 19 40 22 -4 9 -94 91 -100 91 -2 0 -24 -13 -49
-28z"/>
<path d="M3722 1797 c-12 -13 -22 -32 -22 -44 0 -50 85 -73 114 -31 22 31 20
51 -7 76 -30 28 -58 28 -85 -1z"/>
<path d="M1800 1413 c-45 -16 -52 -72 -13 -102 26 -21 29 -21 749 -19 710 3
723 3 738 23 19 25 20 56 2 81 -14 18 -34 19 -738 21 -398 1 -730 -1 -738 -4z"/>
<path d="M1800 1143 c-40 -16 -52 -69 -22 -96 17 -16 83 -17 749 -17 694 0
731 1 746 18 21 23 22 52 3 78 -14 18 -34 19 -738 21 -398 1 -730 -1 -738 -4z"/>
<path d="M1775 854 c-30 -33 -30 -35 -4 -68 l20 -26 733 0 c697 0 734 1 749
18 23 25 21 58 -3 82 -20 20 -33 20 -745 20 l-726 0 -24 -26z"/>
</g>
</svg>
