<?xml version="1.0" standalone="no"?>
<!DOCTYPE svg PUBLIC "-//W3C//DTD SVG 20010904//EN"
 "http://www.w3.org/TR/2001/REC-SVG-20010904/DTD/svg10.dtd">
<svg version="1.0" xmlns="http://www.w3.org/2000/svg"
 width="512.000000pt" height="512.000000pt" viewBox="0 0 512.000000 512.000000"
 preserveAspectRatio="xMidYMid meet">

<g transform="translate(0.000000,512.000000) scale(0.100000,-0.100000)"
fill="#234DD4" stroke="none">
<path d="M1921 4544 l-31 -26 0 -624 0 -625 -57 -69 c-32 -37 -72 -85 -89
-106 l-31 -38 -55 37 c-31 20 -59 37 -61 37 -3 0 -38 22 -79 48 -40 27 -80 51
-88 55 -8 4 -64 38 -124 77 -103 67 -112 71 -160 68 -58 -3 -65 -10 -176 -194
-36 -59 -102 -165 -147 -236 -46 -71 -83 -131 -83 -134 0 -4 -71 -117 -112
-176 -10 -15 -18 -29 -18 -32 0 -3 -29 -49 -64 -103 -35 -54 -73 -115 -85
-136 -40 -72 -23 -118 64 -172 33 -21 72 -46 87 -56 15 -11 30 -19 33 -19 3 0
11 -5 18 -10 17 -15 164 -108 201 -129 17 -9 63 -38 103 -64 40 -26 77 -47 82
-47 6 0 11 -3 11 -7 0 -5 23 -21 51 -38 28 -16 62 -37 74 -45 19 -13 141 -88
203 -125 9 -6 36 -23 59 -38 24 -15 47 -27 53 -27 5 0 10 -4 10 -8 0 -5 12
-15 28 -23 15 -8 29 -16 32 -19 5 -6 176 -112 220 -137 14 -8 63 -39 110 -68
47 -30 127 -80 178 -111 l92 -56 0 -150 0 -150 34 -34 34 -34 325 0 326 0 28
24 28 24 5 159 5 158 65 43 c36 23 70 45 76 50 5 4 19 12 30 19 48 30 177 109
197 121 12 7 49 31 82 52 33 22 78 49 99 61 22 12 46 27 53 35 7 7 22 16 33
19 11 3 20 11 20 16 0 5 5 9 11 9 6 0 30 13 53 28 22 15 48 31 56 35 8 4 53
32 100 61 47 30 117 74 155 98 39 23 72 46 73 50 2 5 8 8 13 8 5 0 43 22 85
50 41 27 78 50 80 50 3 0 43 25 90 56 47 30 96 60 110 66 13 6 24 15 24 20 0
4 5 8 10 8 6 0 23 8 38 19 15 10 54 35 87 56 87 54 104 100 64 172 -12 21 -49
81 -83 133 -33 52 -65 102 -71 112 -25 46 -292 471 -305 485 -5 7 -10 14 -10
17 0 7 -141 230 -158 249 -10 12 -30 17 -63 17 -42 0 -60 -8 -156 -70 -59 -39
-115 -73 -123 -77 -8 -4 -48 -28 -88 -55 -41 -26 -76 -48 -79 -48 -2 0 -29
-16 -59 -36 -30 -20 -56 -35 -57 -33 -47 66 -120 159 -136 173 -21 19 -21 20
-21 627 0 406 -4 617 -11 636 -6 15 -20 38 -31 51 l-21 22 -618 0 -617 0 -31
-26z m1119 -649 c0 -261 -4 -475 -8 -475 -19 0 -73 32 -81 48 -5 9 -6 31 -4
48 3 18 0 35 -6 38 -6 4 -11 16 -11 27 0 27 -58 115 -106 161 -22 20 -66 49
-99 65 -54 25 -70 28 -166 27 -103 -1 -108 -2 -175 -38 -67 -37 -84 -52 -129
-111 -42 -55 -62 -99 -75 -168 -12 -58 -18 -71 -41 -83 -63 -32 -59 -60 -59
454 0 258 3 472 7 475 3 4 219 7 480 7 l473 0 0 -475z m-403 -270 c77 -36 138
-125 76 -108 -16 5 -94 8 -175 8 -82 -1 -148 1 -148 3 0 16 38 63 64 78 80 49
114 53 183 19z m51 -306 c53 -6 101 -15 107 -20 5 -5 17 -9 26 -9 33 0 167
-78 256 -149 107 -84 237 -292 249 -398 2 -12 7 -30 12 -40 15 -27 10 -297 -5
-315 -7 -8 -10 -17 -7 -20 9 -9 -72 -163 -127 -243 -27 -40 -73 -99 -102 -131
-134 -150 -247 -357 -263 -479 0 -5 -3 -17 -7 -25 -3 -8 -8 -26 -11 -40 -6
-30 -32 -67 -40 -59 -4 3 -1 48 5 100 7 52 13 114 14 139 1 25 5 52 8 60 3 8
8 42 11 75 10 115 23 220 31 238 6 14 20 17 80 17 69 0 75 2 99 31 17 19 26
43 26 64 0 21 -9 45 -26 64 l-26 31 -434 0 -435 0 -24 -26 c-35 -38 -35 -102
1 -138 23 -23 35 -26 93 -26 36 0 71 -4 77 -8 12 -7 19 -56 27 -178 3 -33 10
-71 16 -83 7 -12 9 -31 6 -41 -4 -11 -1 -46 6 -78 6 -31 13 -73 14 -92 1 -19
5 -61 10 -94 7 -54 7 -58 -11 -54 -10 2 -20 12 -22 23 -2 11 -8 30 -14 42 -6
13 -9 26 -5 29 3 4 0 18 -7 33 -7 14 -11 31 -9 38 2 6 -1 14 -6 18 -6 3 -11
15 -11 25 0 11 -9 35 -20 55 -11 20 -20 42 -20 50 0 8 -3 15 -8 15 -4 0 -13
15 -21 33 -23 53 -106 171 -172 244 -89 99 -175 231 -212 323 -5 14 -14 33
-19 43 -5 11 -7 21 -4 24 2 3 0 17 -5 31 -14 36 -14 240 0 275 6 16 9 32 6 37
-14 23 95 233 164 316 119 144 306 251 474 273 91 12 147 12 255 0z m-1457
-196 c13 -10 33 -23 44 -30 11 -7 55 -34 98 -60 42 -26 85 -53 95 -58 9 -6 50
-32 91 -58 63 -41 72 -51 66 -70 -17 -55 -27 -106 -32 -155 -4 -44 -9 -56 -31
-69 -126 -76 -171 -123 -212 -220 -81 -194 2 -402 200 -500 43 -22 72 -28 139
-31 49 -3 101 1 125 8 l41 12 48 -53 c27 -29 59 -69 72 -88 44 -70 105 -193
105 -211 0 -10 5 -22 10 -25 15 -9 12 -55 -3 -55 -7 0 -35 15 -63 33 -28 17
-59 37 -70 44 -10 6 -82 51 -159 99 -148 93 -257 161 -290 181 -95 57 -162 99
-170 106 -17 14 -314 197 -355 218 -21 11 -44 27 -51 35 -6 8 -17 14 -24 14
-8 0 -15 4 -17 8 -1 4 -25 21 -52 37 -27 17 -60 38 -75 47 -14 10 -38 24 -53
33 -33 18 -34 27 -9 63 31 43 151 233 151 237 0 2 25 43 55 90 30 46 55 87 55
89 0 3 26 44 58 93 32 48 81 125 108 170 52 87 65 95 105 66z m2770 -76 c31
-50 104 -168 162 -261 59 -92 107 -170 107 -172 0 -4 123 -197 151 -236 25
-36 24 -45 -8 -63 -16 -9 -40 -23 -54 -33 -15 -9 -50 -30 -78 -47 -28 -16 -51
-33 -51 -37 0 -5 -6 -8 -14 -8 -7 0 -19 -6 -25 -14 -7 -8 -30 -24 -52 -35 -21
-11 -91 -53 -154 -93 -64 -40 -135 -84 -158 -97 -23 -13 -44 -27 -47 -30 -4
-6 -56 -38 -178 -112 -46 -28 -263 -163 -342 -213 -41 -26 -84 -53 -94 -59
-11 -7 -42 -27 -70 -44 -28 -18 -56 -33 -63 -33 -15 0 -17 16 -3 25 6 3 10 16
10 29 0 54 124 267 198 339 36 35 40 37 70 26 18 -6 71 -9 120 -7 70 3 98 9
142 31 106 52 164 117 209 229 34 85 27 199 -17 288 -17 36 -44 79 -59 96 -28
31 -129 104 -143 104 -8 0 -13 23 -25 105 -4 22 -10 49 -14 60 -4 11 -13 35
-19 53 l-11 33 72 47 c40 26 80 51 89 57 10 5 53 32 95 58 43 26 87 53 98 60
11 7 31 20 44 30 13 9 31 17 40 17 9 0 39 -38 72 -93z m-2402 -689 c7 -24 17
-51 22 -60 5 -10 9 -24 9 -32 0 -8 21 -56 46 -106 25 -50 44 -93 42 -96 -3 -2
-29 3 -59 12 -101 30 -163 131 -136 220 13 42 47 104 58 104 3 0 11 -19 18
-42z m1998 -62 c22 -79 -24 -172 -101 -207 -36 -16 -86 -25 -86 -15 0 2 18 38
40 80 22 42 40 84 40 94 0 10 4 22 8 28 5 5 15 29 22 54 7 25 16 49 18 54 9
16 47 -42 59 -88z m-954 -306 c-3 -30 -21 -180 -33 -270 -5 -36 -13 -101 -18
-145 -20 -161 -36 -188 -46 -77 -3 37 -10 99 -15 137 -27 201 -33 246 -38 313
l-5 73 78 -3 c77 -3 79 -4 77 -28z m112 -910 l0 -75 -190 0 -190 0 -3 64 c-2
35 -1 70 2 78 5 11 41 13 193 11 l188 -3 0 -75z"/>
<path d="M2332 743 c-28 -5 -62 -58 -62 -95 0 -16 13 -42 31 -63 l31 -35 233
0 232 0 27 26 c21 21 26 36 26 74 0 42 -4 52 -31 74 l-31 26 -216 -1 c-119 -1
-227 -4 -240 -6z"/>
</g>
</svg>
