<?xml version="1.0" encoding="utf-8"?>
<!-- Generator: Adobe Illustrator 22.1.0, SVG Export Plug-In . SVG Version: 6.00 Build 0)  -->
<svg version="1.1" id="Layer_1" xmlns="http://www.w3.org/2000/svg" xmlns:xlink="http://www.w3.org/1999/xlink" x="0px" y="0px"
	 viewBox="0 0 150 150" style="enable-background:new 0 0 150 150;" xml:space="preserve">
<style type="text/css">
	.st0{fill:#43C370;stroke:#FFFFFF;stroke-width:1.8065;stroke-miterlimit:10;}
</style>
<g>
	<g>
		<g>
			<rect x="88.5" y="48.1" class="st0" width="4.1" height="4.1"/>
			<rect x="55.4" y="48.1" class="st0" width="4.1" height="4.1"/>
			<path class="st0" d="M127.6,21.5c-2.9-5.2-8.4-8.5-14.4-8.5c-6.4,0-12.1,3.7-14.8,9.2C91.6,16.3,83.1,13,74,13
				c-18.4,0-34,13.7-36.7,31.6c-1.5-0.4-3-0.7-4.6-0.7c-7.8,0-14.6,5.6-16.2,13.1c-3.9,1.5-6.6,5.3-6.6,9.6C10,72.4,14.6,77,20.3,77
				h24.8c1,0,2-0.1,2.9-0.4c0.4,0.4,0.8,0.8,1.2,1.2v1.2h-4.1v4.1h4.1v4.1h-4.1v4.1h4.1v8.3h4.1v12.4h-8.3v4.1h3.3l-3,3
				c-1.5,1.5-2.3,3.5-2.3,5.6c0,3.8,2.8,7,6.4,7.8c0.9,4.8,5.1,8.4,10.1,8.4h28.9c5,0,9.2-3.6,10.1-8.4c3.6-0.7,6.4-3.9,6.4-7.8
				c0-2.1-0.8-4.1-2.3-5.6l-3-3h3.3v-4.1h-8.3V99.7h4.1v-8.3h4.1v-4.1h-4.1v-4.1h4.1v-4.1h-4.1v-1.2c7.9-7.1,12.4-17.1,12.4-27.7
				c0-1.3-0.1-2.7-0.3-4.1h14.7c6.8,0,12.4-5.6,12.4-12.4C138,27.6,133.5,22.4,127.6,21.5z M45.1,72.9H20.3c-3.4,0-6.2-2.8-6.2-6.2
				c0-2.9,1.9-5.3,4.7-6l1.4-0.3l0.2-1.4c0.8-6.2,6.1-10.8,12.3-10.8c4.8,0,9.2,2.8,11.2,7.1l0.5,1.1l1.2,0.1
				c4.3,0.3,7.7,3.9,7.7,8.2C53.4,69.2,49.7,72.9,45.1,72.9z M51.6,128.6h-0.7c-2.1,0-3.8-1.7-3.8-3.8c0-1,0.4-2,1.1-2.7l3-3l3,3
				c0.7,0.7,1.1,1.7,1.1,2.7C55.4,126.9,53.7,128.6,51.6,128.6z M88.5,136.9H59.5c-2.8,0-5.1-1.9-5.9-4.4c3.4-0.9,5.9-4,5.9-7.6
				c0-2.1-0.8-4.1-2.3-5.6l-3-3h39.6l-3,3c-1.5,1.5-2.3,3.5-2.3,5.6c0,3.7,2.5,6.7,5.9,7.6C93.6,135,91.2,136.9,88.5,136.9z
				 M57.5,112.1V99.7h33v12.4H57.5z M96.7,119.1l3,3c0.7,0.7,1.1,1.7,1.1,2.7c0,2.1-1.7,3.8-3.8,3.8h-0.7c-2.1,0-3.8-1.7-3.8-3.8
				c0-1,0.4-2,1.1-2.7L96.7,119.1z M94.6,95.6H53.4v-4.1h41.3L94.6,95.6L94.6,95.6z M94.6,87.3H53.4v-4.1h41.3L94.6,87.3L94.6,87.3z
				 M95.4,75.3l-0.7,0.6v3.1H76.1V60.3c4.7-1,8.3-5.1,8.3-10.1c0-5.7-4.6-10.3-10.3-10.3s-10.3,4.6-10.3,10.3c0,5,3.6,9.2,8.3,10.1
				v18.8H53.4v-3.1l-0.7-0.6c-0.2-0.2-0.3-0.3-0.5-0.5c3.2-2.2,5.4-6,5.4-10.2c0-6.1-4.5-11.2-10.4-12.2c-1.4-2.5-3.5-4.6-5.9-6
				c1.9-16.5,16-29.3,32.7-29.3c8.6,0,16.6,3.3,22.7,9.2c-3.7,1.6-6.2,5.3-6.2,9.4c0,5.7,4.6,10.3,10.3,10.3h5.9
				c0.2,1.4,0.3,2.8,0.3,4.1C107,59.8,102.8,69,95.4,75.3z M74,56.4c-3.4,0-6.2-2.8-6.2-6.2c0-3.4,2.8-6.2,6.2-6.2s6.2,2.8,6.2,6.2
				C80.2,53.6,77.4,56.4,74,56.4z M125.6,41.9h-24.8c-3.4,0-6.2-2.8-6.2-6.2c0-2.9,1.9-5.3,4.7-6l1.4-0.3l0.2-1.4
				c0.8-6.2,6.1-10.8,12.3-10.8c4.8,0,9.2,2.8,11.2,7.1l0.5,1.1l1.2,0.1c4.3,0.3,7.7,3.9,7.7,8.2C133.9,38.2,130.2,41.9,125.6,41.9z
				"/>
		</g>
	</g>
</g>
</svg>
