<?xml version="1.0" encoding="utf-8"?>
<!-- Generator: Adobe Illustrator 22.1.0, SVG Export Plug-In . SVG Version: 6.00 Build 0)  -->
<svg version="1.1" id="Layer_1" xmlns="http://www.w3.org/2000/svg" xmlns:xlink="http://www.w3.org/1999/xlink" x="0px" y="0px"
	 viewBox="0 0 150 150" style="enable-background:new 0 0 150 150;" xml:space="preserve">
<style type="text/css">
	.st0{fill:#43C370;stroke:#151B26;stroke-width:2;stroke-miterlimit:10;}
	.st1{fill:none;stroke:#43C370;stroke-width:2;stroke-miterlimit:10;}
</style>
<g>
	<path class="st0" d="M127,90.2l4.9-38.6L96.8,38.2l-11.1,5.3c-0.3,1.7-0.9,3.4-1.5,4.9l8.4-4l-3.5,37.4l0.2,2l-25.7,3.9l-2.1,4.2
		l28.1-4.2l3.2,33.2l3.8-0.4l-3.3-33.4l0.3-0.1l29.4,3.7l0.1-0.6l4.4,37.3L97,120.5l-39.9,7.6l-0.3-0.1l3.6-34v-0.2l-0.1-1.3
		l-4.9-9.7l0.7,6.1L55.2,89l-28.4-4.4l0.2-1.4l-4.4-34.3l19.9,8.4L40.8,54c-0.5-0.7-1-1.4-1.5-2.2l-21.3-9l5.1,40.4L23,84.1h-0.1
		l-0.6,3.7h0.2l-4.4,36.8l39,7.3l39.8-7.6l35.1,8.1L127,90.2z M93.7,83.2L93,83.3l-0.1-1.4l3.7-39.3l0.4-0.2l30.8,11.7l-4.2,33
		L93.7,83.2z M53.1,127.3l-30.8-5.8l3.9-33.1l28.9,4.5l1.3-0.2l0.1,1.3L53.1,127.3z M60.7,93.5l-0.5-1v-0.4l1.3-0.2L60.7,93.5z"/>
</g>
<g>
	<path class="st1" d="M44,52.3l16.8,33.1l16.6-32.7c3.3-3.8,5.2-8.7,5.2-14.1c0-12-9.7-21.7-21.7-21.7s-21.7,9.7-21.7,21.7
		C39.1,43.8,41,48.5,44,52.3C44.1,52.3,44,52.3,44,52.3z M60.8,25.2c7.4,0,13.3,6,13.3,13.3c0,7.4-6,13.3-13.3,13.3
		s-13.3-6-13.3-13.3S53.5,25.2,60.8,25.2z"/>
</g>
</svg>
