<?xml version="1.0" standalone="no"?>
<!DOCTYPE svg PUBLIC "-//W3C//DTD SVG 20010904//EN"
 "http://www.w3.org/TR/2001/REC-SVG-20010904/DTD/svg10.dtd">
<svg version="1.0" xmlns="http://www.w3.org/2000/svg"
 width="863.000000pt" height="343.000000pt" viewBox="0 0 863.000000 343.000000"
 preserveAspectRatio="xMidYMid meet">
<metadata>
Created by potrace 1.15, written by Peter Selinger 2001-2017
</metadata>
<g transform="translate(0.000000,343.000000) scale(0.100000,-0.100000)"
fill="#000000" stroke="none">
<path d="M2590 3033 c-182 -30 -384 -121 -555 -251 -33 -25 -173 -157 -310
-294 l-251 -248 -264 -1 c-146 0 -296 -3 -334 -8 l-68 -7 -94 -96 -94 -95 0
-54 0 -53 643 -644 c353 -354 654 -650 669 -658 15 -8 46 -14 69 -14 41 0 48
5 140 97 l96 98 7 145 c3 80 6 231 6 335 l0 190 221 220 c303 302 377 395 471
590 74 157 100 269 102 440 1 164 -5 203 -41 246 -49 57 -90 69 -248 67 -77 0
-151 -3 -165 -5z m243 -169 l37 -7 0 -103 c0 -152 -30 -276 -103 -419 -80
-159 -144 -232 -631 -723 l-470 -472 -93 92 -93 92 205 206 c202 203 205 207
205 248 0 61 -33 92 -96 92 l-47 0 -204 -202 -203 -202 -98 97 -97 97 425 426
c448 449 565 556 695 634 190 114 409 170 568 144z m-1673 -934 c-73 -77 -136
-140 -139 -140 -4 0 -50 44 -104 98 l-97 98 38 37 37 37 185 3 c102 1 191 3
198 5 8 1 -46 -61 -118 -138z m873 -1082 l-38 -38 -100 100 -100 100 135 135
135 135 3 -197 2 -197 -37 -38z"/>
<path d="M2292 2637 c-16 -17 -22 -36 -22 -67 0 -43 3 -47 133 -177 124 -124
135 -133 171 -133 53 0 96 43 96 96 0 36 -9 47 -133 171 -131 132 -133 133
-178 133 -35 0 -51 -6 -67 -23z"/>
<path d="M7539 2829 c-155 -13 -287 -76 -406 -195 -64 -64 -89 -98 -121 -165
-95 -198 -94 -399 3 -596 53 -107 142 -206 240 -265 181 -110 426 -129 616
-47 l49 21 0 139 c0 77 -2 139 -5 139 -3 0 -34 -20 -70 -45 -77 -52 -146 -75
-230 -75 -220 0 -396 146 -436 362 -34 185 69 376 248 461 64 30 74 32 183 32
129 0 165 -11 253 -78 26 -21 50 -37 52 -37 3 0 4 64 3 142 l-3 143 -73 28
c-84 32 -192 45 -303 36z"/>
<path d="M3580 2170 l0 -650 405 0 405 0 0 115 0 115 -295 0 -295 0 0 155 0
155 260 0 260 0 0 115 0 115 -260 0 -260 0 0 150 0 150 295 0 295 0 0 115 0
115 -405 0 -405 0 0 -650z"/>
<path d="M5180 2170 l0 -653 238 6 c264 6 308 14 432 74 87 42 218 165 264
248 204 368 28 817 -369 946 -63 20 -95 23 -317 27 l-248 4 0 -652z m552 377
c92 -45 157 -112 201 -205 30 -62 32 -75 32 -172 0 -97 -2 -110 -32 -173 -58
-122 -174 -213 -302 -237 -29 -5 -94 -10 -142 -10 l-89 0 0 421 0 421 129 -4
c124 -4 131 -5 203 -41z"/>
<path d="M770 1400 c-19 -19 -20 -33 -20 -313 l0 -294 23 -21 c23 -22 29 -22
311 -22 l287 0 24 25 c34 33 34 87 0 120 l-24 25 -226 0 -225 0 0 224 c0 211
-1 225 -21 250 -27 34 -98 37 -129 6z"/>
<path d="M4025 1156 c-48 -21 -68 -51 -72 -109 -6 -72 15 -101 107 -151 90
-50 108 -81 70 -121 -14 -14 -35 -25 -50 -25 -26 0 -64 27 -72 51 -3 10 -11
10 -39 -1 -51 -20 -53 -25 -30 -64 31 -49 98 -80 162 -74 90 9 144 72 136 161
-6 65 -29 93 -118 142 -54 29 -75 47 -77 63 -8 51 53 71 85 28 l18 -24 38 19
c43 23 44 27 15 64 -39 50 -113 68 -173 41z"/>
<path d="M4365 1156 c-48 -21 -68 -51 -72 -109 -6 -72 15 -101 107 -151 90
-50 108 -81 70 -121 -14 -14 -35 -25 -50 -25 -26 0 -64 27 -72 51 -3 10 -11
10 -39 -1 -51 -20 -53 -25 -30 -64 31 -49 98 -80 162 -74 90 9 144 72 136 161
-6 65 -29 93 -118 142 -54 29 -75 47 -77 63 -8 51 53 71 85 28 l18 -24 38 19
c43 23 44 27 15 64 -39 50 -113 68 -173 41z"/>
<path d="M4703 937 c-56 -127 -105 -240 -108 -249 -6 -16 -1 -18 44 -18 50 0
51 1 67 40 l16 40 90 0 89 0 17 -40 c17 -39 18 -40 70 -40 47 0 52 2 44 18 -5
9 -55 122 -112 250 -56 127 -105 232 -109 232 -3 0 -52 -105 -108 -233z"/>
<path d="M5930 920 l0 -250 45 0 44 0 3 142 3 141 140 -150 c77 -83 142 -151
145 -152 3 -1 4 114 2 254 l-3 255 -44 0 -44 0 -3 -141 -3 -142 -135 147 c-74
80 -138 146 -142 146 -5 0 -8 -112 -8 -250z"/>
<path d="M6550 1155 c-104 -32 -170 -125 -170 -238 0 -80 15 -120 64 -175 100
-111 280 -107 378 8 116 135 53 355 -116 405 -60 18 -97 18 -156 0z m169 -108
c92 -61 95 -195 5 -263 -31 -24 -47 -29 -95 -29 -65 0 -98 18 -136 75 -17 24
-23 47 -23 85 0 66 29 111 90 143 55 28 105 25 159 -11z"/>
<path d="M7623 937 c-56 -127 -105 -240 -108 -249 -6 -16 -1 -18 44 -18 50 0
51 1 67 40 l16 40 90 0 89 0 17 -40 c17 -39 18 -40 70 -40 47 0 52 2 44 18 -5
9 -55 122 -112 250 -56 127 -105 232 -109 232 -3 0 -52 -105 -108 -233z"/>
<path d="M3780 971 c0 -205 -4 -221 -55 -221 -35 0 -55 26 -55 71 l0 39 -45 0
-45 0 0 -47 c0 -63 26 -114 70 -135 67 -34 159 -15 197 40 16 24 18 54 21 235
l3 207 -45 0 -46 0 0 -189z"/>
<path d="M4980 1115 l0 -45 60 0 60 0 0 -200 0 -200 45 0 45 0 0 200 0 200 65
0 65 0 0 45 0 45 -170 0 -170 0 0 -45z"/>
<path d="M5370 915 l0 -245 155 0 155 0 0 45 0 45 -110 0 -110 0 0 55 0 55
100 0 100 0 0 45 0 45 -100 0 -100 0 0 55 0 55 110 0 110 0 0 45 0 45 -155 0
-155 0 0 -245z"/>
<path d="M6950 915 l0 -245 45 0 45 0 0 245 0 245 -45 0 -45 0 0 -245z"/>
<path d="M7120 914 l0 -246 119 4 c114 3 121 4 162 33 24 17 57 50 74 74 26
37 30 53 33 120 4 68 1 84 -22 129 -49 96 -120 132 -266 132 l-100 0 0 -246z
m219 136 c52 -26 81 -75 81 -136 0 -93 -63 -154 -157 -154 l-53 0 0 155 0 155
45 0 c26 0 63 -9 84 -20z"/>
</g>
</svg>
