<?xml version="1.0" encoding="utf-8"?>
<!-- Generator: Adobe Illustrator 22.1.0, SVG Export Plug-In . SVG Version: 6.00 Build 0)  -->
<svg version="1.1" id="Layer_1" xmlns="http://www.w3.org/2000/svg" xmlns:xlink="http://www.w3.org/1999/xlink" x="0px" y="0px"
	 viewBox="0 0 150 150" style="enable-background:new 0 0 150 150;" xml:space="preserve">
<style type="text/css">
	.st0{fill:#FFFFFF;stroke:#234DD4;stroke-width:1.5;stroke-miterlimit:10;}
	.st1{fill:none;stroke:#FFFFFF;stroke-width:2.5;stroke-miterlimit:10;}
</style>
<g>
	<path class="st0" d="M127,91.2l4.9-38.6L96.8,39.2l-11.1,5.3c-0.3,1.7-0.9,3.4-1.5,4.9l8.4-4l-3.5,37.4l0.2,2l-25.7,3.9l-2.1,4.2
		l28.1-4.2l3.2,33.2l3.8-0.4l-3.3-33.4l0.3-0.1l29.4,3.7l0.1-0.6l4.4,37.3L97,121.5l-39.9,7.6l-0.3-0.1L60.4,95l0-0.2l-0.1-1.3
		l-4.9-9.7l0.7,6.1l-0.9,0.1l-28.4-4.4l0.2-1.4l-4.4-34.3l19.9,8.4L40.8,55c-0.5-0.7-1-1.4-1.5-2.2l-21.3-9l5.1,40.4L23,85.1l-0.1,0
		l-0.6,3.7l0.2,0l-4.4,36.8l39,7.3l39.8-7.6l35.1,8.1L127,91.2z M93.7,84.2L93,84.3l-0.1-1.4l3.7-39.3l0.4-0.2l30.8,11.7l-4.2,33
		L93.7,84.2z M53.1,128.3l-30.8-5.8l3.9-33.1l28.9,4.5l1.3-0.2l0.1,1.3L53.1,128.3z M60.7,94.5l-0.5-1l0-0.4l1.3-0.2L60.7,94.5z"/>
</g>
<g>
	<path class="st1" d="M44,53.3l16.8,33.1l16.6-32.7c3.3-3.8,5.2-8.7,5.2-14.1c0-12-9.7-21.7-21.7-21.7c-12,0-21.7,9.7-21.7,21.7
		C39.1,44.8,41,49.5,44,53.3C44.1,53.3,44,53.3,44,53.3z M60.8,26.2c7.4,0,13.3,6,13.3,13.3c0,7.4-6,13.3-13.3,13.3
		s-13.3-6-13.3-13.3C47.5,32.2,53.5,26.2,60.8,26.2z"/>
</g>
</svg>
