<?xml version="1.0" standalone="no"?>
<!DOCTYPE svg PUBLIC "-//W3C//DTD SVG 20010904//EN"
 "http://www.w3.org/TR/2001/REC-SVG-20010904/DTD/svg10.dtd">
<svg version="1.0" xmlns="http://www.w3.org/2000/svg"
 width="512.000000pt" height="512.000000pt" viewBox="0 0 512.000000 512.000000"
 preserveAspectRatio="xMidYMid meet">

<g transform="translate(0.000000,512.000000) scale(0.100000,-0.100000)"
fill="#234DD4" stroke="none">
<path d="M2435 4390 c-3 -5 -13 -10 -22 -10 -8 0 -45 -15 -82 -32 -161 -79
-271 -258 -271 -438 0 -129 49 -245 147 -345 92 -96 208 -145 339 -145 184 0
324 75 418 225 62 98 76 148 76 265 0 124 -28 210 -99 300 -44 55 -62 72 -126
114 -84 56 -157 76 -273 76 -56 0 -104 -4 -107 -10z"/>
<path d="M815 3739 c-133 -33 -251 -128 -324 -259 -48 -87 -60 -283 -24 -380
3 -8 7 -19 7 -25 3 -25 52 -102 94 -148 81 -87 169 -132 304 -158 58 -11 78
-10 143 4 122 26 185 60 263 141 63 65 96 118 132 213 15 41 16 241 1 256 -6
6 -11 18 -11 27 0 31 -53 121 -103 176 -58 64 -116 106 -172 125 -22 7 -45 17
-52 22 -17 13 -213 18 -258 6z"/>
<path d="M4100 3743 c-179 -31 -328 -166 -388 -354 -15 -46 -15 -230 -1 -266
42 -102 67 -143 122 -200 89 -93 147 -124 295 -153 120 -24 283 27 386 122
116 106 159 205 160 368 0 110 -20 179 -75 266 -108 166 -302 251 -499 217z"/>
<path d="M2225 3218 c-91 -32 -153 -74 -198 -135 -61 -84 -71 -127 -77 -327
l-5 -179 -64 -23 c-36 -13 -88 -35 -116 -49 -29 -14 -58 -25 -66 -25 -8 0 -38
25 -67 54 -83 85 -124 101 -262 101 -63 0 -142 -6 -175 -13 -33 -8 -80 -18
-105 -24 -110 -24 -137 -30 -170 -38 -19 -4 -60 -14 -90 -20 -30 -7 -73 -22
-94 -32 -84 -43 -186 -175 -186 -241 0 -13 -5 -28 -11 -34 -12 -12 -7 -88 11
-168 6 -27 15 -70 20 -95 5 -25 14 -67 20 -95 6 -27 14 -66 17 -85 3 -19 10
-41 15 -47 6 -7 8 -20 4 -28 -3 -9 1 -32 9 -52 8 -19 12 -39 9 -44 -5 -9 12
-83 27 -111 5 -10 9 -26 9 -35 1 -26 61 -104 112 -145 68 -56 153 -81 251 -75
45 3 107 10 137 16 67 13 81 9 103 -28 46 -79 220 -228 335 -286 31 -17 59
-33 62 -36 8 -11 127 -64 208 -93 91 -32 190 -56 407 -96 120 -23 545 -4 680
29 22 6 62 15 88 20 163 35 358 121 522 230 70 46 211 177 257 240 l25 33 69
-13 c156 -28 252 -22 338 23 68 35 153 130 170 188 30 105 35 133 30 141 -3 6
-1 15 4 22 9 11 14 34 28 125 3 20 9 46 14 57 5 11 11 38 15 60 14 98 17 111
25 130 20 47 36 203 21 218 -6 6 -11 21 -11 34 0 33 -36 104 -76 151 -67 79
-138 113 -309 148 -44 9 -98 20 -120 25 -22 5 -60 13 -85 18 -25 5 -72 14
-105 21 -32 6 -100 10 -150 8 -110 -4 -160 -25 -240 -105 -63 -62 -50 -61
-173 -6 -29 12 -57 23 -62 23 -6 0 -18 4 -28 9 -9 5 -25 12 -34 15 -16 5 -18
22 -18 167 0 186 -11 236 -70 327 -47 74 -110 118 -211 151 -46 14 -621 13
-664 -1z m-275 -916 c0 -122 41 -216 128 -293 103 -91 144 -99 487 -99 262 0
276 1 344 24 118 40 241 166 241 248 0 15 5 30 10 33 6 3 10 40 10 81 0 53 4
76 14 80 7 3 49 -12 92 -33 l79 -38 -2 -45 c-2 -71 -8 -114 -16 -127 -4 -6
-10 -29 -12 -50 -4 -36 -10 -65 -35 -180 -25 -112 -30 -162 -24 -230 3 -40 10
-75 15 -79 5 -3 9 -12 9 -20 0 -9 14 -36 31 -62 67 -101 154 -152 302 -177 21
-3 37 -12 37 -19 0 -21 -141 -142 -214 -183 -36 -21 -195 -99 -251 -123 -66
-29 -145 -50 -310 -80 -159 -30 -495 -30 -650 -1 -233 45 -254 52 -445 145
-63 31 -142 76 -175 101 -91 68 -155 127 -155 141 0 7 17 16 38 20 60 10 126
30 169 52 44 23 131 112 152 158 7 16 17 36 21 45 5 8 11 44 15 80 6 61 -1
121 -25 234 -17 79 -30 147 -35 183 -2 18 -7 38 -11 44 -4 6 -9 23 -10 37 -1
14 -6 49 -10 78 l-6 52 68 32 c38 17 76 35 84 39 35 20 40 12 40 -68z"/>
</g>
</svg>
