<?xml version="1.0" encoding="utf-8"?>
<!-- Generator: Adobe Illustrator 22.1.0, SVG Export Plug-In . SVG Version: 6.00 Build 0)  -->
<svg version="1.1" id="Layer_1" xmlns="http://www.w3.org/2000/svg" xmlns:xlink="http://www.w3.org/1999/xlink" x="0px" y="0px"
	 viewBox="0 0 150 150" enable-background="new 0 0 150 150" xml:space="preserve">
<g>
	<path fill="#234DD4" stroke="#FFFFFF" stroke-width="1.8968" stroke-miterlimit="10" d="M128.263,85.3V27.2645
		c0-1.9526-1.5825-3.5352-3.5351-3.5352h-17.9115v-3.7708c0-1.9526-1.5825-3.5352-3.5352-3.5352s-3.5352,1.5825-3.5352,3.5352
		v3.7708H85.6055v-3.7708c0-1.9526-1.5825-3.5352-3.5352-3.5352s-3.5352,1.5825-3.5352,3.5352v3.7708H64.3945v-3.7708
		c0-1.9526-1.5825-3.5352-3.5352-3.5352s-3.5352,1.5825-3.5352,3.5352v3.7708H43.1836v-3.7708c0-1.9526-1.5825-3.5352-3.5352-3.5352
		s-3.5352,1.5825-3.5352,3.5352v3.7708H18.2018c-1.9526,0-3.5352,1.5825-3.5352,3.5352v92.1497
		c0,1.9526,1.5825,3.5352,3.5352,3.5352h58.8732c5.7152,8.5203,15.4341,14.1406,26.4419,14.1406
		c17.5432,0,31.8164-14.2732,31.8164-31.8164C135.3333,97.7154,132.682,90.7648,128.263,85.3z M36.1133,30.7997v3.5352
		c0,1.9526,1.5825,3.5352,3.5352,3.5352s3.5352-1.5825,3.5352-3.5352v-3.5352h14.1406v3.5352c0,1.9526,1.5825,3.5352,3.5352,3.5352
		s3.5352-1.5825,3.5352-3.5352v-3.5352h14.1406v3.5352c0,1.9526,1.5825,3.5352,3.5352,3.5352s3.5352-1.5825,3.5352-3.5352v-3.5352
		h14.1406v3.5352c0,1.9526,1.5825,3.5352,3.5352,3.5352s3.5352-1.5825,3.5352-3.5352v-3.5352h14.3763v14.1406H21.737V30.7997
		H36.1133z M21.737,115.8791V52.0106h99.4557v26.8212c-5.0588-3.3925-11.1404-5.3745-17.6758-5.3745
		c-11.1707,0-21.0139,5.7879-26.6923,14.5208c-0.4778-0.2412-1.0164-0.3802-1.589-0.3802h-7.0703
		c-1.9526,0-3.5352,1.5825-3.5352,3.5352s1.5825,3.5352,3.5352,3.5352h5.3552c-0.7982,2.2518-1.3505,4.6196-1.6221,7.0703h-3.7331
		c-1.9526,0-3.5352,1.5825-3.5352,3.5352s1.5825,3.5352,3.5352,3.5352h3.7331c0.2716,2.4507,0.823,4.8185,1.6221,7.0703H21.737z
		 M103.5169,130.0197c-13.6453,0-24.7461-11.1008-24.7461-24.7461s11.1008-24.7461,24.7461-24.7461s24.7461,11.1008,24.7461,24.7461
		S117.1623,130.0197,103.5169,130.0197z"/>
	<path fill="#234DD4" stroke="#FFFFFF" stroke-width="1.8968" stroke-miterlimit="10" d="M117.6576,101.7385h-10.6055V91.133
		c0-1.9526-1.5825-3.5352-3.5352-3.5352s-3.5352,1.5825-3.5352,3.5352v14.1406c0,1.9526,1.5825,3.5352,3.5352,3.5352h14.1406
		c1.9526,0,3.5352-1.5825,3.5352-3.5352S119.6102,101.7385,117.6576,101.7385z"/>
	<path fill="#234DD4" stroke="#FFFFFF" stroke-width="1.8968" stroke-miterlimit="10" d="M46.7188,59.3166h-7.0703
		c-1.9526,0-3.5352,1.5825-3.5352,3.5352s1.5825,3.5352,3.5352,3.5352h7.0703c1.9526,0,3.5352-1.5825,3.5352-3.5352
		S48.6714,59.3166,46.7188,59.3166z"/>
	<path fill="#234DD4" stroke="#FFFFFF" stroke-width="1.8968" stroke-miterlimit="10" d="M46.7188,73.4572h-7.0703
		c-1.9526,0-3.5352,1.5825-3.5352,3.5352s1.5825,3.5352,3.5352,3.5352h7.0703c1.9526,0,3.5352-1.5825,3.5352-3.5352
		S48.6714,73.4572,46.7188,73.4572z"/>
	<path fill="#234DD4" stroke="#FFFFFF" stroke-width="1.8968" stroke-miterlimit="10" d="M46.7188,87.5978h-7.0703
		c-1.9526,0-3.5352,1.5825-3.5352,3.5352s1.5825,3.5352,3.5352,3.5352h7.0703c1.9526,0,3.5352-1.5825,3.5352-3.5352
		S48.6714,87.5978,46.7188,87.5978z"/>
	<path fill="#234DD4" stroke="#FFFFFF" stroke-width="1.8968" stroke-miterlimit="10" d="M68.1654,66.3869h7.0703
		c1.9526,0,3.5352-1.5825,3.5352-3.5352s-1.5825-3.5352-3.5352-3.5352h-7.0703c-1.9526,0-3.5352,1.5825-3.5352,3.5352
		S66.2127,66.3869,68.1654,66.3869z"/>
	<path fill="#234DD4" stroke="#FFFFFF" stroke-width="1.8968" stroke-miterlimit="10" d="M68.1654,80.5275h7.0703
		c1.9526,0,3.5352-1.5825,3.5352-3.5352s-1.5825-3.5352-3.5352-3.5352h-7.0703c-1.9526,0-3.5352,1.5825-3.5352,3.5352
		S66.2127,80.5275,68.1654,80.5275z"/>
	<path fill="#234DD4" stroke="#FFFFFF" stroke-width="1.8968" stroke-miterlimit="10" d="M46.7188,101.7385h-7.0703
		c-1.9526,0-3.5352,1.5825-3.5352,3.5352s1.5825,3.5352,3.5352,3.5352h7.0703c1.9526,0,3.5352-1.5825,3.5352-3.5352
		S48.6714,101.7385,46.7188,101.7385z"/>
	<path fill="#234DD4" stroke="#FFFFFF" stroke-width="1.8968" stroke-miterlimit="10" d="M96.4466,66.3869h7.0703
		c1.9526,0,3.5352-1.5825,3.5352-3.5352s-1.5825-3.5352-3.5352-3.5352h-7.0703c-1.9526,0-3.5352,1.5825-3.5352,3.5352
		S94.494,66.3869,96.4466,66.3869z"/>
</g>
</svg>
