<?xml version="1.0" encoding="utf-8"?>
<!-- Generator: Adobe Illustrator 22.1.0, SVG Export Plug-In . SVG Version: 6.00 Build 0)  -->
<svg version="1.1" id="settings-icon" xmlns="http://www.w3.org/2000/svg" xmlns:xlink="http://www.w3.org/1999/xlink" x="0px"
	 y="0px" viewBox="0 0 124 124" style="enable-background:new 0 0 124 124;" xml:space="preserve">
<style type="text/css">
	.st0{fill:#234DD4;stroke:#FFFFFF;stroke-miterlimit:10;}
</style>
<g>
	<path class="st0" d="M97.3,89.2c-1.1,0-2,0.9-2,2v28.4H69.9c-1.1,0-2,0.9-2,2s0.9,2,2,2h27.5c1.1,0,2-0.9,2-2V91.1
		C99.3,90,98.4,89.2,97.3,89.2L97.3,89.2z"/>
	<path class="st0" d="M106.4,82.5l-7.2-17.4c-0.3-0.7-1-1.2-1.8-1.2H26.7c-0.8,0-1.5,0.5-1.8,1.2l-7.2,17.4
		c-0.3,0.6-0.2,1.3,0.2,1.8c0.4,0.5,1,0.9,1.6,0.9h5.3v36.3c0,1.1,0.9,2,2,2H62c1.1,0,2-0.9,2-2V75.7l3.5,8.3c0.3,0.7,1,1.2,1.8,1.2
		h35.3c0.7,0,1.3-0.3,1.6-0.9C106.6,83.8,106.6,83.1,106.4,82.5L106.4,82.5z M28,67.9h31.1l-5.6,13.4H22.4L28,67.9z M28.6,119.6
		V85.2h26.2c0.8,0,1.5-0.5,1.8-1.2l3.5-8.3v43.8H28.6L28.6,119.6z M70.5,81.3l-5.6-13.4H96l5.6,13.4H70.5z"/>
	<path class="st0" d="M48.9,46.3l1.1,4.4c0.2,0.9,1,1.5,1.9,1.5h20.1c0.9,0,1.7-0.6,1.9-1.5l1.1-4.4c7.2-4.5,11.7-12.5,11.7-21.1
		C86.8,11.6,75.7,0.5,62,0.5S37.2,11.6,37.2,25.3C37.2,33.8,41.7,41.8,48.9,46.3z M62,4.4c11.5,0,20.8,9.4,20.8,20.8
		c0,7.4-4,14.4-10.5,18.1c-0.5,0.3-0.8,0.7-0.9,1.2l-0.9,3.7H53.5l-0.9-3.7c-0.1-0.5-0.5-1-0.9-1.2c-6.5-3.7-10.5-10.6-10.5-18.1
		C41.2,13.8,50.5,4.4,62,4.4z"/>
	<path class="st0" d="M72.1,56.1H51.9c-1.1,0-2,0.9-2,2c0,1.1,0.9,2,2,2h20.1c1.1,0,2-0.9,2-2C74,57,73.2,56.1,72.1,56.1z"/>
	<path class="st0" d="M56.2,42.8c0.2,0.9,1,1.5,1.9,1.5c0.2,0,0.3,0,0.5-0.1c1.1-0.3,1.7-1.3,1.4-2.4l-1.7-7h7.5l-1.7,7
		c-0.3,1.1,0.4,2.1,1.4,2.4c0.2,0,0.3,0.1,0.5,0.1c0.9,0,1.7-0.6,1.9-1.5l2.3-9.4c0,0,0,0,0,0c0,0,0-0.1,0-0.1c0,0,0-0.1,0-0.1
		c0,0,0-0.1,0-0.1c0,0,0-0.1,0-0.1c0,0,0,0,0,0c0,0,0,0,0,0c0,0,0-0.1,0-0.1c0,0,0-0.1,0-0.1c0,0,0-0.1,0-0.1c0,0,0-0.1,0-0.1
		s0-0.1,0-0.1c0,0,0-0.1,0-0.1c0,0,0-0.1,0-0.1c0,0,0-0.1,0-0.1c0,0,0,0,0-0.1c0,0,0-0.1-0.1-0.1c0,0,0,0,0-0.1c0,0,0-0.1-0.1-0.1
		c0,0,0,0-0.1-0.1c0,0,0,0-0.1-0.1c0,0,0,0-0.1-0.1c0,0,0,0-0.1-0.1c0,0-0.1,0-0.1-0.1c0,0,0,0-0.1-0.1c0,0-0.1,0-0.1-0.1
		c0,0,0,0-0.1,0c0,0-0.1,0-0.1-0.1c0,0-0.1,0-0.1,0c0,0-0.1,0-0.1,0c0,0-0.1,0-0.1,0c0,0,0,0-0.1,0c0,0-0.1,0-0.1,0c0,0,0,0,0,0
		c0,0,0,0,0,0c0,0-0.1,0-0.1,0c0,0-0.1,0-0.1,0c0,0-0.1,0-0.1,0c0,0-0.1,0-0.1,0c0,0,0,0,0,0H55.7c-0.6,0-1.2,0.3-1.5,0.8
		c-0.4,0.5-0.5,1.1-0.4,1.7L56.2,42.8L56.2,42.8z"/>
</g>
</svg>
