<?xml version="1.0" standalone="no"?>
<!DOCTYPE svg PUBLIC "-//W3C//DTD SVG 20010904//EN"
 "http://www.w3.org/TR/2001/REC-SVG-20010904/DTD/svg10.dtd">
<svg version="1.0" xmlns="http://www.w3.org/2000/svg"
 width="512.000000pt" height="512.000000pt" viewBox="0 0 512.000000 512.000000"
 preserveAspectRatio="xMidYMid meet">

<g transform="translate(0.000000,512.000000) scale(0.100000,-0.100000)"
fill="#43C370" stroke="none">
<path d="M1404 5030 c-146 -26 -266 -92 -384 -210 -96 -96 -149 -179 -187
-295 -37 -112 -39 -284 -4 -395 45 -146 142 -293 244 -370 46 -35 46 -35 47
-97 l0 -62 -97 -3 -98 -3 -12 -65 c-27 -149 -36 -319 -24 -470 l12 -145 -266
-475 c-147 -261 -267 -479 -268 -484 -1 -4 120 -36 268 -70 149 -34 282 -66
297 -69 l28 -7 0 -505 0 -505 400 0 400 0 0 -360 0 -360 960 0 960 0 0 558 0
559 80 62 c44 34 119 101 168 149 360 358 576 821 623 1332 16 177 7 614 -16
753 l-18 107 -79 0 c-60 0 -79 3 -75 13 3 6 84 202 181 434 l176 421 0 286 0
286 -232 -174 -233 -175 -234 -546 -233 -545 -190 2 -190 3 -73 156 -72 156
86 5 c138 8 229 64 292 180 l34 63 3 198 4 197 79 0 79 0 0 240 0 240 -240 0
-240 0 0 -240 0 -240 80 0 80 0 0 -182 c0 -201 -7 -231 -63 -272 -25 -19 -43
-21 -150 -21 l-121 0 -97 210 c-54 116 -98 215 -98 220 -1 6 51 36 115 68 64
32 113 61 110 64 -3 4 -182 82 -396 174 l-390 167 -25 -82 c-13 -44 -54 -187
-91 -316 -36 -129 -68 -236 -69 -238 -2 -2 -8 30 -15 70 -46 271 -245 501
-505 584 -90 28 -236 39 -321 24z m232 -161 c160 -29 313 -145 384 -294 127
-265 49 -561 -190 -720 l-70 -47 0 -104 0 -104 -80 0 -80 0 1 248 0 247 41 30
c152 111 155 268 7 386 -99 80 -226 56 -320 -62 -82 -102 -54 -234 69 -324
l41 -30 0 -247 1 -248 -80 0 -80 0 0 104 0 104 -70 47 c-240 159 -317 455
-190 722 53 110 133 189 243 243 120 57 240 73 373 49z m2044 -69 l0 -80 -80
0 -80 0 0 80 0 80 80 0 80 0 0 -80z m-981 -100 l151 -64 -35 -18 c-19 -10 -35
-21 -35 -24 0 -3 52 -118 115 -255 63 -137 115 -252 115 -254 0 -3 -67 -5
-149 -5 l-148 0 -98 215 -98 214 -29 -15 c-17 -9 -32 -13 -35 -11 -2 3 5 38
17 79 12 40 30 104 41 141 11 38 24 67 28 65 4 -2 76 -32 160 -68z m1859 -64
l-3 -24 -43 22 -43 22 43 31 43 31 3 -29 c2 -16 2 -40 0 -53z m-195 -616
l-176 -420 -113 0 -114 0 13 33 c57 135 371 866 379 879 8 16 17 14 97 -27
l89 -44 -175 -421z m-2783 360 c13 -13 20 -33 20 -60 0 -53 -27 -80 -80 -80
-53 0 -80 27 -80 80 0 27 7 47 20 60 13 13 33 20 60 20 27 0 47 -7 60 -20z
m912 -195 l47 -105 -27 -5 c-50 -10 -151 -67 -182 -101 -16 -19 -42 -58 -57
-87 -23 -45 -27 -67 -31 -169 l-4 -118 -159 0 -159 0 0 63 1 62 46 35 c99 74
195 217 239 354 l22 70 103 52 c57 29 106 53 109 53 3 0 26 -47 52 -104z m190
-419 c37 -82 68 -153 68 -158 0 -4 -79 -8 -176 -8 l-176 0 4 114 c2 97 6 119
24 143 31 42 81 64 138 61 l49 -3 69 -149z m473 11 c35 -76 67 -147 70 -158 6
-19 2 -19 -145 -17 l-152 3 -69 150 c-37 83 -68 153 -69 158 0 4 68 6 150 5
l150 -3 65 -138z m1232 -349 c13 -21 16 -605 4 -718 -41 -375 -176 -711 -405
-1005 -79 -101 -246 -263 -358 -348 l-108 -81 0 -518 0 -518 -800 0 -800 0 0
360 0 360 -400 0 -400 0 0 488 0 488 -232 53 c-128 29 -243 55 -256 58 -16 4
-22 11 -19 22 2 9 105 197 229 418 l226 401 -15 109 c-15 107 -13 385 2 426 7
16 101 17 1665 17 1316 0 1660 -3 1667 -12z"/>
<path d="M1285 3153 c18 -128 110 -249 234 -311 69 -34 82 -37 160 -37 76 0
94 4 153 32 37 17 90 53 118 79 58 54 116 163 126 237 l6 47 -81 0 c-79 0 -81
-1 -81 -24 0 -43 -30 -111 -67 -148 -88 -90 -253 -91 -345 -1 -37 36 -68 105
-68 150 0 22 -3 23 -81 23 l-81 0 7 -47z"/>
</g>
</svg>
