<?xml version="1.0" encoding="utf-8"?>
<!-- Generator: Adobe Illustrator 22.1.0, SVG Export Plug-In . SVG Version: 6.00 Build 0)  -->
<svg version="1.1" id="Layer_1" xmlns="http://www.w3.org/2000/svg" xmlns:xlink="http://www.w3.org/1999/xlink" x="0px" y="0px"
	 viewBox="0 0 150 150" enable-background="new 0 0 150 150" xml:space="preserve">
<g>
	<g>
		<path fill="#FFFFFF" stroke="#234DD4" stroke-width="1.6613" stroke-miterlimit="10" d="M129.2319,97.5347h-3.3508V71.3892
			c0-0.4395-0.1444-0.8665-0.4109-1.216l-9.6386-12.6379c0.9374-1.232,1.4951-2.7675,1.4951-4.4312
			c0-4.0436-3.2899-7.3335-7.3335-7.3335c-4.0436,0-7.3335,3.2899-7.3335,7.3335c0,4.0438,3.2899,7.3335,7.3335,7.3335
			c0.9277,0,1.8151-0.1751,2.6332-0.4909l9.2438,12.1203v25.468h-9.5849v-5.8135c0-1.1074-0.8978-2.0052-2.0052-2.0052
			s-2.0052,0.8978-2.0052,2.0052v5.8135h-8.6991V81.8355c0-1.1074-0.8978-2.0052-2.0052-2.0052
			c-1.1074,0-2.0052,0.8978-2.0052,2.0052v15.6995H83.4258l-3.4629-20.4585l0.9737-1.4654c0.862,0.6123,1.7162,1.0467,2.9698,0.7331
			c0.9106-0.2278,1.6734-0.8403,2.0926-1.6804l4.8919-9.8041l11.1709,4.3262c0.3045,0.1315,6.2132,2.7838,6.2132,9.7237v3.4538
			c0,1.1074,0.8978,2.0052,2.0052,2.0052c1.1074,0,2.0052-0.8978,2.0052-2.0052v-3.4538c0-9.7448-8.355-13.2916-8.7106-13.4378
			c-0.0126-0.0053-0.0254-0.0104-0.0382-0.0152L84.627,58.1331v-4.0246c2.9637-2.3659,5.0416-5.7964,5.6413-9.7095
			c1.4769-0.1676,2.8471-0.7497,3.9802-1.7242c1.5911-1.3684,2.5038-3.3591,2.5038-5.4619c0-1.6937-0.5925-3.3145-1.6539-4.5957
			v-5.7905c0-11.1773-9.0938-20.2708-20.2708-20.2708s-20.2708,9.0935-20.2708,20.2708v5.9413
			c-1.0727,1.266-1.6531,2.8094-1.6531,4.4438c0,2.1031,0.9125,4.0944,2.5038,5.4627c1.136,0.9769,2.5105,1.5598,3.9925,1.7253
			c0.6069,3.8158,2.6739,7.4813,5.9515,9.956v3.777l-18.8891,7.323c-0.0126,0.0048-0.0251,0.0099-0.0377,0.015
			c-0.3559,0.1462-8.7106,3.6933-8.7106,13.4378v18.6255h-9.5849v-25.468l9.2437-12.1203c0.8179,0.3158,1.7052,0.4909,2.6332,0.4909
			c4.0438,0,7.3335-3.2899,7.3335-7.3335s-3.2899-7.3335-7.3335-7.3335s-7.3335,3.2899-7.3335,7.3335
			c0,1.6638,0.558,3.1995,1.4951,4.4312l-9.6386,12.6379c-0.2666,0.3494-0.4109,0.7767-0.4109,1.216v26.1455h-3.3503
			c-2.4456,0-4.4347,1.9892-4.4347,4.4347v10.3963c0,2.4437,1.9862,4.4312,4.4291,4.4345v22.4688
			c0,2.3028,1.8731,4.1759,4.1759,4.1759H70.321c1.1074,0,2.0052-0.8978,2.0052-2.0052s-0.8978-2.0052-2.0052-2.0052h-45.383
			c-0.0912,0-0.1652-0.0741-0.1652-0.1652v-22.4685h100.4543v22.4685c0,0.0912-0.0741,0.1652-0.1652,0.1652H79.679
			c-1.1074,0-2.0052,0.8978-2.0052,2.0052s0.8978,2.0052,2.0052,2.0052h45.3827c2.3028,0,4.1759-1.8731,4.1759-4.1759v-22.4688
			c2.4429-0.0032,4.4291-1.991,4.4291-4.4345v-10.3958C133.6667,99.5238,131.6775,97.5347,129.2319,97.5347z M109.9937,56.4263
			c-1.832,0-3.3228-1.4905-3.3228-3.3228s1.4905-3.3228,3.3228-3.3228c1.8322,0,3.3228,1.4905,3.3228,3.3228
			C113.3165,54.9577,111.7869,56.4263,109.9937,56.4263z M40.0063,49.781c1.8322,0,3.3228,1.4905,3.3228,3.3228
			s-1.4905,3.3228-3.3228,3.3228c-1.7932,0-3.3228-1.4686-3.3228-3.3228C36.6835,51.2716,38.1743,49.781,40.0063,49.781z
			 M87.1346,63.4047l-4.3061,8.6302c-0.0136-0.0096-1.301-0.9243-4.9355-3.5056c3.4516-4.2607,3.6195-4.4679,5.367-6.6249
			L87.1346,63.4047z M74.9948,71.3905l2.6707,1.8964l-0.8874,1.3355h-3.5666l-0.8871-1.3352L74.9948,71.3905z M69.3626,58.7828
			v-2.2627c1.8368,0.6585,3.8209,0.9561,5.6598,0.9561c1.9536,0,3.9139-0.3936,5.594-1.0502v2.3696l-5.6215,6.9394L69.3626,58.7828z
			 M73.8307,78.633h2.3282l3.1992,18.9011h-8.7267L73.8307,78.633z M92.7414,37.2118c0,0.9331-0.4037,1.8154-1.1079,2.4212
			c-0.347,0.2984-0.7484,0.5171-1.1868,0.651v-6.141C91.8262,34.5666,92.7414,35.8031,92.7414,37.2118z M59.2098,40.2843
			c-0.4385-0.1339-0.84-0.3524-1.1866-0.6505c-0.7048-0.6056-1.1085-1.4881-1.1085-2.422c0-1.0371,0.5818-1.7675,0.9908-2.1536
			c0.0067-0.0059,0.0136-0.011,0.0203-0.0171c0.3714-0.3444,0.8144-0.6069,1.2839-0.7828V40.2843z M60.2514,28.7568
			c-0.3904,0.3617-0.7034,0.863-0.8633,1.3269c-0.2757,0.0414-0.5492,0.0981-0.8195,0.169v-3.426h-0.0008
			c0-8.966,7.2941-16.2601,16.2601-16.2601s16.2601,7.2944,16.2601,16.2601v3.3327c-0.2118-0.0479-0.4267-0.0853-0.6438-0.115
			c-0.0206-0.7112-0.1901-1.1411-0.8566-1.9509c-0.6189-0.7507-1.7344-1.8996-4.2954-4.6521
			c-1.067-1.147-2.8167-1.3823-4.1561-0.5069c-5.4729,3.5752-12.1898,5.413-18.4346,4.9657
			C61.8061,27.8323,60.9123,28.1443,60.2514,28.7568z M63.2205,42.0524V32.0507v-0.1035c3.773,0.1658,7.6356-0.3829,11.3046-1.5234
			c2.8886-0.8978,5.687-2.1715,8.2631-3.7858c0.7336,0.7871,1.3389,1.4323,1.8384,1.9648c0.0337,0.0358,0.0652,0.0695,0.0981,0.1048
			c0.1791,0.1909,0.3505,0.3738,0.5101,0.5443c0.5476,0.585,0.9703,1.0416,1.2007,1.3103v11.4901
			c0,6.3014-5.1403,11.4134-11.4137,11.4134C68.0955,53.4658,63.2205,48.1362,63.2205,42.0524z M66.7216,61.9072l5.3686,6.6268
			c-2.322,1.6491-4.6786,3.3233-4.9291,3.5014l-4.3061-8.6304L66.7216,61.9072z M41.7246,78.909L41.7246,78.909
			c0.0003-6.93,5.8416-9.5632,6.2143-9.7239l11.1589-4.3262l4.8919,9.8044v0.0003c0.55,1.1013,1.6683,1.7761,2.8728,1.7761
			c1.1039,0,1.755-0.5206,2.1897-0.8294l0.9737,1.4654L66.563,97.5341H54.4347V81.8347c0-1.1074-0.8978-2.0052-2.0052-2.0052
			s-2.0052,0.8978-2.0052,2.0052v15.6995h-8.6994V78.909H41.7246z M129.656,112.3655c0,0.2339-0.1901,0.424-0.424,0.424
			c-2.8688,0-106.0389,0-108.4642,0c-0.2339,0-0.424-0.1904-0.424-0.424v-10.3963c0-0.2339,0.1901-0.424,0.424-0.424
			c3.5495,0,105.7847,0,108.4642,0c0.2339,0,0.424,0.1901,0.424,0.424V112.3655z"/>
	</g>
</g>
</svg>
