<?xml version="1.0" encoding="utf-8"?>
<!-- Generator: Adobe Illustrator 22.1.0, SVG Export Plug-In . SVG Version: 6.00 Build 0)  -->
<svg version="1.1" id="Layer_1" xmlns="http://www.w3.org/2000/svg" xmlns:xlink="http://www.w3.org/1999/xlink" x="0px" y="0px"
	 viewBox="0 0 150 150" style="enable-background:new 0 0 150 150;" xml:space="preserve">
<style type="text/css">
	.st0{fill:#234DD4;stroke:#FFFFFF;stroke-miterlimit:10;}
</style>
<g>
	<g>
		<path class="st0" d="M126.5,96.6h-3.4V70.4c0-0.4-0.1-0.9-0.4-1.2l-9.6-12.6c0.9-1.2,1.5-2.8,1.5-4.4c0-4-3.3-7.3-7.3-7.3
			c-4,0-7.3,3.3-7.3,7.3c0,4,3.3,7.3,7.3,7.3c0.9,0,1.8-0.2,2.6-0.5l9.2,12.1v25.5h-9.6v-5.8c0-1.1-0.9-2-2-2c-1.1,0-2,0.9-2,2v5.8
			h-8.7V80.9c0-1.1-0.9-2-2-2c-1.1,0-2,0.9-2,2v15.7H80.7l-3.5-20.5l1-1.5c0.9,0.6,1.7,1,3,0.7c0.9-0.2,1.7-0.8,2.1-1.7l4.9-9.8
			l11.2,4.3c0.3,0.1,6.2,2.8,6.2,9.7v3.5c0,1.1,0.9,2,2,2c1.1,0,2-0.9,2-2v-3.5c0-9.7-8.4-13.3-8.7-13.4c0,0,0,0,0,0l-18.9-7.3v-4
			c3-2.4,5-5.8,5.6-9.7c1.5-0.2,2.8-0.7,4-1.7c1.6-1.4,2.5-3.4,2.5-5.5c0-1.7-0.6-3.3-1.7-4.6v-5.8c0-11.2-9.1-20.3-20.3-20.3
			s-20.3,9.1-20.3,20.3v5.9c-1.1,1.3-1.7,2.8-1.7,4.4c0,2.1,0.9,4.1,2.5,5.5c1.1,1,2.5,1.6,4,1.7c0.6,3.8,2.7,7.5,6,10v3.8
			l-18.9,7.3c0,0,0,0,0,0c-0.4,0.1-8.7,3.7-8.7,13.4v18.6h-9.6V71.1L34.6,59c0.8,0.3,1.7,0.5,2.6,0.5c4,0,7.3-3.3,7.3-7.3
			s-3.3-7.3-7.3-7.3s-7.3,3.3-7.3,7.3c0,1.7,0.6,3.2,1.5,4.4l-9.6,12.6c-0.3,0.3-0.4,0.8-0.4,1.2v26.1H18c-2.4,0-4.4,2-4.4,4.4v10.4
			c0,2.4,2,4.4,4.4,4.4v22.5c0,2.3,1.9,4.2,4.2,4.2h45.4c1.1,0,2-0.9,2-2s-0.9-2-2-2H22.2c-0.1,0-0.2-0.1-0.2-0.2v-22.5h100.5v22.5
			c0,0.1-0.1,0.2-0.2,0.2H76.9c-1.1,0-2,0.9-2,2s0.9,2,2,2h45.4c2.3,0,4.2-1.9,4.2-4.2v-22.5c2.4,0,4.4-2,4.4-4.4V101
			C130.9,98.6,128.9,96.6,126.5,96.6z M107.3,55.5c-1.8,0-3.3-1.5-3.3-3.3s1.5-3.3,3.3-3.3s3.3,1.5,3.3,3.3
			C110.6,54,109,55.5,107.3,55.5z M37.3,48.8c1.8,0,3.3,1.5,3.3,3.3s-1.5,3.3-3.3,3.3c-1.8,0-3.3-1.5-3.3-3.3
			C33.9,50.3,35.4,48.8,37.3,48.8z M84.4,62.4l-4.3,8.6c0,0-1.3-0.9-4.9-3.5c3.5-4.3,3.6-4.5,5.4-6.6L84.4,62.4z M72.3,70.4l2.7,1.9
			L74,73.7h-3.6l-0.9-1.3L72.3,70.4z M66.6,57.8v-2.3c1.8,0.7,3.8,1,5.7,1c2,0,3.9-0.4,5.6-1.1v2.4l-5.6,6.9L66.6,57.8z M71.1,77.7
			h2.3l3.2,18.9h-8.7L71.1,77.7z M90,36.2c0,0.9-0.4,1.8-1.1,2.4c-0.3,0.3-0.7,0.5-1.2,0.7v-6.1C89.1,33.6,90,34.8,90,36.2z
			 M56.5,39.3c-0.4-0.1-0.8-0.4-1.2-0.7c-0.7-0.6-1.1-1.5-1.1-2.4c0-1,0.6-1.8,1-2.2c0,0,0,0,0,0c0.4-0.3,0.8-0.6,1.3-0.8L56.5,39.3
			L56.5,39.3z M57.5,27.8c-0.4,0.4-0.7,0.9-0.9,1.3c-0.3,0-0.5,0.1-0.8,0.2v-3.4h0c0-9,7.3-16.3,16.3-16.3s16.3,7.3,16.3,16.3v3.3
			c-0.2,0-0.4-0.1-0.6-0.1c0-0.7-0.2-1.1-0.9-2c-0.6-0.8-1.7-1.9-4.3-4.7c-1.1-1.1-2.8-1.4-4.2-0.5c-5.5,3.6-12.2,5.4-18.4,5
			C59.1,26.9,58.2,27.2,57.5,27.8z M60.5,41.1v-10V31c3.8,0.2,7.6-0.4,11.3-1.5c2.9-0.9,5.7-2.2,8.3-3.8c0.7,0.8,1.3,1.4,1.8,2
			c0,0,0.1,0.1,0.1,0.1c0.2,0.2,0.4,0.4,0.5,0.5c0.5,0.6,1,1,1.2,1.3v11.5c0,6.3-5.1,11.4-11.4,11.4C65.4,52.5,60.5,47.2,60.5,41.1z
			 M64,60.9l5.4,6.6c-2.3,1.6-4.7,3.3-4.9,3.5l-4.3-8.6L64,60.9z M39,77.9L39,77.9c0-6.9,5.8-9.6,6.2-9.7l11.2-4.3l4.9,9.8v0
			c0.5,1.1,1.7,1.8,2.9,1.8c1.1,0,1.8-0.5,2.2-0.8l1,1.5l-3.5,20.5H51.7V80.9c0-1.1-0.9-2-2-2s-2,0.9-2,2v15.7H39L39,77.9L39,77.9z
			 M126.9,111.4c0,0.2-0.2,0.4-0.4,0.4c-2.9,0-106,0-108.5,0c-0.2,0-0.4-0.2-0.4-0.4V101c0-0.2,0.2-0.4,0.4-0.4
			c3.5,0,105.8,0,108.5,0c0.2,0,0.4,0.2,0.4,0.4V111.4z"/>
	</g>
</g>
</svg>
