<?xml version="1.0" encoding="utf-8"?>
<!-- Generator: Adobe Illustrator 22.1.0, SVG Export Plug-In . SVG Version: 6.00 Build 0)  -->
<svg version="1.1" id="speedometer-icon" xmlns="http://www.w3.org/2000/svg" xmlns:xlink="http://www.w3.org/1999/xlink" x="0px"
	 y="0px" viewBox="0 0 124 124" style="enable-background:new 0 0 124 124;" xml:space="preserve">
<style type="text/css">
	.st0{fill:#234DD4;stroke:#FFFFFF;stroke-miterlimit:10;}
</style>
<path class="st0" d="M120.9,15.9c-0.4-0.7-1.1-1.1-1.9-1l-9.8,1.5l1.5-9.8c0.1-0.8-0.3-1.6-1-1.9c-0.7-0.4-1.6-0.2-2.1,0.3
	L96.2,16.4c-0.3,0.3-0.5,0.6-0.5,1l-1.8,11.7l-6.5,6.5c-9-8.3-20.6-12.9-32.9-12.9c-12.9,0-25.1,5-34.2,14.2
	C11.1,46,6.1,58.2,6.1,71.1s5,25.1,14.2,34.2c9.1,9.1,21.3,14.2,34.2,14.2s25.1-5,34.2-14.2c9.1-9.1,14.2-21.3,14.2-34.2
	c0-10.3-3.2-20.1-9.2-28.4c-0.6-0.8-1.7-1-2.6-0.4c-0.8,0.6-1,1.7-0.4,2.6c5.6,7.7,8.5,16.7,8.5,26.2c0,24.7-20.1,44.7-44.7,44.7
	S9.7,95.8,9.7,71.1s20.1-44.7,44.7-44.7c11.3,0,22,4.2,30.3,11.8l-8.4,8.4c-6-5.4-13.8-8.4-21.9-8.4c-18.1,0-32.9,14.7-32.9,32.9
	S36.3,104,54.5,104s32.9-14.7,32.9-32.9c0-6-1.7-12-4.8-17.1c-0.5-0.9-1.7-1.1-2.5-0.6c-0.9,0.5-1.1,1.7-0.6,2.5
	c2.8,4.6,4.2,9.8,4.2,15.2c0,16.1-13.1,29.2-29.2,29.2c-16.1,0-29.2-13.1-29.2-29.2s13.1-29.2,29.2-29.2c7.2,0,14,2.6,19.3,7.3
	l-8.4,8.4c-3.1-2.5-6.9-3.9-10.9-3.9c-9.6,0-17.4,7.8-17.4,17.4s7.8,17.4,17.4,17.4c9.6,0,17.4-7.8,17.4-17.4c0-1.7-0.2-3.4-0.7-5
	c-0.3-1-1.3-1.5-2.3-1.2c-1,0.3-1.5,1.3-1.2,2.3c0.4,1.3,0.6,2.6,0.6,4c0,7.5-6.1,13.7-13.7,13.7s-13.7-6.1-13.7-13.7
	c0-7.5,6.1-13.7,13.7-13.7c3,0,5.9,1,8.3,2.8l-9.6,9.6c-0.7,0.7-0.7,1.9,0,2.6c0.4,0.4,0.8,0.5,1.3,0.5c0.5,0,0.9-0.2,1.3-0.5
	l32.9-32.9c0,0,7.8-7.8,7.8-7.8l11.7-1.8c0.4-0.1,0.7-0.2,1-0.5L120.5,18C121.1,17.5,121.2,16.6,120.9,15.9L120.9,15.9z M99.2,18.6
	l7-7l-0.9,6.1l-7,7L99.2,18.6z M107,26.4l-6.1,0.9l7-7l6.1-0.9C114,19.4,107,26.4,107,26.4z"/>
</svg>
