<?xml version="1.0" encoding="utf-8"?>
<!-- Generator: Adobe Illustrator 22.1.0, SVG Export Plug-In . SVG Version: 6.00 Build 0)  -->
<svg version="1.1" id="startup-icon" xmlns="http://www.w3.org/2000/svg" xmlns:xlink="http://www.w3.org/1999/xlink" x="0px"
	 y="0px" viewBox="0 0 124 124" style="enable-background:new 0 0 124 124;" xml:space="preserve">
<style type="text/css">
	.st0{fill:#234DD4;stroke:#FFFFFF;stroke-width:1.5;stroke-miterlimit:10;}
</style>
<g>
	<g>
		<g>
			<path class="st0" d="M36.2,59.6v5.6L62,52.3l25.8,12.9v-5.6L62,5.8L36.2,59.6z M62,47.9L41.2,58.2L62,15l20.8,43.2L62,47.9z"/>
			<rect x="60" y="40.2" class="st0" width="4" height="4"/>
			<rect x="60" y="32.2" class="st0" width="4" height="4"/>
			<rect x="60" y="77.9" class="st0" width="4" height="29.8"/>
			<rect x="60" y="58" class="st0" width="4" height="15.9"/>
			<rect x="60" y="119.5" class="st0" width="4" height="4"/>
			<rect x="60" y="111.6" class="st0" width="4" height="4"/>
			<rect x="67.9" y="62" class="st0" width="4" height="41.7"/>
			<rect x="67.9" y="107.6" class="st0" width="4" height="4"/>
			<rect x="67.9" y="115.5" class="st0" width="4" height="4"/>
			<rect x="52.1" y="81.8" class="st0" width="4" height="21.8"/>
			<rect x="52.1" y="62" class="st0" width="4" height="15.9"/>
			<rect x="52.1" y="107.6" class="st0" width="4" height="4"/>
			<rect x="52.1" y="115.5" class="st0" width="4" height="4"/>
			<rect x="75.9" y="91.7" class="st0" width="4" height="15.9"/>
			<rect x="75.9" y="66" class="st0" width="4" height="21.8"/>
			<rect x="75.9" y="111.6" class="st0" width="4" height="4"/>
			<rect x="44.1" y="66" class="st0" width="4" height="41.7"/>
			<rect x="44.1" y="111.6" class="st0" width="4" height="4"/>
			<rect x="83.8" y="69.9" class="st0" width="4" height="29.8"/>
			<rect x="83.8" y="103.6" class="st0" width="4" height="4"/>
			<rect x="36.2" y="69.9" class="st0" width="4" height="29.8"/>
			<rect x="36.2" y="103.6" class="st0" width="4" height="4"/>
			<path class="st0" d="M84,43.3l3.6,1.6c0.3-0.7,7.9-16.7,35.9-16.7v-4C92.8,24.3,84.3,42.6,84,43.3z"/>
			<path class="st0" d="M36.4,44.9l3.6-1.6c-0.3-0.8-8.8-19-39.5-19v4C28.5,28.3,36.1,44.3,36.4,44.9z"/>
			<path class="st0" d="M101.7,4.5v-4c-21.2,0-25.7,23.2-25.8,23.4l3.9,0.7C79.8,24.5,83.7,4.5,101.7,4.5z"/>
			<path class="st0" d="M44.2,24.7l3.9-0.7c0-0.2-4.5-23.4-25.8-23.4v4C40.2,4.5,44,23.8,44.2,24.7z"/>
			<rect x="10.4" y="8.4" class="st0" width="4" height="4"/>
			<rect x="10.4" y="16.4" class="st0" width="4" height="4"/>
			<rect x="6.5" y="12.4" class="st0" width="4" height="4"/>
			<rect x="14.4" y="12.4" class="st0" width="4" height="4"/>
			<rect x="99.7" y="66" class="st0" width="4" height="4"/>
			<rect x="99.7" y="73.9" class="st0" width="4" height="4"/>
			<rect x="95.7" y="69.9" class="st0" width="4" height="4"/>
			<rect x="103.6" y="69.9" class="st0" width="4" height="4"/>
			<rect x="24.3" y="77.9" class="st0" width="4" height="4"/>
			<rect x="24.3" y="85.8" class="st0" width="4" height="4"/>
			<rect x="20.3" y="81.8" class="st0" width="4" height="4"/>
			<rect x="28.3" y="81.8" class="st0" width="4" height="4"/>
			<rect x="87.8" y="18.4" class="st0" width="4" height="4"/>
			<rect x="87.8" y="26.3" class="st0" width="4" height="4"/>
			<rect x="83.8" y="22.3" class="st0" width="4" height="4"/>
			<rect x="91.7" y="22.3" class="st0" width="4" height="4"/>
			<rect x="24.3" y="48.1" class="st0" width="4" height="4"/>
			<rect x="24.3" y="56" class="st0" width="4" height="4"/>
			<rect x="20.3" y="52.1" class="st0" width="4" height="4"/>
			<rect x="28.3" y="52.1" class="st0" width="4" height="4"/>
			<rect x="115.5" y="34.2" class="st0" width="4" height="4"/>
			<rect x="115.5" y="42.2" class="st0" width="4" height="4"/>
			<rect x="111.6" y="38.2" class="st0" width="4" height="4"/>
			<rect x="119.5" y="38.2" class="st0" width="4" height="4"/>
		</g>
	</g>
</g>
</svg>
