<?xml version="1.0" encoding="utf-8"?>
<!-- Generator: Adobe Illustrator 22.1.0, SVG Export Plug-In . SVG Version: 6.00 Build 0)  -->
<svg version="1.1" id="target-icon" xmlns="http://www.w3.org/2000/svg" xmlns:xlink="http://www.w3.org/1999/xlink" x="0px"
	 y="0px" viewBox="0 0 124 124" style="enable-background:new 0 0 124 124;" xml:space="preserve">
<style type="text/css">
	.st0{fill:#43C370;stroke:#FFFFFF;stroke-miterlimit:10;}
</style>
<g>
	<path class="st0" d="M53.8,104.9V74.7c0-1-0.8-1.9-1.9-1.9H39.4c-1,0-1.9,0.8-1.9,1.9s0.8,1.9,1.9,1.9h10.7v28.3
		c-3.6,0.9-6.3,4.1-6.3,7.9c0,4.5,3.7,8.2,8.2,8.2s8.2-3.7,8.2-8.2C60.1,109,57.4,105.8,53.8,104.9z M52,117.2c-2.4,0-4.4-2-4.4-4.4
		c0-2.4,2-4.4,4.4-4.4s4.4,2,4.4,4.4C56.4,115.3,54.4,117.2,52,117.2z"/>
	<path class="st0" d="M73.9,104.9V74.7c0-1-0.8-1.9-1.9-1.9H59.5c-1,0-1.9,0.8-1.9,1.9s0.8,1.9,1.9,1.9h10.7v28.3
		c-3.6,0.9-6.3,4.1-6.3,7.9c0,4.5,3.7,8.2,8.2,8.2c4.5,0,8.2-3.7,8.2-8.2C80.2,109,77.5,105.8,73.9,104.9z M72,117.2
		c-2.4,0-4.4-2-4.4-4.4c0-2.4,2-4.4,4.4-4.4c2.4,0,4.4,2,4.4,4.4C76.4,115.3,74.5,117.2,72,117.2z"/>
	<path class="st0" d="M105.9,92.1c-3.9,0-7.1,2.7-7.9,6.3h-4V74.7c0-1-0.8-1.9-1.9-1.9H79.6c-1,0-1.9,0.8-1.9,1.9s0.8,1.9,1.9,1.9
		h10.7v23.7c0,1,0.8,1.9,1.9,1.9H98c0.9,3.6,4.1,6.3,7.9,6.3c4.5,0,8.2-3.7,8.2-8.2S110.4,92.1,105.9,92.1z M105.9,104.7
		c-2.4,0-4.4-2-4.4-4.4c0-2.4,2-4.4,4.4-4.4c2.4,0,4.4,2,4.4,4.4C110.3,102.7,108.4,104.7,105.9,104.7z"/>
	<path class="st0" d="M116.5,43.6c-2.5-3.2-6-5.5-9.8-6.7c-0.4-8.9-4.1-17.2-10.5-23.6C89.5,6.7,80.6,3,71.1,3
		C58.7,3,47.2,9.5,40.7,20c-1.6-0.5-3.2-0.7-4.9-0.7c-7.7,0-14.3,5.4-15.9,12.8C10,34.7,3,43.7,3,54c0,12.5,10.1,22.6,22.6,22.6H30
		v21.8h-4c-0.9-3.6-4.1-6.3-7.9-6.3c-4.5,0-8.2,3.7-8.2,8.2s3.7,8.2,8.2,8.2c3.9,0,7.1-2.7,7.9-6.3h5.9c1,0,1.9-0.8,1.9-1.9V74.7
		c0-1-0.8-1.9-1.9-1.9h-6.3C15.2,72.8,6.8,64.4,6.8,54c0-9,6.4-16.7,15.2-18.5c0.8-0.2,1.4-0.8,1.5-1.6C24.2,27.7,29.6,23,35.8,23
		c1.7,0,3.4,0.3,5,1c0.9,0.4,1.9,0,2.4-0.8C48.8,13.1,59.5,6.8,71.1,6.8c17.4,0,31.7,14.2,31.9,31.6c0,0.9,0.6,1.6,1.5,1.8
		c7.5,1.7,12.8,8.4,12.8,16.1c0,9.1-7.4,16.6-16.6,16.6h-1c-1,0-1.9,0.8-1.9,1.9s0.8,1.9,1.9,1.9h1c11.2,0,20.3-9.1,20.3-20.3
		C121,51.7,119.4,47.2,116.5,43.6z M18.1,104.7c-2.4,0-4.4-2-4.4-4.4c0-2.4,2-4.4,4.4-4.4s4.4,2,4.4,4.4
		C22.5,102.7,20.5,104.7,18.1,104.7z"/>
	<path class="st0" d="M94.8,40.3L94.8,40.3c1.1,0,1.9-0.9,1.9-1.9c0-3.1-0.6-6.1-1.7-9c-0.4-1-1.5-1.4-2.4-1.1
		c-1,0.4-1.4,1.5-1.1,2.4c1,2.5,1.5,5,1.5,7.7C92.9,39.5,93.8,40.3,94.8,40.3L94.8,40.3z"/>
	<path class="st0" d="M87.9,24.8c0.4,0.5,0.9,0.7,1.5,0.7c0.4,0,0.8-0.1,1.2-0.4c0.8-0.7,0.9-1.8,0.3-2.7C85.9,16.4,78.7,13,71.1,13
		c-1,0-1.9,0.8-1.9,1.9s0.8,1.9,1.9,1.9C77.6,16.8,83.7,19.7,87.9,24.8L87.9,24.8z"/>
</g>
</svg>
