<?xml version="1.0" encoding="utf-8"?>
<!-- Generator: Adobe Illustrator 22.1.0, SVG Export Plug-In . SVG Version: 6.00 Build 0)  -->
<svg version="1.1" id="Layer_1" xmlns="http://www.w3.org/2000/svg" xmlns:xlink="http://www.w3.org/1999/xlink" x="0px" y="0px"
	 viewBox="0 0 150 150" enable-background="new 0 0 150 150" xml:space="preserve">
<g>
	<path fill="#234DD4" stroke="#FFFFFF" stroke-width="1.8968" stroke-miterlimit="10" d="M-87.0185,92.4883V34.4528
		c0-1.9526-1.5825-3.5352-3.5351-3.5352h-17.9115v-3.7708c0-1.9526-1.5825-3.5352-3.5352-3.5352s-3.5352,1.5825-3.5352,3.5352
		v3.7708h-14.1405v-3.7708c0-1.9526-1.5825-3.5352-3.5352-3.5352s-3.5352,1.5825-3.5352,3.5352v3.7708h-14.1406v-3.7708
		c0-1.9526-1.5825-3.5352-3.5352-3.5352s-3.5352,1.5825-3.5352,3.5352v3.7708h-14.1405v-3.7708
		c0-1.9526-1.5825-3.5352-3.5352-3.5352s-3.5352,1.5825-3.5352,3.5352v3.7708h-17.9114c-1.9526,0-3.5352,1.5825-3.5352,3.5352
		v92.1497c0,1.9526,1.5825,3.5352,3.5352,3.5352h58.8732c5.7152,8.5203,15.4341,14.1406,26.4419,14.1406
		c17.5432,0,31.8164-14.2732,31.8164-31.8164C-79.9482,104.9037-82.5995,97.9531-87.0185,92.4883z M-179.1682,37.988v3.5352
		c0,1.9526,1.5825,3.5352,3.5352,3.5352s3.5352-1.5825,3.5352-3.5352V37.988h14.1406v3.5352c0,1.9526,1.5825,3.5352,3.5352,3.5352
		s3.5352-1.5825,3.5352-3.5352V37.988h14.1406v3.5352c0,1.9526,1.5825,3.5352,3.5352,3.5352s3.5352-1.5825,3.5352-3.5352V37.988
		h14.1406v3.5352c0,1.9526,1.5825,3.5352,3.5352,3.5352s3.5352-1.5825,3.5352-3.5352V37.988h14.3763v14.1406h-99.456V37.988
		H-179.1682z M-193.5445,123.0674V59.1989h99.4557v26.8212c-5.0588-3.3925-11.1404-5.3745-17.6758-5.3745
		c-11.1707,0-21.0139,5.7879-26.6923,14.5208c-0.4778-0.2412-1.0164-0.3802-1.589-0.3802h-7.0703
		c-1.9526,0-3.5352,1.5825-3.5352,3.5352s1.5825,3.5352,3.5352,3.5352h5.3552c-0.7982,2.2518-1.3505,4.6196-1.6221,7.0703h-3.7331
		c-1.9526,0-3.5352,1.5825-3.5352,3.5352s1.5825,3.5352,3.5352,3.5352h3.7331c0.2716,2.4507,0.823,4.8185,1.6221,7.0703h-51.7835
		V123.0674z M-111.7646,137.208c-13.6453,0-24.7461-11.1008-24.7461-24.7461s11.1008-24.7461,24.7461-24.7461
		s24.7461,11.1008,24.7461,24.7461S-98.1192,137.208-111.7646,137.208z"/>
	<path fill="#234DD4" stroke="#FFFFFF" stroke-width="1.8968" stroke-miterlimit="10" d="M-97.6239,108.9268h-10.6055V98.3213
		c0-1.9526-1.5825-3.5352-3.5352-3.5352s-3.5352,1.5825-3.5352,3.5352v14.1406c0,1.9526,1.5825,3.5352,3.5352,3.5352h14.1406
		c1.9526,0,3.5352-1.5825,3.5352-3.5352S-95.6713,108.9268-97.6239,108.9268z"/>
	<path fill="#234DD4" stroke="#FFFFFF" stroke-width="1.8968" stroke-miterlimit="10" d="M-168.5627,66.5049h-7.0703
		c-1.9526,0-3.5352,1.5825-3.5352,3.5352s1.5825,3.5352,3.5352,3.5352h7.0703c1.9526,0,3.5352-1.5825,3.5352-3.5352
		S-166.6101,66.5049-168.5627,66.5049z"/>
	<path fill="#234DD4" stroke="#FFFFFF" stroke-width="1.8968" stroke-miterlimit="10" d="M-168.5627,80.6455h-7.0703
		c-1.9526,0-3.5352,1.5825-3.5352,3.5352s1.5825,3.5352,3.5352,3.5352h7.0703c1.9526,0,3.5352-1.5825,3.5352-3.5352
		S-166.6101,80.6455-168.5627,80.6455z"/>
	<path fill="#234DD4" stroke="#FFFFFF" stroke-width="1.8968" stroke-miterlimit="10" d="M-168.5627,94.7861h-7.0703
		c-1.9526,0-3.5352,1.5825-3.5352,3.5352s1.5825,3.5352,3.5352,3.5352h7.0703c1.9526,0,3.5352-1.5825,3.5352-3.5352
		S-166.6101,94.7861-168.5627,94.7861z"/>
	<path fill="#234DD4" stroke="#FFFFFF" stroke-width="1.8968" stroke-miterlimit="10" d="M-147.1161,73.5752h7.0703
		c1.9526,0,3.5352-1.5825,3.5352-3.5352s-1.5825-3.5352-3.5352-3.5352h-7.0703c-1.9526,0-3.5352,1.5825-3.5352,3.5352
		S-149.0688,73.5752-147.1161,73.5752z"/>
	<path fill="#234DD4" stroke="#FFFFFF" stroke-width="1.8968" stroke-miterlimit="10" d="M-147.1161,87.7158h7.0703
		c1.9526,0,3.5352-1.5825,3.5352-3.5352s-1.5825-3.5352-3.5352-3.5352h-7.0703c-1.9526,0-3.5352,1.5825-3.5352,3.5352
		S-149.0688,87.7158-147.1161,87.7158z"/>
	<path fill="#234DD4" stroke="#FFFFFF" stroke-width="1.8968" stroke-miterlimit="10" d="M-168.5627,108.9268h-7.0703
		c-1.9526,0-3.5352,1.5825-3.5352,3.5352s1.5825,3.5352,3.5352,3.5352h7.0703c1.9526,0,3.5352-1.5825,3.5352-3.5352
		S-166.6101,108.9268-168.5627,108.9268z"/>
	<path fill="#234DD4" stroke="#FFFFFF" stroke-width="1.8968" stroke-miterlimit="10" d="M-118.8349,73.5752h7.0703
		c1.9526,0,3.5352-1.5825,3.5352-3.5352s-1.5825-3.5352-3.5352-3.5352h-7.0703c-1.9526,0-3.5352,1.5825-3.5352,3.5352
		S-120.7875,73.5752-118.8349,73.5752z"/>
</g>
<g>
	<g>
		<path fill="#234DD4" stroke="#FFFFFF" stroke-width="1.5" stroke-miterlimit="10" d="M142.9852,61.4009
			c1.3377,0,2.4219-1.0844,2.4219-2.4219v-7.613c0-1.3375-1.0839-2.4219-2.4219-2.4219h-13.4554
			c-1.7885,0-3.2437-1.4552-3.2437-3.2437c0-1.7885,1.4552-3.2437,3.2437-3.2437c1.3377,0,2.4219-1.0844,2.4219-2.4219v-7.613
			c0-1.3375-1.0839-2.4219-2.4219-2.4219H7.0155c-1.3375,0.0006-2.4219,1.0847-2.4219,2.4224v7.613
			c0,1.3375,1.0844,2.4219,2.4219,2.4219c1.7885,0,3.2437,1.4549,3.2437,3.2437c0,1.7885-1.4549,3.2437-3.2437,3.2437
			c-1.3375,0-2.4219,1.0844-2.4219,2.4219v8.498c0,1.3375,1.0844,2.4219,2.4219,2.4219c1.7885,0,3.2437,1.4549,3.2437,3.2437
			c0,1.7885-1.4549,3.2437-3.2437,3.2437c-1.3375,0-2.4219,1.0844-2.4219,2.4219v8.498c0,1.3375,1.0844,2.4219,2.4219,2.4219
			c1.7885,0,3.2437,1.4552,3.2437,3.2437c0,1.7885-1.4549,3.2439-3.2437,3.2439c-1.3375,0-2.4219,1.0844-2.4219,2.4219v7.613
			c0,1.3375,1.0844,2.4219,2.4219,2.4219h13.4554c1.7885,0,3.2437,1.4552,3.2437,3.2437c0,1.7885-1.4552,3.2437-3.2437,3.2437
			c-1.3375,0-2.4219,1.0844-2.4219,2.4219v7.613c0,1.3375,1.0844,2.4219,2.4219,2.4219h122.5146
			c1.3377,0,2.4219-1.0844,2.4219-2.4219v-7.613c0-1.3375-1.0839-2.4219-2.4219-2.4219c-1.7885,0-3.2437-1.4552-3.2437-3.2437
			s1.4549-3.2437,3.2437-3.2437c1.3377,0,2.4219-1.0844,2.4219-2.4219v-8.4983c0-1.3375-1.0839-2.4219-2.4219-2.4219
			c-1.7885,0-3.2437-1.4549-3.2437-3.2437s1.4549-3.2437,3.2437-3.2437c1.3377,0,2.4219-1.0844,2.4219-2.4219v-8.498
			c0-1.3375-1.0839-2.4219-2.4219-2.4219c-1.7885,0-3.2437-1.4552-3.2437-3.2437
			C139.7416,62.8558,141.1967,61.4009,142.9852,61.4009z M20.4706,87.7168c-1.3375,0-2.4219,1.0844-2.4219,2.4219v6.0764H9.4374
			v-3.1397c3.28-1.0316,5.6655-4.1009,5.6655-7.717c0-3.6161-2.3853-6.6856-5.6655-7.717v-4.3952
			c3.28-1.0313,5.6655-4.1006,5.6655-7.717c0-3.616-2.3853-6.6856-5.6655-7.717v-4.3952c3.28-1.0313,5.6655-4.1006,5.6655-7.717
			c0-3.6163-2.3853-6.6859-5.6655-7.7172v-3.1397h117.6709v3.1397c-3.28,1.0313-5.6656,4.1006-5.6656,7.717
			c0,1.1532,0.2445,2.25,0.6812,3.2437h-9.2934v-5.1911c0-1.3375-1.0839-2.4219-2.4219-2.4219H26.1361
			c-1.3375,0-2.4219,1.0844-2.4219,2.4219v5.1911h-3.2437c-1.3375,0-2.4219,1.0844-2.4219,2.4219v7.613
			c0,1.3375,1.0844,2.4219,2.4219,2.4219c1.7885,0,3.2437,1.4549,3.2437,3.2437c0,1.7888-1.4552,3.2437-3.2437,3.2437
			c-1.3375,0-2.4219,1.0844-2.4219,2.4219v8.498c0,1.3375,1.0844,2.4219,2.4219,2.4219c1.7885,0,3.2437,1.4549,3.2437,3.2437
			S22.2594,87.7168,20.4706,87.7168z M107.9873,46.1749v2.7692H28.558v-2.7692H107.9873z M140.5636,56.9276
			c-3.2802,1.0313-5.6656,4.1006-5.6656,7.717c0,3.616,2.3853,6.6856,5.6656,7.717v4.3952
			c-3.2802,1.0313-5.6656,4.1009-5.6656,7.717c0,3.616,2.3853,6.6856,5.6656,7.717v4.3952
			c-3.2802,1.0313-5.6656,4.1009-5.6656,7.717c0,3.616,2.3853,6.6856,5.6656,7.717v3.1397H22.8925v-3.1397
			c3.2802-1.0316,5.6655-4.1009,5.6655-7.717c0-3.616-2.3853-6.6856-5.6655-7.717v-4.3952c3.2802-1.0313,5.6655-4.1009,5.6655-7.717
			s-2.3853-6.6856-5.6655-7.717v-4.3955c3.2802-1.0313,5.6655-4.1006,5.6655-7.717c0-3.6163-2.3853-6.6856-5.6655-7.717v-3.1397
			h117.6712V56.9276z"/>
	</g>
</g>
<g>
	<g>
		<path fill="#234DD4" stroke="#FFFFFF" stroke-width="1.5" stroke-miterlimit="10" d="M123.8646,60.452H39.5913
			c-1.3375,0-2.4219,1.0844-2.4219,2.4219v43.5529c0,1.3375,1.0844,2.4219,2.4219,2.4219h84.273
			c1.3377,0,2.4219-1.0844,2.4219-2.4219V62.8739C126.2864,61.5365,125.202,60.452,123.8646,60.452z M42.0131,104.0049V65.2958
			h79.4293v38.7091H42.0131z"/>
	</g>
</g>
<g>
	<g>
		<path fill="#234DD4" stroke="#FFFFFF" stroke-width="1.5" stroke-miterlimit="10" d="M112.0021,88.7792H51.4534
			c-1.3375,0-2.4219,1.0844-2.4219,2.4219s1.0844,2.4219,2.4219,2.4219h60.5487c1.3377,0,2.4219-1.0844,2.4219-2.4219
			S113.3401,88.7792,112.0021,88.7792z"/>
	</g>
</g>
<g>
	<g>
		<path fill="#234DD4" stroke="#FFFFFF" stroke-width="1.5" stroke-miterlimit="10" d="M112.0021,75.6778H51.4534
			c-1.3375,0-2.4219,1.0844-2.4219,2.4219s1.0844,2.4219,2.4219,2.4219h60.5487c1.3377,0,2.4219-1.0844,2.4219-2.4219
			S113.3401,75.6778,112.0021,75.6778z"/>
	</g>
</g>
</svg>
