<?xml version="1.0" encoding="utf-8"?>
<!-- Generator: Adobe Illustrator 22.1.0, SVG Export Plug-In . SVG Version: 6.00 Build 0)  -->
<svg version="1.1" id="Layer_1" xmlns="http://www.w3.org/2000/svg" xmlns:xlink="http://www.w3.org/1999/xlink" x="0px" y="0px"
	 viewBox="0 0 150 150" style="enable-background:new 0 0 150 150;" xml:space="preserve">
<style type="text/css">
	.st0{fill:#FFFFFF;stroke:#43C370;stroke-width:0.75;stroke-miterlimit:10;}
</style>
<g>
	<path class="st0" d="M141,71.6c-0.1-1.1-1-1.9-2-1.8c-1.1,0.1-1.9,1-1.8,2c0.1,1.1,0.1,2.2,0.1,3.3c0,16.6-6.5,32.3-18.2,44
		s-27.4,18.2-44,18.2s-32.3-6.5-44-18.2s-18.2-27.4-18.2-44s6.5-32.3,18.2-44s27.4-18.2,44-18.2c14.7,0,28.9,5.2,40.1,14.6
		c11.1,9.3,18.6,22.3,21.1,36.4c0.2,1.1,1.2,1.8,2.3,1.6c1.1-0.2,1.8-1.2,1.6-2.3c-2.7-15-10.7-28.8-22.4-38.7
		C105.7,14.5,90.6,9,75,9c-17.7,0-34.3,6.9-46.8,19.4C15.8,40.9,8.9,57.5,8.9,75.1s6.9,34.3,19.4,46.8
		c12.5,12.5,29.1,19.4,46.8,19.4s34.3-6.9,46.8-19.4c12.5-12.5,19.4-29.1,19.4-46.8C141.1,74,141.1,72.8,141,71.6L141,71.6z"/>
	<path class="st0" d="M30.5,43.5c-0.9-0.6-2.1-0.3-2.7,0.5c-6.1,9.2-9.3,20-9.3,31.1c0,15.1,5.9,29.3,16.5,39.9s24.9,16.5,39.9,16.5
		s29.3-5.9,39.9-16.5s16.5-24.9,16.5-39.9s-5.9-29.3-16.5-39.9S90.1,18.6,75,18.6c-8,0-15.8,1.6-23,4.9c-7,3.1-13.2,7.6-18.5,13.3
		c-0.7,0.8-0.7,2,0.1,2.7c0.8,0.7,2,0.7,2.7-0.1C41.2,34.2,47,30,53.5,27.1c6.8-3,14-4.6,21.5-4.6c29,0,52.6,23.6,52.6,52.6
		S104,127.7,75,127.7s-52.6-23.6-52.6-52.6c0-10.4,3-20.4,8.7-29C31.7,45.3,31.4,44.1,30.5,43.5z"/>
	<path class="st0" d="M28,75.1c0,1.1,0.9,1.9,1.9,1.9h2.8c1.1,0,1.9-0.9,1.9-1.9c0-1.1-0.9-1.9-1.9-1.9h-2.8
		C28.8,73.2,28,74.1,28,75.1z"/>
	<path class="st0" d="M76.9,30c0-1.1-0.9-1.9-1.9-1.9S73.1,29,73.1,30v45.1c0,1.1,0.9,1.9,1.9,1.9h45.1c1.1,0,1.9-0.9,1.9-1.9
		c0-1.1-0.9-1.9-1.9-1.9H76.9V30z"/>
	<path class="st0" d="M73.1,120.2c0,1.1,0.9,1.9,1.9,1.9s1.9-0.9,1.9-1.9v-2.8c0-1.1-0.9-1.9-1.9-1.9s-1.9,0.9-1.9,1.9V120.2z"/>
	<path class="st0" d="M43.7,46.6c0.4,0.4,0.9,0.6,1.4,0.6s1-0.2,1.4-0.6c0.8-0.8,0.8-2,0-2.7l-2-2c-0.8-0.8-2-0.8-2.7,0
		c-0.8,0.8-0.8,2,0,2.7L43.7,46.6z"/>
	<path class="st0" d="M103.5,103.7c-0.8,0.8-0.8,2,0,2.7l2,2c0.4,0.4,0.9,0.6,1.4,0.6s1-0.2,1.4-0.6c0.8-0.8,0.8-2,0-2.7l-2-2
		C105.5,102.9,104.3,102.9,103.5,103.7L103.5,103.7z"/>
	<path class="st0" d="M106.3,46.6l2-2c0.8-0.8,0.8-2,0-2.7c-0.8-0.8-2-0.8-2.7,0l-2,2c-0.8,0.8-0.8,2,0,2.7c0.4,0.4,0.9,0.6,1.4,0.6
		S105.9,47,106.3,46.6L106.3,46.6z"/>
	<path class="st0" d="M41.7,108.4c0.4,0.4,0.9,0.6,1.4,0.6c0.5,0,1-0.2,1.4-0.6l2-2c0.8-0.8,0.8-2,0-2.7c-0.8-0.8-2-0.8-2.7,0l-2,2
		C41,106.4,41,107.6,41.7,108.4z"/>
	<path class="st0" d="M36.8,56.8l-2.6-1.1c-1-0.4-2.1,0-2.5,1c-0.4,1,0,2.1,1,2.5l2.6,1.1c0.2,0.1,0.5,0.2,0.8,0.2
		c0.8,0,1.5-0.4,1.8-1.2C38.3,58.4,37.8,57.2,36.8,56.8L36.8,56.8z"/>
	<path class="st0" d="M114.7,89.9c-1-0.4-2.1,0-2.5,1c-0.4,1,0,2.1,1,2.5l2.6,1.1c0.2,0.1,0.5,0.2,0.8,0.2c0.8,0,1.5-0.4,1.8-1.2
		c0.4-1,0-2.1-1-2.5L114.7,89.9z"/>
	<path class="st0" d="M91.6,38.1c0.8,0,1.5-0.4,1.8-1.2l1.1-2.6c0.4-1,0-2.1-1-2.5c-1-0.4-2.1,0-2.5,1l-1.1,2.6c-0.4,1,0,2.1,1,2.5
		C91,38.1,91.3,38.1,91.6,38.1z"/>
	<path class="st0" d="M56.6,118.4c0.2,0.1,0.5,0.2,0.8,0.2c0.8,0,1.5-0.4,1.8-1.2l1.1-2.6c0.4-1,0-2.1-1-2.5c-1-0.4-2.1,0-2.5,1
		l-1.1,2.6C55.2,116.9,55.6,118,56.6,118.4z"/>
	<path class="st0" d="M59.2,37.8c0.2,0,0.5,0,0.7-0.1c1-0.4,1.5-1.5,1.1-2.5l-1-2.6c-0.4-1-1.5-1.5-2.5-1.1c-1,0.4-1.5,1.5-1.1,2.5
		l1,2.6C57.7,37.4,58.4,37.8,59.2,37.8z"/>
	<path class="st0" d="M90.1,112.6c-1,0.4-1.5,1.5-1.1,2.5l1,2.6c0.3,0.8,1,1.2,1.8,1.2c0.2,0,0.5,0,0.7-0.1c1-0.4,1.5-1.5,1.1-2.5
		l-1-2.6C92.2,112.7,91.1,112.2,90.1,112.6L90.1,112.6z"/>
	<path class="st0" d="M114.2,61.2c0.2,0,0.5,0,0.7-0.1l2.6-1c1-0.4,1.5-1.5,1.1-2.5c-0.4-1-1.5-1.5-2.5-1.1l-2.6,1
		c-1,0.4-1.5,1.5-1.1,2.5C112.7,60.8,113.5,61.2,114.2,61.2z"/>
	<path class="st0" d="M35,89.2l-2.6,1c-1,0.4-1.5,1.5-1.1,2.5c0.3,0.8,1,1.2,1.8,1.2c0.2,0,0.5,0,0.7-0.1l2.6-1
		c1-0.4,1.5-1.5,1.1-2.5C37.2,89.2,36,88.8,35,89.2L35,89.2z"/>
</g>
</svg>
