<?xml version="1.0" encoding="utf-8"?>
<!-- Generator: Adobe Illustrator 22.1.0, SVG Export Plug-In . SVG Version: 6.00 Build 0)  -->
<svg version="1.1" id="Layer_1" xmlns="http://www.w3.org/2000/svg" xmlns:xlink="http://www.w3.org/1999/xlink" x="0px" y="0px"
	 viewBox="0 0 150 150" style="enable-background:new 0 0 150 150;" xml:space="preserve">
<style type="text/css">
	.st0{fill:#234DD4;stroke:#FFFFFF;stroke-miterlimit:10;}
</style>
<g>
	<path class="st0" d="M103.8,83.1c4.8-6.3,7.3-13.9,7.3-21.8c0-9.8-3.8-18.9-10.8-25.7C93.4,28.7,84.2,25,74.5,25.1
		C65,25.3,56.1,29,49.4,35.8c-6.7,6.8-10.5,15.7-10.5,25.1c-0.1,8.1,2.5,15.8,7.4,22.2c7.9,10.4,12.3,23.2,12.3,36v14
		c0,6.2,5,11.2,11.2,11.2h10.5c6.2,0,11.2-5,11.2-11.2v-14C91.5,106.2,95.7,93.7,103.8,83.1z M49.9,80.3C45.7,74.7,43.4,68,43.5,61
		c0.2-17,14.1-31,31-31.2c8.5-0.1,16.5,3.1,22.6,9.1c6.1,6,9.4,13.9,9.4,22.4c0,6.9-2.2,13.5-6.4,19c-8.5,11.2-13.1,24.4-13.3,38
		H63.2C63,104.8,58.3,91.3,49.9,80.3z M63.2,131.5v-1.9l23.7,2.7v0.7c0,0.4,0,0.8-0.1,1.1L63.2,131.5z M63.2,125v-2.1h23.7v4.8
		L63.2,125z M69.8,139.7c-2.5,0-4.7-1.4-5.8-3.4l19.9,2.3c-1.1,0.7-2.3,1.1-3.7,1.1L69.8,139.7L69.8,139.7z"/>
	<path class="st0" d="M52.1,64.7c-0.2-1.2-0.3-2.5-0.3-3.7c0-1.3-1-2.3-2.3-2.3c-1.3,0-2.3,1-2.3,2.3c0,1.5,0.1,3,0.3,4.4
		c0.2,1.1,1.2,2,2.3,2c0.1,0,0.2,0,0.3,0C51.4,67.2,52.3,66,52.1,64.7L52.1,64.7z"/>
	<path class="st0" d="M65.7,99.9c0.2,0,0.5,0,0.7-0.1c1.2-0.4,1.9-1.7,1.5-2.9c-2.6-7.8-6.4-15.1-11.4-21.6
		c-0.8-1.1-1.6-2.2-2.2-3.4c-0.6-1.1-2-1.6-3.1-1c-1.1,0.6-1.6,2-1,3.1c0.7,1.4,1.6,2.8,2.6,4.1c4.7,6.1,8.3,12.9,10.7,20.3
		C63.8,99.3,64.8,99.9,65.7,99.9L65.7,99.9z"/>
	<path class="st0" d="M99.3,69.2c-1.2-0.5-2.5,0-3,1.2c-0.7,1.7-1.7,3.3-2.8,4.8c-0.8,1-0.6,2.5,0.4,3.2c0.4,0.3,0.9,0.5,1.4,0.5
		c0.7,0,1.4-0.3,1.8-0.9c1.4-1.8,2.5-3.8,3.4-5.8C101.1,71.1,100.5,69.7,99.3,69.2L99.3,69.2z"/>
	<path class="st0" d="M75,38.1c12.8,0,23.2,10.4,23.2,23.2c0,0.7,0,1.5-0.1,2.2c-0.1,1.3,0.8,2.4,2.1,2.5c0.1,0,0.1,0,0.2,0
		c1.2,0,2.2-0.9,2.3-2.1c0.1-0.9,0.1-1.7,0.1-2.6c0-15.3-12.5-27.8-27.8-27.8c-1.3,0-2.3,1-2.3,2.3S73.7,38.1,75,38.1L75,38.1z"/>
	<path class="st0" d="M75,21.1c1.3,0,2.3-1,2.3-2.3v-13c0-1.3-1-2.3-2.3-2.3s-2.3,1-2.3,2.3v13C72.7,20.1,73.7,21.1,75,21.1z"/>
	<path class="st0" d="M51.6,25.7c0.4,0.7,1.2,1.2,2,1.2c0.4,0,0.8-0.1,1.2-0.3c1.1-0.6,1.5-2.1,0.8-3.2l-6.5-11.2
		c-0.6-1.1-2.1-1.5-3.2-0.8c-1.1,0.6-1.5,2.1-0.8,3.2L51.6,25.7z"/>
	<path class="st0" d="M124.5,87.6l-11.2-6.5c-1.1-0.6-2.5-0.3-3.2,0.8c-0.6,1.1-0.3,2.5,0.8,3.2l11.2,6.5c0.4,0.2,0.8,0.3,1.2,0.3
		c0.8,0,1.6-0.4,2-1.2C126,89.6,125.6,88.2,124.5,87.6L124.5,87.6z"/>
	<path class="st0" d="M25.5,35.8l11.2,6.5c0.4,0.2,0.8,0.3,1.2,0.3c0.8,0,1.6-0.4,2-1.2c0.6-1.1,0.3-2.5-0.8-3.2l-11.2-6.5
		c-1.1-0.6-2.5-0.3-3.2,0.8C24,33.7,24.4,35.1,25.5,35.8z"/>
	<path class="st0" d="M130.8,59.3h-13c-1.3,0-2.3,1-2.3,2.3s1,2.3,2.3,2.3h13c1.3,0,2.3-1,2.3-2.3S132.1,59.3,130.8,59.3z"/>
	<path class="st0" d="M34.5,61.7c0-1.3-1-2.3-2.3-2.3h-13c-1.3,0-2.3,1-2.3,2.3s1,2.3,2.3,2.3h13C33.4,64,34.5,62.9,34.5,61.7z"/>
	<path class="st0" d="M112.1,42.6c0.4,0,0.8-0.1,1.2-0.3l11.2-6.5c1.1-0.6,1.5-2.1,0.8-3.2c-0.6-1.1-2.1-1.5-3.2-0.8L111,38.2
		c-1.1,0.6-1.5,2.1-0.8,3.2C110.5,42.1,111.3,42.6,112.1,42.6L112.1,42.6z"/>
	<path class="st0" d="M36.7,81.1l-11.2,6.5c-1.1,0.6-1.5,2.1-0.8,3.2c0.4,0.7,1.2,1.2,2,1.2c0.4,0,0.8-0.1,1.2-0.3L39,85.1
		c1.1-0.6,1.5-2.1,0.8-3.2C39.2,80.8,37.8,80.5,36.7,81.1z"/>
	<path class="st0" d="M95.3,26.6c0.4,0.2,0.8,0.3,1.2,0.3c0.8,0,1.6-0.4,2-1.2l6.5-11.2c0.6-1.1,0.3-2.5-0.8-3.2
		c-1.1-0.6-2.5-0.3-3.2,0.8l-6.5,11.2C93.8,24.5,94.2,25.9,95.3,26.6L95.3,26.6z"/>
</g>
</svg>
