<?xml version="1.0" standalone="no"?>
<!DOCTYPE svg PUBLIC "-//W3C//DTD SVG 20010904//EN"
 "http://www.w3.org/TR/2001/REC-SVG-20010904/DTD/svg10.dtd">
<svg version="1.0" xmlns="http://www.w3.org/2000/svg"
 width="257.000000pt" height="227.000000pt" viewBox="0 0 257.000000 227.000000"
 preserveAspectRatio="xMidYMid meet">
<metadata>
Created by potrace 1.15, written by Peter Selinger 2001-2017
</metadata>
<g transform="translate(0.000000,227.000000) scale(0.100000,-0.100000)"
fill="#ffffff" stroke="none">
<path d="M1870 2120 c-116 -20 -230 -112 -270 -217 -35 -93 -37 -164 -6 -256
l26 -78 -64 -111 c-63 -107 -71 -138 -37 -138 9 0 75 18 146 41 108 34 150 42
251 48 103 6 131 12 177 35 67 32 130 99 165 174 23 49 27 70 27 152 0 85 -3
101 -30 153 -71 141 -233 224 -385 197z"/>
<path d="M355 1555 l-25 -24 0 -631 0 -630 960 0 960 0 0 612 0 611 -25 -23
-25 -23 0 -569 0 -568 -907 2 -908 3 0 595 0 595 569 5 570 5 19 33 19 32
-592 0 -591 0 -24 -25z"/>
<path d="M1195 1343 c-92 -48 -140 -150 -115 -244 25 -97 95 -156 195 -166 46
-5 63 -1 111 22 158 78 161 305 3 385 -48 25 -150 26 -194 3z"/>
<path d="M1042 853 c-85 -85 -112 -169 -112 -349 l0 -104 361 0 362 0 -5 138
c-6 172 -25 228 -104 308 -51 52 -54 54 -76 40 -35 -22 -127 -46 -178 -46 -51
0 -143 24 -178 46 -21 14 -25 12 -70 -33z"/>
<path d="M80 202 c0 -15 17 -23 98 -40 96 -22 107 -22 1109 -22 996 0 1014 0
1113 21 83 18 100 25 100 40 0 18 -18 19 -445 19 -290 0 -445 -3 -445 -10 0
-6 -113 -10 -320 -10 -207 0 -320 4 -320 10 0 7 -155 10 -445 10 -425 0 -445
-1 -445 -18z"/>
</g>
</svg>
