<svg xmlns="http://www.w3.org/2000/svg" viewBox="0 0 3836.29 1875.5"><defs><style>.cls-1{fill:#fff;}.cls-2{fill:#e60518;}</style></defs><title>esummit-logo</title><g id="Layer_2" data-name="Layer 2"><g id="Layer_1-2" data-name="Layer 1"><path class="cls-1" d="M1744.84,409.93q0,97.94,0,195.86a169.93,169.93,0,0,1-11.47,62.46c-11.59,29.71-32.56,50-62.49,60.44-35.88,12.47-72,11.81-107.62-1.43-27.7-10.31-46.74-30.1-58-57.23-8.78-21.19-12.16-43.48-12.16-66.36q0-86.94-.07-173.88,0-106.93.15-213.86c0-4.66-.11-9.33,0-14,.24-7.32,1.18-8.61,7.75-8.65,23.32-.13,46.64,0,70,0,3.84,0,6.21,1.89,6.31,5.89.14,6,.18,12,.18,18q0,192.87.07,385.73c0,10,.1,19.85,2.92,29.68,4.31,15,13.88,23.87,28.83,27.15A55.66,55.66,0,0,0,1635,659c13.71-3.39,21.88-12.07,25.91-25.06,3-9.62,3.75-19.55,3.7-29.62q-.25-53-.18-105.93,0-143.91,0-287.8c0-18.86-1.22-17.42,17-17.43q28,0,56,0c4.61,0,7.61,1.69,7.59,6.84,0,5.33.06,10.66.06,16V409.93Z"/><path class="cls-1" d="M1197.31,573.56c8.67-3.16,16-2.43,23.32-2.52,11.32-.14,22.65,0,34,0,24.71,0,21.72-1.21,22,21,.1,8.66-.07,17.34.63,26a78.64,78.64,0,0,0,3.54,17.51c3.93,12.35,12.36,20,25.14,23.18a56.45,56.45,0,0,0,23.71,1.29c16.81-2.89,27.69-12.35,31.5-29.19,6.93-30.68,2.22-59.53-14.36-86.26C1336.45,528,1323,514.11,1308.78,501c-11.73-10.87-23.76-21.4-35.45-32.3a330.73,330.73,0,0,1-41.28-46.07c-35.31-48.08-42.31-101.35-26.3-157.5,12-41.95,40.87-67.41,84-76.18,28-5.68,55.53-5,82.75,4,28.94,9.48,49.08,28.55,61.08,56.36a143.65,143.65,0,0,1,11.86,50.24c.59,12,.64,24,1,35.93.16,5.25-2.75,6.85-7.46,6.84-20.65,0-41.3.08-62,0-8.69-.05-9.33-.67-9.41-8.87-.11-12-.08-24-2-35.87-5-31.34-38.42-46.59-65.21-29.61-9,5.68-13.75,14.25-15.78,24.46-5,25.1-2,49,10.9,71.37,8,14,18.25,26.26,29.76,37.4,12,11.58,24.33,22.74,36.63,34,15.76,14.39,30.93,29.33,44.47,45.87,42.77,52.21,51.28,111.55,34.06,175-11.67,42.94-41.17,68.65-85,77.81a168.07,168.07,0,0,1-65.31.68c-52.62-9.54-79.83-44.86-89.26-90.11C1196.08,621.16,1197,598,1197.31,573.56Z"/><path class="cls-1" d="M725,460.07V216.14c0-4-.08-8,0-12,.24-10.59.63-11.28,11.45-11.35,33.32-.22,66.65-.18,100-.2q51,0,102,0c3.33,0,6.67-.11,10,.09,6.2.37,7.52,1.93,7.87,8.85.06,1.33,0,2.66,0,4,0,17.33.11,34.66,0,52-.08,11.64-.23,11.82-12.76,11.85-36.65.1-73.31-.08-110,.07-27.22.11-23.62-3.22-23.75,22.82-.18,34.66,0,69.32-.09,104,0,13.19-.06,14.13,14.72,14.06,28-.15,56-.05,84,0,4,0,8,0,12,.3a5.21,5.21,0,0,1,5,5.18c.31,7.31.36,14.63.37,22,0,14.67.06,29.33-.15,44,0,3.65-2.17,6.23-6.22,6.29q-11,.17-22,.19c-26,0-52,0-78,.14-8,.06-9.53,1.51-9.57,9.14q-.36,73-.44,146c0,9.2.63,9.75,10.69,9.78,37.32.09,74.65-.1,112,0,27.45.11,23.67-3.38,23.9,24.83.11,14.66-.1,29.33-.24,44,0,4.75-2.56,7.28-7.37,7.35-3.33.05-6.66.06-10,.06q-98,0-195.95,0c-4,0-8-.08-12-.35a4.86,4.86,0,0,1-4.9-5.13c-.2-6.66-.38-13.32-.38-20q0-122,0-243.94Z"/><path class="cls-1" d="M2928.17,499.29q0,104.94,0,209.87a154.27,154.27,0,0,1-.49,16c-.15,1.42-2.33,2.85-3.88,3.8-1,.64-2.57.56-3.89.57-22.65,0-45.31.11-68,0-7.08,0-7.9-1-8.13-8.15-.18-5.33-.08-10.66-.07-16q.08-205.87.17-411.75c0-5.33.11-10.67,0-16-.21-6.8-1.54-8.38-8-8.46-15.32-.18-30.65-.08-46-.1-8.66,0-17.32-.11-26,0-4.78.06-7.82-1.86-7.83-6.77q-.06-32,.2-63.95c0-3.09,2.11-4.66,5.06-4.87,2.66-.2,5.33-.2,8-.2q115.93,0,231.86,0c3.33,0,6.66.07,10,.35,2.95.26,5,2,5,5q.17,32,.07,63.94c0,3.85-2.37,6.19-6.2,6.24-15.32.17-30.64-.09-46,.29-11.21.28-22.5-1.57-33.62,1.19-5,11.41-2.21,23.41-2.26,35.09-.32,64.63-.16,129.26-.16,193.89Z"/><path class="cls-1" d="M2715.37,462q0,125,0,250c0,18.93,0,17.55-17.26,17.54q-30,0-60-.06c-4.89,0-7.24-2.52-7.34-7.25-.11-5.33-.13-10.66-.13-16q0-179,0-358c0-46.66.54-93.32.83-140,0-2.66.08-5.33.07-8,0-5,2.54-7,7.37-7,14.66,0,29.33-.27,44,.07,9.86.23,19.87-1.77,29.58,1.46,4.43,9.49,1.94,19.52,2,29.26.24,79.32.14,158.64.14,238Z"/><path class="cls-1" d="M3525.35,458.65q0,123.9,0,247.8c0,4.66-.06,9.32-.13,14-.06,4.08-2.42,5.83-6.24,6-2.66.1-5.33.11-8,.12-16.65.07-33.3.24-49.95.14-8.26,0-8.68-.66-8.89-9.44-.12-4.66,0-9.33,0-14V335.53a124.85,124.85,0,0,0-.29-14c-.16-1.42-2.31-3.46-3.81-3.72a70.5,70.5,0,0,0-11.91-.67c-17.32-.05-34.64.1-52-.07-8.85-.09-9.86-1.21-10-10.69q-.27-19,0-38c.14-9.7.79-10.44,9.9-10.8a227.22,227.22,0,0,0,29.75-3.14c25-4.3,42.44-17.94,53.11-40.67,2-4.21,4.56-8.34,5.5-12.8,2.13-10,8.39-12.06,17.51-11.43,9.95.69,20,.24,30,.39a4.78,4.78,0,0,1,5.1,4.9c.28,5.31.37,10.64.37,16Q3525.36,334.76,3525.35,458.65Z"/><path class="cls-1" d="M1680.11,1333.63c-16.65,0-33.3.11-49.95-.05-6.47-.07-7.74-1.56-7.87-8.55-.16-8.66-.28-17.33,0-26,.91-24,8.52-45.67,23.66-64.42,6.26-7.77,13-15.13,19.71-22.55,9.37-10.4,18.43-21,25.72-33,9.75-16.1,12.47-33.53,9.79-51.88-1.49-10.16-7.61-15.8-17-16.68-10-.93-18.1,4.6-21,14.44s-1.48,19.84-1.89,29.78c-.3,7.11-1.46,8.8-7.82,8.75-35-.29-29.71,5.39-30.07-28.65-.1-10,1.17-19.92,5.24-29.27,8.12-18.63,21.44-29.9,42.49-30.63,6-.2,11.92-1.34,17.87-1.22,27.25.51,46.55,16.6,52.4,43.12,5.39,24.49,1.42,47.61-10.26,69.5-8.83,16.57-20.78,30.86-33.3,44.74-8,8.89-16,17.83-23.26,27.36-6.94,9.16-11.16,19.66-10.64,31.55.17,3.91,2.28,6.24,6.09,6.28,16.65.16,33.3.18,50,.15,22.46,0,19.93-1.1,20.07,20.76,0,2.67.07,5.33,0,8-.29,6.92-1.41,8.37-8,8.44C1714.74,1333.74,1697.42,1333.63,1680.11,1333.63Z"/><path class="cls-1" d="M2138.38,1332.94h-52c-4,0-6.26-2.16-6.38-6-.52-16-1.1-32.09,1.7-47.86a97.74,97.74,0,0,1,20.93-44.77c7.13-8.77,14.85-17.08,22.4-25.52,10.25-11.44,20.32-23.08,26.87-37.08,7.2-15.41,10.84-31.51,5.56-48.43-2.92-9.36-10.08-14.08-19.59-13.31s-16.24,6.37-17.33,16.18c-1,9.23-.65,18.61-1,27.92-.25,6.43-1.9,8.47-8.36,8.34-37-.73-29.54,7-30.56-29.73a65.84,65.84,0,0,1,4.76-27.34c5.89-14.22,15.73-24.78,30.81-29.2,16.3-4.77,32.93-5,49.09.35,23.16,7.73,32.62,26.16,35.17,48.77,2.7,23.94-2.74,46.25-15.52,66.79-8.84,14.21-19.39,27-30.59,39.4-6.7,7.4-13.35,14.87-19.73,22.55a62.57,62.57,0,0,0-12.1,22.8c-4.49,15.65-2.29,18.44,14,18.55,16.66.11,33.32.07,50,.3,10.54.15,10.84.32,10.72,11.73-.32,29.9,4.22,25.21-24.9,25.61-11.33.16-22.66,0-34,0Z"/><path class="cls-1" d="M1075,422.34h68c3.34,0,6.67,0,10,.15,4.67.24,7.35,2.66,7.4,7.48.08,7.34.09,14.67.09,22,0,10.67,0,21.33-.12,32-.15,14.76-.19,14.94-13.87,15q-70,.35-140,.47c-2.66,0-5.33,0-8-.14-5-.18-6.91-3.2-6.92-7.78,0-12.67,0-25.33,0-38,0-7.33-.2-14.67,0-22,.21-7.74,1.72-9.35,9.38-9.39,24.66-.13,49.33,0,74,0Z"/><path class="cls-1" d="M3110.62,704.82c15.18,0,27.59,0,40,0q30.95.07,61.9.25c4.59,0,7.49,2.16,7.44,7.19-.22,23.71,2.92,22.77-20.22,22.59-43.26-.34-86.52-.55-129.78-.93-9.12-.08-9.45-.3-9.28-8.84.21-10.59-3.57-22.69,1.82-31.37,5.5-8.85,18.64-8.48,28.41-12.12,15.55-5.79,31.36-10.89,47.1-16.16,3.7-1.24,7.3-2.49,10.12-5.55-1.19-3.7-4.3-1.42-6.42-1.9-1.9-.42-4-.08-6-.09-22-.13-43.93-.18-65.89-.43-8-.1-8.82-1-8.8-9.48.07-22-2.66-20.42,20.16-20.24q59.89.5,119.79.87c4.65,0,9.31.11,13.94.5,2.8.24,4.93,1.76,5.12,5,0,.67.15,1.33.19,2,1.7,26.16,1.7,26.16-23.13,34.82Q3159.5,684,3121.88,697.1C3118.74,698.19,3115.43,698.8,3110.62,704.82Z"/><path class="cls-1" d="M2242.22,1110c8.1-1.2,15.31-2.24,22.5-3.36,12-1.87,21.45-8.07,26.34-19,3.82-8.54,8.69-11.94,18.18-11.47,15.1.75,15.31.14,15.33,15.48q.15,113.67.11,227.35a44,44,0,0,1-.65,9.89c-.34,1.48-2.53,3.55-3.94,3.6q-15.93.54-31.86.17c-1.31,0-3.5-2.39-3.68-3.86a137.83,137.83,0,0,1-.72-15.88q-.06-78.77,0-157.54c0-18.53.89-17.74-17-17.65-.67,0-1.33,0-2,0C2238.74,1137,2239.52,1143.11,2242.22,1110Z"/><path class="cls-1" d="M3268.72,279.42c5.72-27.75,19.68-53,25.3-80.38-5.37-2.8-10.1-1.49-14.67-1.85-7.78-.62-8.85-1.46-8.94-9.77q-.27-26.88,0-53.77c.07-7.68,1.81-9.5,9.29-9.57q27.87-.28,55.75,0c7.3.08,8.75,1.81,8.83,9.89.16,15.26-.12,30.53.15,45.8a38.56,38.56,0,0,1-3.87,17.26c-11.52,24.62-23.27,49.13-34.42,73.91-3.11,6.93-6.91,10.81-14.84,10C3284.12,280.17,3276.76,282,3268.72,279.42Z"/><path class="cls-1" d="M857.45,144.34c-28.34,4.06-23.37.23-23.78-19-.31-14.47.38-29-.67-44.61-6,0-10.55-.12-15.07,0-6.9.22-8.35,1.45-8.42,8-.17,15.31,0,30.61-.14,45.92-.1,10.91-.45,11.13-11.14,11.12-2,0-4,.07-6-.09-3.63-.3-6.34-1.72-6.44-5.92,0-2-.14-4-.14-6q0-59.89,0-119.78a39,39,0,0,1,.33-8c.36-1.71,1.53-4.12,2.91-4.62,5.76-2.09,11.88-1.78,17.67-.31,2.57.65,2.84,4.09,2.84,6.81,0,14,0,27.95.11,41.93.08,6.91,1.42,8.18,7.86,8.56,2,.11,4,.11,6,0,2.62-.09,5.24-.3,8.55-.5,2.87-10.43,1.21-21.06,1.69-31.51.21-4.65,0-9.32,0-14C833.86,1,834.59.32,846.2.31c10.57,0,11.19.35,11.21,11.17C857.51,55.34,857.45,99.2,857.45,144.34Z"/><path class="cls-1" d="M874.17,72c0-20.62-.1-41.23.05-61.85.06-7.93,1.64-9.63,9.06-9.73,15.3-.19,30.6-.15,45.89,0,7,.08,8.13,1.44,8.38,8,.05,1.33.05,2.66,0,4-.22,7.19-1.27,8.55-7.77,8.73-8,.22-16,0-23.94.23-6.47.2-7.75,1.62-7.94,8.55q-.27,10,0,19.95c.2,7.47,1.54,8.62,9.73,9q4,.16,8,0c14.25-.48,14.06,1.73,13.72,14.94-.13,4.93-3,6.68-7.7,7-7.21.46-16.13-3-21.24,1.88-5.89,5.69-2.3,15.17-2.43,23-.33,20.82-1.81,19.45,19.15,19.46,4,0,8-.08,12,.09,7,.3,8.15,1.36,8.53,7.92.15,2.65,0,5.32,0,8-.07,3.26-2.18,4.77-5,4.8-17.28.15-34.58.27-51.87.14-5,0-6.51-3.53-6.5-8.11,0-18,0-35.92-.06-53.87V72Z"/><path class="cls-1" d="M3139.6,477.62c-22,0-43.93.15-65.89-.05-11.66-.11-11.67-.39-11.79-12.82,0-4-.08-8,.11-12,.35-7.25,2-9,9.91-9q70.88.36,141.75,1c6.77.07,7.91,1.23,7.68,8.58-.89,28.4,4.64,24.27-23.86,24.53-19.3.18-38.61,0-57.91,0Z"/><path class="cls-1" d="M2080.71,1505.08c-7.33,0-14.66.06-22,0-15-.16-14.81-.38-14.95-16-.1-11.58,3.88-20.47,13.13-27.55,11.1-8.51,21.66-17.72,32.57-26.47,6.17-4.94,9-11,8.9-19-.1-12.6-2.56-15.64-14.66-16.07a78.85,78.85,0,0,0-8,.06c-8.42.54-10.06,1.91-12.33,10.19-.52,1.91-.64,3.94-1.11,5.87-1.73,7.07-5.43,9.25-13,7.71-3.65-.75-6.15-3-6.28-6.68-.81-22.63,8.62-32.89,27-34.95,9.27-1,18.67-1.31,27.82,1.15,11.44,3.07,18.21,10.5,19.87,22.36,2.49,17.7-.73,32.9-16.89,43.72-8.83,5.9-16.7,13.23-24.87,20.09a66.39,66.39,0,0,0-8.4,8.45,6.79,6.79,0,0,0-.93,7.42c1,2.24,3.16,2.51,5,2.55,8.66.19,17.32.14,26,.18,4,0,8-.1,12,.07,7.54.32,10.28,4.26,8.43,11.78-.71,2.85-2.37,4.87-5.32,4.91-10.66.14-21.33,0-32,0Z"/><path class="cls-1" d="M752.43,21.24V65.47c0,22.59.08,45.18,0,67.77-.07,12.67-.54,13-13.76,12.83-2,0-4-.24-6-.36a4.09,4.09,0,0,1-3.81-3.81,100.91,100.91,0,0,1-.42-11.93q-.11-45.85-.15-91.69c0-3.32-.07-6.65,0-10,0-5.11-2.9-6.89-7.53-6.85-.66,0-1.33,0-2,0-13.53-1-15.69-3.64-13.55-16.55A5.11,5.11,0,0,1,710.59.28C730.51.14,750.43,0,770.35.19c3.6,0,6,2.45,5.95,6.44,0,2.66.08,5.32,0,8-.1,3.77-1.84,6.4-5.78,6.58C765.3,21.42,760.05,21.24,752.43,21.24Z"/><path class="cls-1" d="M2715.51,854c5.42-14.92,10.27-28.49,15.29-42,3.89-10.51,6.77-12.09,17.59-10.51,3.21.47,4.55,2.53,4.56,5.33q.11,37.89,0,75.79a6.58,6.58,0,0,1-.3,2,5.46,5.46,0,0,1-5.94,4.06c-3-.12-5.21-1.73-5.37-4.62-.4-7.29-.45-14.61-.49-21.91-.07-12.39,0-24.79,0-37.51-5.44.8-5.77,4.62-6.79,7.34-3.75,9.94-7,20.07-10.66,30-1.36,3.69-3,7.32-8.11,7.48-5.89.19-8.11-3.51-9.77-8.12-2.92-8.12-5.74-16.28-8.73-24.37-1.53-4.13-2.19-8.75-6.05-11.9-3.44,2.42-2.09,5.9-2.13,8.76-.2,15.3,0,30.6-.23,45.89a13.58,13.58,0,0,1-2.31,7.26c-.83,1.17-3.5,1.06-5.35,1.45a2.39,2.39,0,0,1-3.07-1.93c-.53-1.88-1.44-3.77-1.44-5.66q-.16-35.91-.05-71.83c0-3.27.11-7.06,4.6-7.38,5.13-.36,11.34-2.36,14.54,3.19,2.94,5.09,4,11.23,6.34,16.71C2706,831.76,2707.44,843.29,2715.51,854Z"/><path class="cls-1" d="M1917,1442.2c0-17.31,0-34.63,0-51.94,0-3.33.5-7,4.45-7.92,4.49-1.09,9.29-1.93,13.27,1.29a8,8,0,0,1,2.3,5.25c.33,5.31.21,10.64.21,16,0,24.64-.17,49.28-.06,73.92,0,7.87,1.33,9,9.51,9.19,10.65.22,21.31,0,32,.2,5.11.09,7.15,2.36,7.35,7.22.27,6.52-1.65,9.49-7.06,9.55q-27,.28-53.93.06c-6.26,0-7.76-1.78-7.83-8.85-.17-18-.06-36-.06-53.94Z"/><path class="cls-1" d="M2882.42,830.85c-4,8.82-2.8,14.71-2.94,20.35-.27,10.61,0,21.24-.45,31.85-.14,3.64-2.75,5.88-6.75,5.53-3-.27-4.46-2.42-5.31-5.05a6.48,6.48,0,0,1-.19-2q0-36.84,0-73.69c0-2.79.88-5.45,3.76-6.22,3.3-.87,7.15-.56,9.05,2.42,4.62,7.27,8.61,14.94,12.91,22.42q8.43,14.64,17,29.2c.14.26,1.09,0,3.17,0,1.24-5.3.53-11.05.66-16.67.11-5.31,0-10.62,0-15.93.08-6-.09-12,.57-17.89.32-2.78,3.21-3.85,6.11-3.86,3.05,0,4.8,1.55,5.54,4.39a7.64,7.64,0,0,1,.23,2c0,24.57.09,49.13,0,73.69,0,2.5-.12,5.45-3.19,6.57-3.44,1.26-6.73.6-8.86-2.36a127.78,127.78,0,0,1-7.3-11.83C2899,860.53,2891.57,847.21,2882.42,830.85Z"/><path class="cls-1" d="M2256.63,1407.2c-9.58-.81-14,8.06-22,6.69-2.75-15.47-2.86-15.65,8.12-22.26,7.84-4.72,15.15-10.85,25.35-10.05,5.84.45,8.47,2.26,8.51,8.4.17,23.86.1,47.73.11,71.6,0,11.28.13,22.55-.07,33.82-.14,8.63-1.63,9.78-10.92,9.67-1.32,0-2.64-.13-4-.25-3.15-.29-4.64-2.35-4.8-5.21-.28-5.29-.36-10.59-.37-15.89C2256.61,1458.54,2256.63,1433.36,2256.63,1407.2Z"/><path class="cls-1" d="M3128.71,856.17c0-14.63,0-29.25,0-43.87a31.06,31.06,0,0,1,.82-7.83c.51-1.93,2.31-2.94,4.51-3,2.83-.11,5.39.44,6.39,3.32a18,18,0,0,1,.66,5.88q.07,33.92,0,67.84a40.85,40.85,0,0,1-.42,5.95c-.52,3.52-6.93,5.8-9.57,3.11a46.51,46.51,0,0,1-7-9.39c-8.25-14.42-16.25-29-24.47-43.41-.51-.9-2.08-1.48-3.24-1.64-1.7-.24-2.32.81-2.32,2.42,0,11.3-.07,22.61-.12,33.91,0,3.33.14,6.66-.07,10-.24,3.78.47,8.34-5.14,9.07-4.67.61-7.09-2.3-7.13-9.38-.12-23.28-.06-46.56,0-69.84,0-3.28,0-6.81,4.34-7.67a8.79,8.79,0,0,1,10.07,4.59c5.6,9.81,11.07,19.69,16.61,29.53C3116.76,843,3120.17,850.85,3128.71,856.17Z"/><path class="cls-1" d="M3681.2,831c0,15.51,0,28.7,0,41.89a71.62,71.62,0,0,1-.67,11.92c-.52,2.9-3.14,4-6.09,3.71-2.09-.17-3.8-1-4.59-3a10.7,10.7,0,0,1-.85-3.83q-.06-36.94,0-73.89c0-2.64.33-5.39,3.68-6s6.73-.72,8.87,2.56c2.53,3.89,4.91,7.89,7.19,11.93,7.16,12.76,14.21,25.58,21.45,38.29a3.75,3.75,0,0,0,3.25,1.28,3.54,3.54,0,0,0,2.24-2.53c.2-11.31.15-22.63.25-33.94a126.91,126.91,0,0,1,.52-13.94c.36-2.94,2.86-4.21,5.81-4s5,1.59,5.79,4.44a14.56,14.56,0,0,1,.38,4q0,35,0,69.9c0,1.33.25,2.87-.32,3.94-.88,1.64-2.09,3.49-3.65,4.3a6,6,0,0,1-7.33-1.13,43.45,43.45,0,0,1-5.74-8c-6.57-11.56-12.84-23.29-19.52-34.79C3689.62,840.08,3688.36,835.35,3681.2,831Z"/><path class="cls-1" d="M3469.77,801.54c3.32,0,6.7-.41,9.94.07,10.05,1.49,16,8.23,16.89,19a6.43,6.43,0,0,1-2.35,4.87,6.15,6.15,0,0,1-7.36,0c-1.38-1.09-2.2-3.2-2.71-5-1.74-6.19-6.26-8.14-12-8.33a68.16,68.16,0,0,0-8,.06c-7.07.61-10.13,3.28-10.9,9.25-1.17,9,1.15,13.5,8.48,15.47,6.4,1.72,13.08,2.51,19.39,4.49,15.77,4.94,22.26,25.71,12.37,38.93-1.18,1.57-2.5,3.35-4.18,4.16-13.35,6.43-27,6.61-40.24.11-6.42-3.17-8.74-9.76-8.39-16.91.13-2.68,1.05-5.16,4.27-5.72,2.8-.49,6.6,0,6.86,2.42,1.61,14.62,12,13.51,22.12,12.95,7-.39,10.06-3.15,10.85-9.19,1-7.89-1-12.68-7.07-14.58-6.32-2-13-2.92-19.33-4.75a25.78,25.78,0,0,1-15.18-38.09,18.22,18.22,0,0,1,14.57-9.24c4-.34,8-.07,11.95-.07Z"/><path class="cls-1" d="M3789.3,801.49c3.32,0,6.69-.38,9.95.07,10.29,1.4,16,7.59,17.45,18.6.38,2.9-.73,5.19-3.75,6-2.6.67-5.42,1-7.18-1.61a22.21,22.21,0,0,1-2.18-5.41c-1.45-4.35-4.77-6.16-9-6.62a58.56,58.56,0,0,0-7.94-.38c-8.66.27-12.39,2.84-13.31,8.94-1.46,9.72,1.06,14,9.92,16.31,6.43,1.64,13.11,2.45,19.38,4.53,11.91,4,15.85,11.69,14.69,27-.87,11.44-6.84,18.16-18.68,19.56-7.86.93-15.92,1.45-23.72-1-9.48-3-13.83-8.81-14.2-19.2-.09-2.74.77-5.33,3.83-6.08,2.64-.64,6.66-.51,7,2,1.71,14.21,11.7,13.89,22,13.3,7.18-.42,10.37-3,11.26-8.76,1.33-8.64-.94-13.21-8.48-15.47-6.34-1.9-13-2.76-19.33-4.73-15.92-4.93-22.58-25.42-12.86-38.94a18.16,18.16,0,0,1,13.26-7.93c3.95-.39,8-.08,11.94-.08Z"/><path class="cls-1" d="M2437.09,801.24c4.18-.09,7.94.4,9.36,5.34,7.34,25.48,14.8,50.93,22,76.46.39,1.39-1,4.18-2.29,4.93-2.22,1.25-5.49,1.5-7.25-.76a21.06,21.06,0,0,1-4.33-8.72c-1.46-8.4-6.54-10.52-14.15-9.81a78,78,0,0,1-11.94,0c-5.5-.32-8.67,2.24-10.29,7.29-1.2,3.72-1.09,8-4.39,10.86-2.18,1.89-5,2.44-7.28,1.13-1.31-.75-2.07-3.22-2.24-5a16.46,16.46,0,0,1,1-5.85c6.41-22.3,12.81-44.61,19.36-66.87C2427.15,801.63,2428.21,801.05,2437.09,801.24Z"/><path class="cls-1" d="M1889.45,1445.06c0,16,.11,32,0,47.94-.1,10.9-1,12-8.43,12.1-10.34.17-11.4-.92-11.54-13.27-.15-14.65-.1-29.3-.11-43.94,0-18.64-.14-37.29.06-55.93.1-8.86,8.58-13.63,16.63-9.56,2.57,1.29,3.32,4,3.35,6.74.08,10,.07,20,.08,30Q1889.47,1432.08,1889.45,1445.06Z"/><path class="cls-1" d="M2553.91,837.66c0,10,.36,20-.09,29.9-.59,13.18-6.38,19.56-19.27,20.94a79.43,79.43,0,0,1-19.85-.34c-10.6-1.57-16.88-8.1-17.18-18.8-.57-20.58-.17-41.19-.16-61.78a6.54,6.54,0,0,1,.21-2c.88-2.85,2.92-4.15,5.85-4.25s5.44,1.24,5.62,4.17c.44,7.29.4,14.6.46,21.91.11,13.29-.1,26.58.33,39.86.21,6.66,3.49,9.59,10,10.05a83.48,83.48,0,0,0,11.94,0c6.58-.49,9.32-3.14,9.44-10.33.3-17.94.12-35.88.25-53.82,0-3.23-1-6.88,1.61-9.49a9.49,9.49,0,0,1,5.09-2.16c1.95-.3,4.24.34,4.73,2.51a48.93,48.93,0,0,1,1.1,9.73c.14,8,0,16,0,23.92Z"/><path class="cls-1" d="M3336.38,870.31c4.29-17.37,8.54-34.74,12.88-52.09a128.19,128.19,0,0,1,3.87-13.39c1.41-3.82,5.06-3.6,8.37-3.4a3.67,3.67,0,0,1,3.77,3.59,19.06,19.06,0,0,1-.68,5.91c-6.35,23-12.7,46.07-19.23,69.06-2.2,7.74-3.86,8.71-10.86,8.89-5.34.13-8.66-1.75-10.11-7.3-3.53-13.48-7.51-26.85-11.19-40.29-3-10.88-5.84-21.79-8.65-32.72-.87-3.36-1-6.71,3.75-7.11,3.37-.29,6.9-.12,8.24,3.7,1.53,4.38,2.64,8.91,3.75,13.42,3,12.25,5.87,24.54,8.95,36.77,1.28,5.1,3,10.1,4.51,15.14Z"/><path class="cls-1" d="M2154.22,255.78c0-18.66-.21-37.33-.36-56,0-3.79-1.68-6.37-5.83-6.38-35.32-.06-70.65-.15-106-.06-6.62,0-7.76,1.38-8.74,8.25q-10,70.22-19.87,140.46c-8.55,61.35-16.67,122.77-25.62,184.06-1.91,13.12-1.62,26.7-6.66,39.31a4.3,4.3,0,0,0-1.79,4.51c-.66-1.58-.61-3.42-1.77-4.82-1.5-9.87-3.1-19.73-4.5-29.62q-9.27-65.28-18.43-130.56c-6-42.87-11.76-85.77-17.73-128.64-3.4-24.39-7-48.76-10.54-73.14-1.2-8.36-.79-9.95-11.15-9.94-29.33,0-58.65-.13-88,0-25.51.12-22.24-3.11-22.25,22.18q-.06,245.93.09,491.85,0,8,.14,16c.06,4,2.3,6,6.15,6.07q24,.16,48,.14c20.07,0,18.51,1.91,18.52-17.87q.06-179,.1-357.89V334.56c2.43.19,3,1.11,3.25,2.73,20.23,130.12,40.49,260.24,61,391.76,21.32.82,42.54.36,63.74.27,5.11,0,6.35-3.41,7-7.78,7.79-51.35,15.74-102.67,23.55-154q11.57-76,22.91-152.07c3.61-24.36,6.83-48.77,10.23-73.16a12.35,12.35,0,0,1,1.25-11.39,5.3,5.3,0,0,1,2.87-2.32c2.86-.7,3.12,1.84,3.27,3.57.41,4.62.62,9.27.62,13.9q.12,189.17.13,378.33c0,1.32-.23,2.64-.35,4,19.24,2.53,38.56.79,57.84,1,20.21.28,18.63,2,18.65-17.66Q2154.1,483.75,2154.22,255.78Z"/><path class="cls-1" d="M2567.86,343.8c0-46.62-.29-93.25-.57-139.87-.06-9.7-.93-10.59-10-10.63q-50-.17-99.92,0c-9.22,0-10.22,1-11.47,10-2.29,16.48-4.27,33-6.6,49.47q-10.92,77.09-22,154.15-10.38,73.14-20.67,146.29c-1.31,2.14-1.46,5.17-3.06,6.7-3.9,3.74-1.88-3.07-4.18-2.75-2.87-19.75-5.82-39.49-8.59-59.25-5.81-41.51-11.46-83-17.28-124.55q-11.37-81-22.9-162.07c-.83-5.84-.7-11.95-5.28-18.06h-15.11c-26.64,0-53.27-.1-79.91,0-25.68.14-22.67-3-22.68,21.88q-.15,230.74-.12,461.49c0,12.65,0,25.3.1,38,.13,14.62.18,14.78,13.79,14.83,19.31.06,38.62-.13,57.93-.21.42-10.6,1.19-21.2,1.2-31.8q.14-165.73.06-331.46c-.68-3.09-1.47-6.41,0-8.93v-4.39c0-4.65.18-9.3.1-13.94,0-1.74.42-2.86,2-2.62,1,.16,2.55.9,2.78,1.69,1.52,5.1,2.41,10.32,1.38,15.67h0c1.4,7.18,3,14.32,4.14,21.55,4.71,30.93,9.21,61.9,13.89,92.84q11,73.08,22.21,146.16,8.24,54.32,16.24,108.68c.74,5.05,3.55,6.79,8,6.8,18,.06,36,0,54,.06,10.58,0,9.62-2.13,10.85-10.23,6.09-40.16,12.47-80.27,18.56-120.42q11.39-75,22.46-150.13,7.33-49.39,14.46-98.82c2.18-4.08.12-9.14,2.67-12.91,1.34-2-.19-4.87,2.49-6.07,0,2.5-.11,5,1.58,7.14q0,185.85,0,371.7c0,4-.1,8,.06,12,.26,6.54,1.31,7.63,8.56,7.69,17.31.14,34.63.06,51.95.06,19.8,0,18.61,1.53,18.63-18Q2567.69,527.65,2567.86,343.8Z"/><path class="cls-1" d="M2970.77,812.92c-4.22-.36-8.83-.6-13.38-1.21a5.42,5.42,0,0,1-4.93-5.28,4.49,4.49,0,0,1,4.74-5q21.87-.2,43.73,0c2.91,0,5,1.81,5,4.85a5.37,5.37,0,0,1-4.68,5.5c-3.25.52-6.61.28-9.91.58-3.85.35-5.8,2.6-5.82,6.49,0,4.64-.11,9.28-.11,13.91,0,14.58.07,29.16-.07,43.74a45.24,45.24,0,0,1-1.28,9.67c-.53,2.25-2.86,2.6-4.78,2.54s-4.34.08-4.94-2.31a41.36,41.36,0,0,1-1.49-9.59c-.15-16.57,0-33.14-.11-49.7C2972.72,822.46,2973.68,817.72,2970.77,812.92Z"/><path class="cls-1" d="M3033.89,845c0-11.91,0-23.83,0-35.74,0-4.3,1.34-7.74,6.44-8.19,4.44-.39,7.31,2,7.34,7.11.14,24.49.06,49,0,73.46a7.66,7.66,0,0,1-.25,2c-1,3.59-3.12,5.68-7,5.39s-6-2.67-6.25-6.29c-.36-5.27-.32-10.58-.36-15.87,0-7.28,0-14.56,0-21.84Z"/><path class="cls-1" d="M3407.9,846.57c0,10.59.09,21.18-.07,31.77a18.28,18.28,0,0,1-1.52,7.6c-.68,1.42-2.88,2.6-4.58,2.91-2.64.49-5.38-.18-6.5-3.13A16.67,16.67,0,0,1,3394,880q-.13-34.75,0-69.49a19.31,19.31,0,0,1,.89-5.81c.95-2.91,3.45-3.7,6.24-3.67s5.55,1,6,3.93a99,99,0,0,1,.86,13.78c.12,9.27,0,18.53,0,27.8Z"/><path class="cls-1" d="M3544.63,844.71c0,10.57,0,21.13,0,31.7a38.08,38.08,0,0,1-.58,7.86c-.61,2.84-2.91,4.25-5.73,4.46s-5.15-1.16-5.79-4a36.7,36.7,0,0,1-.7-7.85q-.06-32.69,0-65.37c0-1.31.06-2.63.16-4,.28-3.67,1.83-6.24,5.93-6.17,3.71.06,6.31,1.68,6.49,5.74s.24,7.91.25,11.87C3544.66,827.54,3544.63,836.13,3544.63,844.71Z"/><path class="cls-1" d="M2827.77,877.42q-13.38-.07-26.75-.18h0c-1.53-9-2.07-18,.5-27.74,8.42,0,15.65.1,22.88,0,2.81-.06,5-1.43,5.11-4.66.08-3-1.53-5.47-4.26-5.75-5.92-.6-11.91-.52-17.87-.6-4.67-.06-7.5-1.88-7.4-7,.1-4.64.07-9.28.24-13.91.11-3,1.83-4.92,4.9-5,7.94-.3,15.91-.26,23.85-.73,2.85-.17,4.72-2.48,4.88-5.35a4.58,4.58,0,0,0-4.72-5.12c-10.61-.23-21.23-.33-31.84-.19-9.64.12-10.59,1-10.74,10-.21,13.27-.3,26.55,0,39.81.95,47.68-8.08,36.75,40.66,38a8.1,8.1,0,0,0,3.85-.76c2.81-1.48,2.66-4.1,2.13-6.75C2832.62,878.32,2830.53,877.44,2827.77,877.42Z"/><path class="cls-1" d="M2642.57,848.13c-.07-3.5-2.23-6.18-6.31-6.19-5.31,0-10.63-.17-15.91.19a4.37,4.37,0,0,0-3.9,3.83,5.71,5.71,0,0,0,3.05,6.53,8.16,8.16,0,0,0,3.87.56c5.15-.14,6.82,2.71,6.85,7.4,0,6,.05,12-4.49,16.8l-21.42.16h0c-3.69-3.38-4.89-7.7-4.88-12.56,0-9.29,0-18.58,0-27.88,0-5.3-.07-10.63.34-15.91.25-3.34,1.63-6.53,5.25-7.68a32.8,32.8,0,0,1,19.61,0c5.64,1.69,4.62,7.36,6.21,11.46a8.27,8.27,0,0,0,1.09,1.65c1.81,2.58,4.66,2.78,7,1.89a6.2,6.2,0,0,0,3.21-4.43c1.15-13.72-5.39-21.65-18.81-22.66a113.79,113.79,0,0,0-17.9,0c-11.55,1-17.87,7-18.7,19.3-.89,13.21-.63,26.53-.45,39.8.31,22.32,6.63,28.53,28.57,28.35a56.49,56.49,0,0,0,13.75-1.48c7.71-2,12.81-7.08,13.36-15.38C2642.52,864.05,2642.73,856.07,2642.57,848.13Z"/><path class="cls-1" d="M3230.57,848.13c-.07-3.5-2.23-6.18-6.31-6.19-5.31,0-10.63-.17-15.91.19a4.37,4.37,0,0,0-3.9,3.83,5.71,5.71,0,0,0,3.05,6.53,8.16,8.16,0,0,0,3.87.56c5.15-.14,6.82,2.71,6.85,7.4,0,6,.05,12-4.49,16.8l-21.42.16h0c-3.69-3.38-4.89-7.7-4.88-12.56,0-9.29,0-18.58,0-27.88,0-5.3-.08-10.63.33-15.91.26-3.34,1.64-6.53,5.26-7.68a32.8,32.8,0,0,1,19.61,0c5.64,1.69,4.62,7.36,6.21,11.46a8.27,8.27,0,0,0,1.09,1.65c1.81,2.58,4.66,2.78,7,1.89a6.2,6.2,0,0,0,3.21-4.43c1.15-13.72-5.39-21.65-18.81-22.66a113.79,113.79,0,0,0-17.9,0c-11.55,1-17.87,7-18.7,19.3-.89,13.21-.63,26.53-.45,39.8.31,22.32,6.63,28.53,28.57,28.35a56.49,56.49,0,0,0,13.75-1.48c7.71-2,12.81-7.08,13.36-15.38C3230.52,864.05,3230.73,856.07,3230.57,848.13Z"/><path class="cls-1" d="M3836.23,533.67c0-72,.17-144-.1-215.95-.09-26.13-3.81-51.74-14.77-75.88-12.92-28.48-34.45-47.06-64.63-54.92a127.36,127.36,0,0,0-39.63-4c-53.49,3.19-87.72,31.91-100.44,83.94a171.56,171.56,0,0,0-5.12,39.54c-.3,40-.41,80,0,120,.23,22.09,3.88,43.67,12.79,64.22,13.46,31.06,41.81,49.4,81,44,19-2.62,33.71-11.63,44.64-27.16,1.91-2.72,3.54-5.64,5.41-8.39,1.32-2,2-5.13,6.43-3.05,0,34.15.07,68.73-.06,103.31a156.32,156.32,0,0,1-1.41,19.93c-1.06,7.94-3.13,15.69-7.35,22.64-11.1,18.29-42.73,22-57.83,6.83-5.78-5.83-8.86-13.07-10.61-21.09-2.58-11.8-2.39-23.81-3.4-37.83-21.69,0-41.61,0-61.53,0-3.74,0-6.4,1.63-6.54,5.7-1.14,31.8,3.19,62.51,19.15,90.65,12.81,22.58,32.13,36.93,57.15,43.61,20.32,5.43,40.85,5.51,61.4,1.62,36.58-6.93,60.68-28.61,73.65-63.11a149.32,149.32,0,0,0,4.64-15.27,231.12,231.12,0,0,0,7-55.34C3836.4,576.33,3836.23,555,3836.23,533.67Zm-74.84-173.88h-.12q0,27,0,54a62.45,62.45,0,0,1-5.09,25.29c-6,13.84-17.37,19.65-31.84,19.9-15.2.27-27.45-5.18-33.79-19.93a63.4,63.4,0,0,1-5.37-25.23q.06-55,0-109.92a60.54,60.54,0,0,1,3.59-19.56c5.68-16.8,16.76-24.69,34.52-24.7s28.63,7.93,34.62,24.62c2.76,7.7,3.37,15.6,3.42,23.6C3761.46,325.14,3761.39,342.47,3761.39,359.79Z"/><path class="cls-1" d="M1889.35,1270.92q.06-32,0-64,0-34,0-68a144.11,144.11,0,0,0-.51-16c-2.8-24.52-18.09-42.45-41.65-47.86a82,82,0,0,0-39.56.55c-20.66,5.46-33,19.19-38.21,39.46a102.54,102.54,0,0,0-2.91,25.74q.15,64-.23,127.95a115.69,115.69,0,0,0,2.44,23.78c4.73,23.3,18.73,37.76,41.66,43.23a78,78,0,0,0,37.59-.46c25.36-6.38,38-25.43,41-48.49C1889.6,1281.63,1889.34,1276.24,1889.35,1270.92Zm-40.69-3.31c0,5.3,0,10.7-1,15.87-2,10.5-9.36,16.34-19.52,16.3-10.5,0-17.23-5.68-19-16.55a99.14,99.14,0,0,1-1.18-15.87q-.14-61.75,0-123.5a102.29,102.29,0,0,1,1.38-17.84c1.71-9.47,8.61-15,18.07-15.4s17.08,4.57,19.43,13.79c1.46,5.69,1.75,11.79,1.81,17.71.2,21.25.08,42.49.08,63.74C1848.7,1226.44,1848.76,1247,1848.66,1267.61Z"/><path class="cls-1" d="M3220.73,533.11c-3.6-16.5-15.72-31.71-38-31.59-13.31.07-26.61,0-39.91,0v-.48H3122.9c-7.31,0-14.63.12-22,0-21.09-.46-34.56,11.73-39.39,32.36a88.48,88.48,0,0,0,0,39.62c4.45,20,17.13,30.86,38,31.46q40.88,1.17,81.8.67c21.68-.25,34.93-11.47,39.42-32.37A93.12,93.12,0,0,0,3220.73,533.11ZM3185.62,570c-7.3.45-14.65.25-22,.2-22-.14-44-.38-66-.51-6.65,0-11.54-2.47-13.84-9.11-2.58-7.47-2-14.69,3.06-20.7,1.88-2.23,5.72-3.42,8.83-3.86,5.24-.73,10.62-.59,15.94-.63,10-.08,20,0,30,0v1.18c14.65,0,29.32-.33,44,.12,9.16.28,14.1,6.18,14.51,15.61C3200.57,562.52,3195.15,569.45,3185.62,570Z"/><path class="cls-1" d="M3221.41,386.67c.17-10.65.13-21.34-.61-32-.8-11.57-4.65-22.08-13.64-30.16-7.46-6.71-16.51-8.17-26-8.24q-39-.29-78-.48c-2,0-4,.15-6,.3-15.83,1.2-25.66,10.07-30.72,24.57a81.7,81.7,0,0,0-4,25.57c-.23,14-.44,28-.44,42,0,8.34,1,9.51,8.91,9.57,23.33.16,46.66.05,70,.05v.91c16,0,32,.49,48-.17,10.36-.43,21.09,3.09,31.08-2.29C3222.46,406.54,3221.24,396.56,3221.41,386.67Zm-23.29-12.56c-.17,9.22-1.2,10.45-10,10.53-15.23.14-30.46,0-45.68,0v-.56c-16.56,0-33.11.06-49.66,0-4.55,0-7.4-2.24-7.38-7.2,0-1.32-.07-2.64-.07-4,0-19.12,3.76-23.07,23.28-23.12,22.51-.05,45,.23,67.54.39a72.21,72.21,0,0,1,7.93.23c9.21,1.1,13,4.87,13.89,13.78A84.14,84.14,0,0,1,3198.12,374.11Z"/><path class="cls-1" d="M3115.83,248.15l.55.56A2.25,2.25,0,0,0,3115.83,248.15Z"/><path class="cls-1" d="M3196.15,224.47c3.15-1,6.35-2.28,9.6-2.53,19.31-1.47,16.54-5.7,16.63-20,0-4.57.91-9.3-2.53-15.85-40.49,8.84-80.76,17.49-120.95,26.5-11.44,2.57-23.76,2.15-33.94,9.35-2.27,11.87-.54,23.88-1.28,35.79-.38,6,3,8.29,7.93,9.45q17.47,4.13,35,8.12c37.55,8.58,75.1,17.12,113.08,25.78,3.18-9.06,2.26-17.65,1.84-26.16-.14-2.88-2-4.5-4.95-5.3-8.16-2.2-17.1-1.89-24.29-7.33q-.24-12.91-.47-25.84c0-2,0-4,.1-6A6,6,0,0,1,3196.15,224.47Zm-26.87,32.47c-10.31,2.8-18.87-1.46-27.63-3-8.46-1.48-16.83-3.45-25.24-5.2-6.84,1-12.63-1.43-18.38-5.16,3.75-2.76,7.47-2.76,11.31-2.07h0a2.45,2.45,0,0,1,3-.44h0c5.15-3.52,10.88-4.15,16.89-3.4l37.83-8.11C3171.08,238.81,3168.88,247.67,3169.28,256.94Z"/><path class="cls-1" d="M1845.18,1496.12c-4.7-10.26-9.44-20.52-14.52-30.6-2.87-5.7-2.28-9.42,3.4-13.27,7.66-5.21,10.41-13.51,10.63-22.58.13-5.32-.07-10.64,0-16,.42-17.92-10-31.28-30.52-31.87-12.63-.37-25.27-.31-37.91-.12-8.82.12-10.7,1.81-10.74,10.46q-.19,51.88.12,103.77c0,7.42,2,8.91,9.76,9.11,8,.22,9.75-1.07,9.94-8.53.28-10.63.12-21.28.44-31.91a6.78,6.78,0,0,1,2.59-4.95c6.2-3.68,17.44-.51,20.53,5.75,5.28,10.72,10.42,21.52,15.3,32.43,2.16,4.82,5.22,7.53,10.61,7.21l12.56-.76C1846.55,1501,1846.23,1498.4,1845.18,1496.12Zm-22-61.19c-.86,4.08-4.63,6.38-9,6.58-5.93.28-11.88.39-17.82.29-10.77-.18-10.78-.26-11-11.26-.07-3.3,0-6.61,0-9.91h0c0-4-.13-7.93,0-11.89.28-7.43,1.61-8.6,9.66-8.94a45.44,45.44,0,0,1,6,0c7,.62,15.57-2.43,20.3,4.54C1827.72,1413.73,1825.34,1424.64,1823.17,1434.93Z"/><path class="cls-1" d="M2376.63,1409.88c-.63-15.41-8.78-24.67-23.9-27.29a91.41,91.41,0,0,0-29.8-.11c-14.62,2.3-22.88,10.12-24.67,24.63a117.15,117.15,0,0,0,0,27.82c1.73,14.51,10.21,22.42,24.64,24.64a89.35,89.35,0,0,0,11.93.55c5.32.11,10.64,0,16,.14,3.72.09,6.24,1.72,6.33,5.84,0,2,.16,4,0,6-.7,12-3.85,15.46-15.62,16-9.29.38-18.61,0-27.92.16-7.71.17-9.32,1.53-9.61,7-.38,7.19,1.65,9.66,8.84,9.78,11.3.19,22.6.28,33.9,0,19.67-.44,29.32-9.87,29.94-29.34.34-10.62.06-21.27.06-31.91C2376.72,1432.48,2377.09,1421.16,2376.63,1409.88Zm-37.43,32.33c-19.29,0-21.2-2.18-21-21.9a73.58,73.58,0,0,1,.45-9.86c.88-6.06,4.3-9.42,10.2-10.26a62.91,62.91,0,0,1,7.89-.43c17.42-.24,20.2,2.56,20.51,20.62,0,1.32,0,2.63,0,3.95C2357.19,1444.08,2359.11,1442.27,2339.2,1442.21Z"/><path class="cls-1" d="M2217,1476.71c-.5-10.63-.09-21.31-.09-32h0q0-16,0-32c0-1.33,0-2.66-.07-4-1.12-14.38-8.82-23.38-23-26.07a94.72,94.72,0,0,0-29.87-.42c-17.13,2.22-25.87,11.77-26.3,29.47-.49,20-.09,40-.08,60,0,2-.07,4,.11,6,1.47,17,11.31,26.64,28.27,27.33,7.32.3,14.71-.5,22,.17C2203,1506.58,2217.79,1493.59,2217,1476.71Zm-19.64-54.87c-.22,7.32,0,14.66,0,22h-.13c0,10.66.27,21.33-.09,32-.24,7.14-4,10.9-10.93,12a55.5,55.5,0,0,1-8,.41c-16.68.19-20.49-3.1-20.78-19.19-.3-16.66-.17-33.32,0-50a48.53,48.53,0,0,1,1.78-11.7,8.56,8.56,0,0,1,6.89-6.44,52.51,52.51,0,0,1,7.9-1C2195.89,1399,2197.93,1403.14,2197.37,1421.84Z"/><path class="cls-1" d="M1645.38,1493.35q-11.33-40.17-22.83-80.3c-2.36-8.28-4.49-16.63-7.1-24.83-1.29-4-4.28-6.6-8.93-6.47-2,0-4-.07-6-.07-13.32,0-13.74,0-17.67,13.57-9.63,33.09-19,66.24-28.47,99.38a20.3,20.3,0,0,0-.84,5.83,4.46,4.46,0,0,0,1.63,3.21c6.66,4.35,15.54.64,18.85-6.86,2.64-6,1.1-14.85,7.47-17.71,5.6-2.52,12.91-1.29,19.47-1.56,4-.16,8,.21,12-.07,5.63-.4,8.47,2.33,9.75,7.5,1,3.86,2,7.69,3.3,11.46,2.72,8.18,3.51,8.64,13.12,8.64,2.67,0,5.3-.14,7.32-2.16C1648,1499.49,1646.25,1496.42,1645.38,1493.35Zm-61.06-33.16c4.41-17.21,8.67-33.8,12.92-50.39h0c-.56-2-.55-4,1.36-5.17,2.1-1.21,3.65.29,4.76,1.93a8.48,8.48,0,0,1,1.17,7.52c2.16,15.64,9.65,30.07,11,46.51C1605.1,1461.91,1595.34,1462.23,1584.32,1460.19Z"/><path class="cls-1" d="M1744.63,1413.14c-1-20.43-10.49-30.21-31.24-31.27-13.29-.68-26.65-.31-40-.1-6.24.1-8.16,2.1-8.23,8.71-.2,17.32-.07,34.65-.07,52h0v26c0,8.66-.13,17.33,0,26,.2,9.46,6.94,13.67,16,9.88a7.08,7.08,0,0,0,3.3-4.38c.64-2.53.42-5.28.53-7.94q.6-13.86,1.18-27.73c9.31-5.46,19.43-1.8,29.15-2.46,17.4-1.18,27.23-9.55,29.07-26.7A143.81,143.81,0,0,0,1744.63,1413.14Zm-20.21,18.16c-.74,8.75-5,12.55-14.08,13.58a49,49,0,0,1-5.94.18c-20.64-.15-19.38,2.16-19.34-19v-7.93c0-19.88-1.34-18.39,17.92-18.46,2.64,0,5.3-.06,7.92.19,9.33.87,12.88,4.2,13.59,13.61A112.66,112.66,0,0,1,1724.42,1431.3Z"/><path class="cls-2" d="M801.41,1767.08c-13.61-12.73-29.72-20-48.93-11.7h0c-34.92,6.85-47.12,50.8-26.35,76.93,9.79,12.33,21.07,23.49,31.67,35.18h0l3.35,3.7h0l.22.24h0c1.69,3.47,4.66,5.76,7.6,2.51,13.37-14.77,26.57-29.72,39.27-45.06,3.26-3.93,5.22-9.34,6.57-14.4C819.71,1796.16,814.9,1779.7,801.41,1767.08Zm-7.81,35.57c-.77,11.76-11.28,24.57-26.55,24.85-3.32.06-6.65-.08-10-.12-3.17-2.29-6.64-4.26-9.47-6.91-14.25-13.36-13-32.44,2.92-43.78,3.17-2.26,7-3.61,10.47-5.39,3.31.29,6.72.15,9.91.93C786.73,1776.07,794.61,1787.14,793.6,1802.65Z"/><path class="cls-1" d="M3635,821c-.81-13.07-7.47-18.85-20.56-19.65a133.12,133.12,0,0,0-16,0c-13.76.83-20.14,7.27-21,21.44-.43,7.31-.08,14.65-.08,22h0c0,8-.48,16,.11,24,.87,11.74,7.08,18.42,18.75,19.69a87.4,87.4,0,0,0,21.86-.36c10.11-1.46,15-7.08,16.67-17.17a49.09,49.09,0,0,0,.52-8C3635.35,848.9,3635.86,834.88,3635,821Zm-13.16,23.44h-.3c0,7.91.29,15.84-.1,23.74-.27,5.48-3.38,8.17-8.78,8.84-1.3.16-2.63.15-3.95.2-15.53.54-18.18-1.91-18.4-18-.17-11.88-.23-23.77.25-35.63.32-7.71,3.43-10.18,11.27-10.7,1.31-.09,2.63-.07,4-.08,14.14-.13,15.68,1.35,16,15.77C3622,833.82,3621.84,839.11,3621.84,844.39Z"/><path class="cls-1" d="M2434.81,817.15c8.49,13,9.72,26.18,13,39-2.42.65-4.28,1.56-6.16,1.6-17.33.31-19.75,1.91-13.71-16.22C2430.43,834.13,2432.2,826.53,2434.81,817.15Z"/><path class="cls-1" d="M1998.64,1209.65c7.48-.67,12.09-.75,16.52-1.68,1.41-.29,3.2-2.81,3.25-4.36s-1.8-4.22-3.06-4.37c-5.87-.68-11.82-.64-17.75-.89-12.49-.53-20.67-9.06-20.64-21.5,0-5.16,3.12-9,7.93-9.74,5-.78,9.47,1.39,11.2,6,.92,2.42.47,5.4,1.55,7.71a5.89,5.89,0,0,0,4.62,2.67,5.38,5.38,0,0,0,5.27-5c.35-8.89-4.32-16.71-11.13-19.47-16.73-6.78-31.27,3.54-30.31,21.55a11.2,11.2,0,0,0,.57,3.91c2.15,4.68,1.5,8-2.41,12.06-8.23,8.64-7.11,19.38-3.93,29.9a13.84,13.84,0,0,0,11.45,9.95c8.41,1.23,17.23,3,25.12-2.11,3.94-2.56,7.06-2.6,10.56.72,1.29,1.22,3.52,1.7,5.41,2a4.3,4.3,0,0,0,3.39-1.28,3.64,3.64,0,0,0,.32-3.41C2011.37,1225.45,2006,1218.83,1998.64,1209.65Zm-8.56,16.87a19.81,19.81,0,0,1-3.68,1.27c-13.11,1.81-18.29-2.86-17.76-16a35.42,35.42,0,0,1,.45-3.88c.55-2.54,1.06-5.15,3.92-6.26s5.21.07,6.93,2q6.51,7.29,12.53,15C1994.79,1221.68,1993.5,1225.31,1990.08,1226.52Z"/><path class="cls-1" d="M874.93,1843.64l3.77-10.2a9.56,9.56,0,0,0,7.64,3.84c5.29,0,8.59-2.88,8.59-9.6V1767h12.23v61.31c0,14-7.88,20.16-19.53,20.16A18,18,0,0,1,874.93,1843.64Z"/><path class="cls-1" d="M915.62,1840.76l5.53-9.84a16.06,16.06,0,0,0,12.46,6.36c5.06,0,8.82-4.2,8.82-10.32,0-16-24.69-16.43-24.69-40.07,0-11.76,7.76-21.24,20.23-21.24a22.17,22.17,0,0,1,15.75,6.12l-4.93,9.6a13.87,13.87,0,0,0-10.47-4.56c-4.59,0-8.12,3.72-8.12,9.48,0,13.8,24.7,16.08,24.7,40,0,12.84-8.11,22.2-20.58,22.2C926.44,1848.44,920.21,1845.8,915.62,1840.76Z"/><path class="cls-1" d="M960.07,1840.76l5.53-9.84a16.07,16.07,0,0,0,12.47,6.36c5,0,8.82-4.2,8.82-10.32,0-16-24.7-16.43-24.7-40.07,0-11.76,7.76-21.24,20.23-21.24a22.21,22.21,0,0,1,15.76,6.12l-4.94,9.6a13.85,13.85,0,0,0-10.47-4.56c-4.59,0-8.11,3.72-8.11,9.48,0,13.8,24.69,16.08,24.69,40,0,12.84-8.11,22.2-20.58,22.2C970.89,1848.44,964.66,1845.8,960.07,1840.76Z"/><path class="cls-1" d="M1056.15,1847l-2.7-16.32h-15.53l-2.7,16.32h-12.59l16-80h14.11l16,80Zm-10.47-65.75-6.35,38.39H1052Z"/><path class="cls-1" d="M1072.61,1807.05c0-23.64,6.71-41.4,22.82-41.4,11.52,0,15.76,9.24,18.23,17.4l-9.88,3.72c-1.77-6.12-3.77-10-8.35-10-7.53,0-10.23,12.84-10.23,30.24s2.7,30.23,10.23,30.23c5.17,0,7.29-5.16,8.47-11.88l10,3.72c-2.11,9-6.58,19.32-18.46,19.32C1079.32,1848.44,1072.61,1830.56,1072.61,1807.05Z"/><path class="cls-1" d="M1150.7,1847l-2.7-16.32h-15.53l-2.7,16.32h-12.59l16-80h14.11l16,80Zm-10.47-65.75-6.35,38.39h12.7Z"/><path class="cls-1" d="M1170.34,1847v-80h17.52c17.76,0,25.05,17.16,25.05,40.08,0,23.15-7.17,40-24.93,40Zm30-40c0-18.12-3.88-29-12.47-29h-5.29v58h5.29C1196.56,1836,1200.33,1824.8,1200.33,1807.05Z"/><path class="cls-1" d="M1223.84,1847v-80H1256v11h-19.87v22.68h19.05v11h-19.05V1836H1256v11Z"/><path class="cls-1" d="M1311.1,1847v-51l-13.87,51h-4.35l-13.65-51v51H1267v-80h15.88l12.23,44.76,12.47-44.76h15.64v80Z"/><path class="cls-1" d="M1347.56,1847v-33.47L1329.45,1767h13.17l11.05,34.2,11.17-34.2h12.94l-18,46.56V1847Z"/><path class="cls-1" d="M1401.3,1807.05c0-23.16,6.47-41.4,22.7-41.4s22.81,18.24,22.81,41.4-6.59,41.39-22.81,41.39S1401.3,1830.32,1401.3,1807.05Zm32.93,0c0-16.92-2.59-30.24-10.23-30.24s-10.12,13.32-10.12,30.24c0,16.67,2.59,30.23,10.12,30.23S1434.23,1823.72,1434.23,1807.05Z"/><path class="cls-1" d="M1457.75,1847v-80h32.1v11H1470v22.68h19v11h-19V1847Z"/><path class="cls-1" d="M1527.84,1847v-69h-12.12v-11h36.46v11h-12.11v69Z"/><path class="cls-1" d="M1561,1847v-80h32.1v11h-19.87v22.68h19v11h-19V1836h19.87v11Z"/><path class="cls-1" d="M1601.69,1807.05c0-23.64,6.7-41.4,22.81-41.4,11.52,0,15.76,9.24,18.23,17.4l-9.88,3.72c-1.76-6.12-3.76-10-8.35-10-7.53,0-10.23,12.84-10.23,30.24s2.7,30.23,10.23,30.23c5.17,0,7.29-5.16,8.47-11.88l10,3.72c-2.11,9-6.58,19.32-18.46,19.32C1608.39,1848.44,1601.69,1830.56,1601.69,1807.05Z"/><path class="cls-1" d="M1681.42,1847v-35.63h-16.58V1847H1652.6v-80h12.24v33.36h16.58V1767h12.34v80Z"/><path class="cls-1" d="M1736.57,1847l-17.29-46.31V1847h-12.23v-80h12.23l16.58,45v-45h12.35v80Z"/><path class="cls-1" d="M1761.5,1847v-80h12.23v80Z"/><path class="cls-1" d="M1784.67,1807.05c0-23.64,6.7-41.4,22.81-41.4,11.53,0,15.76,9.24,18.23,17.4l-9.88,3.72c-1.76-6.12-3.76-10-8.35-10-7.52,0-10.23,12.84-10.23,30.24s2.71,30.23,10.23,30.23c5.18,0,7.29-5.16,8.47-11.88l10,3.72c-2.11,9-6.58,19.32-18.46,19.32C1791.37,1848.44,1784.67,1830.56,1784.67,1807.05Z"/><path class="cls-1" d="M1862.75,1847l-2.7-16.32h-15.53l-2.7,16.32h-12.58l16-80h14.11l16,80Zm-10.46-65.75-6.35,38.39h12.7Z"/><path class="cls-1" d="M1882.39,1847v-80h12.23v69h19.88v11Z"/><path class="cls-1" d="M1943.31,1847v-80h32.1v11h-19.87v22.68h19v11h-19V1836h19.87v11Z"/><path class="cls-1" d="M1986.46,1847v-80H2004c17.75,0,25,17.16,25,40.08,0,23.15-7.18,40-24.94,40Zm30-40c0-18.12-3.88-29-12.46-29h-5.3v58h5.3C2012.69,1836,2016.45,1824.8,2016.45,1807.05Z"/><path class="cls-1" d="M2040,1824.92v-58h12.23v58.55c0,8.76,3.29,11.88,8.35,11.88s8.35-3.12,8.35-11.88V1767h12.23v58c0,16.44-9.52,23.52-20.58,23.52S2040,1841.36,2040,1824.92Z"/><path class="cls-1" d="M2092.07,1807.05c0-23.64,6.7-41.4,22.81-41.4,11.53,0,15.76,9.24,18.23,17.4l-9.88,3.72c-1.76-6.12-3.76-10-8.35-10-7.53,0-10.23,12.84-10.23,30.24s2.7,30.23,10.23,30.23c5.18,0,7.29-5.16,8.47-11.88l10,3.72c-2.11,9-6.58,19.32-18.46,19.32C2098.77,1848.44,2092.07,1830.56,2092.07,1807.05Z"/><path class="cls-1" d="M2170.15,1847l-2.7-16.32h-15.53l-2.7,16.32h-12.59l16-80h14.11l16,80Zm-10.47-65.75-6.35,38.39H2166Z"/><path class="cls-1" d="M2193.91,1847v-69h-12.12v-11h36.46v11h-12.11v69Z"/><path class="cls-1" d="M2227.07,1847v-80h12.23v80Z"/><path class="cls-1" d="M2250.23,1807.05c0-23.16,6.47-41.4,22.7-41.4s22.82,18.24,22.82,41.4-6.59,41.39-22.82,41.39S2250.23,1830.32,2250.23,1807.05Zm32.93,0c0-16.92-2.58-30.24-10.23-30.24s-10.11,13.32-10.11,30.24c0,16.67,2.59,30.23,10.11,30.23S2283.16,1823.72,2283.16,1807.05Z"/><path class="cls-1" d="M2336.2,1847l-17.29-46.31V1847h-12.23v-80h12.23l16.58,45v-45h12.35v80Z"/><path class="cls-1" d="M2366.19,1862.6l-5.06-4.2c3.77-2.4,7.41-7.2,8.12-11.28a6.32,6.32,0,0,1-1.77.24c-3.76,0-6.58-2.88-6.58-7a7.53,7.53,0,0,1,7.41-7.56c4.46,0,8.35,3.72,8.35,10.32A24.26,24.26,0,0,1,2366.19,1862.6Z"/><path class="cls-1" d="M2404.05,1840.76l5.53-9.84a16.07,16.07,0,0,0,12.47,6.36c5,0,8.82-4.2,8.82-10.32,0-16-24.7-16.43-24.7-40.07,0-11.76,7.76-21.24,20.23-21.24a22.21,22.21,0,0,1,15.76,6.12l-4.94,9.6a13.85,13.85,0,0,0-10.47-4.56c-4.58,0-8.11,3.72-8.11,9.48,0,13.8,24.69,16.08,24.69,40,0,12.84-8.11,22.2-20.58,22.2C2414.87,1848.44,2408.64,1845.8,2404.05,1840.76Z"/><path class="cls-1" d="M2453.33,1847v-80h32.1v11h-19.87v22.68h19.05v11h-19.05V1836h19.87v11Z"/><path class="cls-1" d="M2494,1807.05c0-23.64,6.7-41.4,22.81-41.4,11.52,0,15.76,9.24,18.23,17.4l-9.88,3.72c-1.76-6.12-3.76-10-8.35-10-7.53,0-10.23,12.84-10.23,30.24s2.7,30.23,10.23,30.23c5.17,0,7.29-5.16,8.47-11.88l10,3.72c-2.11,9-6.58,19.32-18.46,19.32C2500.72,1848.44,2494,1830.56,2494,1807.05Z"/><path class="cls-1" d="M2552.46,1847v-69h-12.11v-11h36.45v11h-12.11v69Z"/><path class="cls-1" d="M2582,1807.05c0-23.16,6.47-41.4,22.7-41.4s22.81,18.24,22.81,41.4-6.59,41.39-22.81,41.39S2582,1830.32,2582,1807.05Zm32.93,0c0-16.92-2.59-30.24-10.23-30.24s-10.12,13.32-10.12,30.24c0,16.67,2.59,30.23,10.12,30.23S2614.91,1823.72,2614.91,1807.05Z"/><path class="cls-1" d="M2665.59,1847l-9.29-30.59h-5.64V1847h-12.23v-80H2658c11.64,0,20.11,9.72,20.11,24.36,0,13.8-5.88,19.91-10.47,22.08l11.17,33.59Zm-.12-55.31c0-8.16-3.17-13.68-9.29-13.68h-5.52v27.36h5.52C2662.3,1805.37,2665.47,1799.73,2665.47,1791.69Z"/><path class="cls-1" d="M2707.1,1807.05c0-22.56,7.29-41.28,24-41.28a18.4,18.4,0,0,1,16.12,9.6l-6.71,8.76c-2-4.68-4.7-7.2-9.05-7.2-8.59,0-11.88,14.76-11.88,28.32v1.32c2.12-5.76,6.7-10.44,12.82-10.44,9.05,0,16.46,8.64,16.46,25.67,0,14.52-7.29,26.64-19.76,26.64C2712.28,1848.44,2707.1,1828.52,2707.1,1807.05Zm29.17,15.23c0-11.75-3.77-15.35-7.88-15.35-4.59,0-7.29,5.39-8.82,10.31.23,7.68,1.41,20,8.82,20C2734.27,1837.28,2736.27,1829.72,2736.27,1822.28Z"/><path class="cls-1" d="M2757.79,1847v-10.44c24.22-34.79,26.81-40,26.81-48.83,0-6-3.29-10.8-8.47-10.8s-9.05,3.12-12.11,9.36l-8.11-7.32c4.82-8.28,10.81-13.2,20.69-13.2,12.47,0,20.47,8.76,20.47,21.72,0,10.56-4.36,19.44-23.29,48.47h23.52v11Z"/><path class="cls-1" d="M2813.41,1862.6l-5.06-4.2c3.77-2.4,7.41-7.2,8.12-11.28a6.3,6.3,0,0,1-1.76.24c-3.77,0-6.59-2.88-6.59-7a7.53,7.53,0,0,1,7.41-7.56c4.47,0,8.35,3.72,8.35,10.32A24.23,24.23,0,0,1,2813.41,1862.6Z"/><path class="cls-1" d="M2885.62,1847l-17.29-46.31V1847H2856.1v-80h12.23l16.58,45v-45h12.35v80Z"/><path class="cls-1" d="M2908.08,1807.05c0-23.16,6.47-41.4,22.7-41.4s22.81,18.24,22.81,41.4-6.59,41.39-22.81,41.39S2908.08,1830.32,2908.08,1807.05Zm32.93,0c0-16.92-2.59-30.24-10.23-30.24s-10.12,13.32-10.12,30.24c0,16.67,2.59,30.23,10.12,30.23S2941,1823.72,2941,1807.05Z"/><path class="cls-1" d="M2964.53,1847v-80h12.23v80Z"/><path class="cls-1" d="M2990.16,1847v-80h17.52c17.76,0,25.05,17.16,25.05,40.08,0,23.15-7.17,40-24.93,40Zm30-40c0-18.12-3.88-29-12.47-29h-5.29v58h5.29C3016.39,1836,3020.15,1824.8,3020.15,1807.05Z"/><path class="cls-1" d="M3070.13,1847l-2.71-16.32H3051.9l-2.71,16.32h-12.58l16-80h14.11l16,80Zm-10.47-65.75-6.35,38.39H3066Z"/><path class="cls-1" d="M577.89,460.47c-15.85,6.12-53.15,28.44-66.9,40.35,13.28,1.94,25.56,3.78,37.86,5.47,1.75.24,2.7.73,2.3,2.42-.28,1.18-.66,2.73-1.53,3.29-1.64,1-3.67,1.47-5.52,2.19q-60.44,23.49-120.88,46.94c-1.81.7-3.91.7-5.87,1-.26-1.92-.51-3.84-.77-5.75h0c14.86-16.67,35.17-27.54,50.45-45.95-10.81-1.86-20.07-2.76-28.76-6.35,1.65-5.89,7-7.93,11.11-11,23.87-18.15,47.86-36.12,71.81-54.16,2.62-2,5.66-3.74,4.43-7.91-7.07-1.58-14.16-3.27-21.28-4.75-7.33-1.52-15.25-1.25-22.83-6.75,4.85-3.87,8.41-6.77,12-9.59,19-14.68,38-29.28,56.88-44,9.45-7.38,9.69-8.05,5.08-18.08-16.61-36.12-39.1-68-68.61-94.84-5.47-5-6.56-5.1-11.6-.38Q419.09,305.11,363,357.8c-2.06,1.93-3.53,3.87-1.27,7.52H477.13a3.65,3.65,0,0,1,1.95.28c.48.33.64,1.12,1.57,2.92-4.4,5.87-11.25,9.84-17.07,14.81-5.58,4.75-11.42,9.19-17.15,13.77q-9.36,7.49-18.74,15-8.56,6.87-17.12,13.79c-6.22,5-12.41,10.08-18.65,15.07-5.73,4.58-11.5,9.1-17.24,13.66q-9.39,7.45-18.75,14.95c-5.72,4.58-11.42,9.19-17.15,13.76-6.24,5-12.53,9.93-18.76,14.94-5.72,4.59-11.37,9.25-17.09,13.84-6.23,5-12.52,9.94-18.76,14.94-5.72,4.58-11.47,9.12-17.09,13.82-5.84,4.88-12.68,8.76-19.07,17.07,7.55.36,12.6.85,17.65.81,28-.23,56-.6,84-.9,2.53,0,5.34-.44,5.77,4.57-19.18,10.77-38.86,21.83-58.54,32.86q-30.47,17.1-61,34.15c-19.76,11-39.69,21.75-59.27,33.09-20,11.55-40.9,21.49-60.28,34.81,72.48,62.9,203.32,83.16,308.83,26.88,57-30.4,99.79-74.89,127.7-133.3C574.29,546.06,584.32,492.65,577.89,460.47Z"/><path class="cls-1" d="M164.92,600.24c1.64-1.87,3.92-4.82,3.43-6.58-1.12-4.06-5.4-2.6-8.47-2.71-18.64-.69-37.28-1.25-55.92-1.79-2.67-.08-5.29,0-5.93-4.38,3.71-3.84,7.77-8.19,12-12.38q80.82-80.31,161.6-160.66c2.89-2.89,8.26-4.79,6.34-11.88-11.67-.4-23.58-.85-35.49-1.19-22.63-.64-45.26-1.18-67.9-1.84-1.84-.06-3.93.26-5.25-1.88-1.91-3.09.2-4.9,2-6.74q15.24-15.84,30.58-31.57,76.22-77.85,152.38-155.72c4-4.12,9.71-7.22,11-15-15.86-4.73-31.88-8.27-48.46-8.53-17.32-.26-34.66.24-52-.14-7.84-.18-14,1.93-19.71,7.48-16.76,16.21-34,31.95-50.93,47.95-1.8,1.69-4.4,3.28-2.61,7.93,7.14.08,14.89.06,22.63.32,2.9.1,6.88-1.32,7.58,4.18q-18.07,14.53-36.3,29.18h0l-4.73,3.81-6,4.89-14,11.3c-1.23.85-2.77,1.62-3.6,2.91l-5.79,4.67,12.31.15,1.13.05c.73,0,1.46,0,2.19,0l7.49.09.3,0a5.1,5.1,0,0,0,1,0l3.05,0c1.05.38,1.95,1.43,2.42,4-11.09,6-22.13,12.31-33.2,18.6h0l-.05,0c-14.75,8.39-29.58,16.79-44.68,24.74l-6.87,3.8a2.11,2.11,0,0,1-1.35,1.1l1-.9-9.76,5.41,7.28-8.68-.12-.11,6.14-7.05h0l23.6-27.15c-5.29-5.82-13.4,0-19-6.94,9.31-9.28,18.25-18,27-27s18-17.19,27.6-28.51L125.52,250l24.63-27.9a32.45,32.45,0,0,0,12.7-12.44c2.3-.44,3.33-1.79,3-4.14h0l2.74-1.43-1.82-1.79L165,204.66c-3.81,0-7.34.7-9.59,4.24h0c-5.43,1.75-10.74,3.7-14.34,8.53h0c-13.25,7.5-26.58,14.91-36.59,26.82-5.48,1.42-8.79,5.86-12.61,9.42A286.87,286.87,0,0,0,33.7,329.11c-18.54,35-30.78,72-33.07,111.77C-.36,458.1,0,475.43.47,492.7c.23,8.47-.69,17.4,4.35,25.15-.79,13,4.11,24.87,7.85,36.86,14.36,46,39.23,85.72,73.51,119.54,5,5,6.8,5,11.55-.06,13.18-14.12,26.18-28.41,39.18-42.7C146.32,621.14,155.69,610.75,164.92,600.24ZM5.11,434.75A30.14,30.14,0,0,1,7,425.32C6.31,428.45,5.67,431.59,5.11,434.75Z"/></g></g></svg>