<svg width="295" height="129" viewBox="0 0 295 129" fill="none" xmlns="http://www.w3.org/2000/svg">
<rect x="94.8254" y="36.4114" width="48.0048" height="15.7257" rx="7.86285" transform="rotate(-30 94.8254 36.4114)" fill="#DB4437"/>
<rect x="102.61" y="28.5725" width="48.0048" height="15.7257" rx="7.86285" transform="rotate(29.5587 102.61 28.5725)" fill="#4285F4"/>
<rect x="200.13" y="41.6823" width="48.0048" height="15.7257" rx="7.86285" transform="rotate(150 200.13 41.6823)" fill="#F4B400"/>
<rect x="192.346" y="49.5214" width="48.0048" height="15.7257" rx="7.86285" transform="rotate(-150.441 192.346 49.5214)" fill="#0F9D58"/>
<path d="M1.98895 80.1384H7.85878C9.66985 80.1384 11.2465 80.5023 12.5886 81.2299C13.9307 81.9576 14.9656 82.9763 15.6933 84.2861C16.421 85.5959 16.7848 87.1079 16.7848 88.8219C16.7848 90.536 16.421 92.0479 15.6933 93.3577C14.9656 94.6675 13.9307 95.6862 12.5886 96.4139C11.2465 97.1415 9.66985 97.5054 7.85878 97.5054H1.98895V80.1384ZM7.71324 94.4007C9.589 94.4007 11.0201 93.9075 12.0065 92.9211C12.9929 91.9185 13.486 90.5521 13.486 88.8219C13.486 87.0917 12.9929 85.7334 12.0065 84.747C11.0201 83.7444 9.589 83.2431 7.71324 83.2431H5.26344V94.4007H7.71324ZM24.9015 97.8935C23.6725 97.8935 22.5649 97.6105 21.5785 97.0445C20.5921 96.4786 19.8159 95.7024 19.2499 94.716C18.7002 93.7134 18.4253 92.5896 18.4253 91.3445C18.4253 90.164 18.7002 89.0725 19.2499 88.07C19.7997 87.0513 20.5597 86.2427 21.53 85.6444C22.5002 85.0461 23.5836 84.747 24.7802 84.747C26.0576 84.747 27.1572 85.0219 28.0789 85.5717C29.0006 86.1215 29.696 86.8734 30.1649 87.8274C30.65 88.7815 30.8926 89.8406 30.8926 91.0049C30.8926 91.3768 30.8683 91.7326 30.8198 92.0721H21.53C21.6917 93.0585 22.0798 93.8105 22.6942 94.3279C23.3249 94.8292 24.0768 95.0798 24.95 95.0798C25.6776 95.0798 26.3002 94.9262 26.8177 94.619C27.3513 94.2956 27.7717 93.867 28.0789 93.3334L30.65 94.5947C29.3887 96.7939 27.4726 97.8935 24.9015 97.8935ZM27.8364 89.8164C27.804 89.4283 27.6585 89.0483 27.3998 88.6764C27.1572 88.2883 26.8096 87.973 26.3568 87.7304C25.9202 87.4717 25.4028 87.3423 24.8045 87.3423C24.0444 87.3423 23.3895 87.5687 22.8398 88.0215C22.3061 88.4581 21.918 89.0564 21.6755 89.8164H27.8364ZM31.7209 85.1351H35.3349L38.4639 93.1879H38.6579L41.8354 85.1351H45.401L40.1133 97.5054H36.96L31.7209 85.1351ZM52.5679 97.8935C51.3389 97.8935 50.2313 97.6105 49.2449 97.0445C48.2585 96.4786 47.4823 95.7024 46.9164 94.716C46.3666 93.7134 46.0917 92.5896 46.0917 91.3445C46.0917 90.164 46.3666 89.0725 46.9164 88.07C47.4661 87.0513 48.2261 86.2427 49.1964 85.6444C50.1666 85.0461 51.25 84.747 52.4466 84.747C53.7241 84.747 54.8236 85.0219 55.7453 85.5717C56.6671 86.1215 57.3624 86.8734 57.8313 87.8274C58.3164 88.7815 58.559 89.8406 58.559 91.0049C58.559 91.3768 58.5347 91.7326 58.4862 92.0721H49.1964C49.3581 93.0585 49.7462 93.8105 50.3606 94.3279C50.9913 94.8292 51.7432 95.0798 52.6164 95.0798C53.3441 95.0798 53.9666 94.9262 54.4841 94.619C55.0177 94.2956 55.4381 93.867 55.7453 93.3334L58.3164 94.5947C57.0551 96.7939 55.139 97.8935 52.5679 97.8935ZM55.5028 89.8164C55.4705 89.4283 55.3249 89.0483 55.0662 88.6764C54.8236 88.2883 54.476 87.973 54.0232 87.7304C53.5866 87.4717 53.0692 87.3423 52.4709 87.3423C51.7109 87.3423 51.056 87.5687 50.5062 88.0215C49.9725 88.4581 49.5845 89.0564 49.3419 89.8164H55.5028ZM61.0067 80.1384H64.1842V97.5054H61.0067V80.1384ZM73.1073 97.8935C71.8299 97.8935 70.6899 97.6105 69.6873 97.0445C68.6848 96.4624 67.9005 95.6781 67.3345 94.6917C66.7848 93.6892 66.5099 92.5653 66.5099 91.3202C66.5099 90.0913 66.7848 88.9755 67.3345 87.973C67.9005 86.9704 68.6848 86.1861 69.6873 85.6202C70.6899 85.0381 71.8299 84.747 73.1073 84.747C74.3686 84.747 75.5006 85.0381 76.5031 85.6202C77.5057 86.1861 78.2818 86.9704 78.8316 87.973C79.3976 88.9755 79.6806 90.0913 79.6806 91.3202C79.6806 92.5653 79.3976 93.6892 78.8316 94.6917C78.2818 95.6781 77.5057 96.4624 76.5031 97.0445C75.5006 97.6105 74.3686 97.8935 73.1073 97.8935ZM73.1073 94.9585C73.7218 94.9585 74.2878 94.813 74.8052 94.5219C75.3227 94.2309 75.735 93.8105 76.0423 93.2607C76.3495 92.7109 76.5031 92.0641 76.5031 91.3202C76.5031 90.5926 76.3495 89.9538 76.0423 89.404C75.735 88.8542 75.3227 88.4338 74.8052 88.1428C74.2878 87.8517 73.7218 87.7062 73.1073 87.7062C72.4929 87.7062 71.9269 87.8517 71.4095 88.1428C70.892 88.4338 70.4716 88.8542 70.1482 89.404C69.8409 89.9538 69.6873 90.5926 69.6873 91.3202C69.6873 92.0479 69.8409 92.6947 70.1482 93.2607C70.4716 93.8105 70.892 94.2309 71.4095 94.5219C71.9269 94.813 72.4929 94.9585 73.1073 94.9585ZM81.8964 85.1351H84.8798V86.6389H85.0738C85.4134 86.1053 85.9066 85.6606 86.5534 85.3049C87.2002 84.9329 87.9441 84.747 88.7849 84.747C89.9007 84.747 90.9113 85.03 91.8168 85.5959C92.7386 86.1457 93.4581 86.9219 93.9756 87.9245C94.493 88.927 94.7518 90.0589 94.7518 91.3202C94.7518 92.5977 94.493 93.7377 93.9756 94.7402C93.4581 95.7266 92.7386 96.5028 91.8168 97.0688C90.9113 97.6186 89.9007 97.8935 88.7849 97.8935C87.9441 97.8935 87.1921 97.7156 86.5292 97.3598C85.8823 97.0041 85.3972 96.5594 85.0738 96.0258H84.8798L85.0738 97.7722V102.745H81.8964V85.1351ZM88.227 94.9585C88.8253 94.9585 89.3832 94.8049 89.9007 94.4977C90.4181 94.1905 90.8305 93.7619 91.1377 93.2122C91.4449 92.6624 91.5985 92.0317 91.5985 91.3202C91.5985 90.6087 91.4449 89.9781 91.1377 89.4283C90.8305 88.8785 90.4181 88.4581 89.9007 88.167C89.3832 87.8598 88.8253 87.7062 88.227 87.7062C87.6449 87.7062 87.0951 87.8598 86.5777 88.167C86.0602 88.4581 85.6479 88.8785 85.3406 89.4283C85.0334 89.9781 84.8798 90.6087 84.8798 91.3202C84.8798 92.0317 85.0334 92.6624 85.3406 93.2122C85.6479 93.7619 86.0602 94.1905 86.5777 94.4977C87.0951 94.8049 87.6449 94.9585 88.227 94.9585ZM102.997 97.8935C101.769 97.8935 100.661 97.6105 99.6745 97.0445C98.6881 96.4786 97.9119 95.7024 97.346 94.716C96.7962 93.7134 96.5213 92.5896 96.5213 91.3445C96.5213 90.164 96.7962 89.0725 97.346 88.07C97.8957 87.0513 98.6558 86.2427 99.626 85.6444C100.596 85.0461 101.68 84.747 102.876 84.747C104.154 84.747 105.253 85.0219 106.175 85.5717C107.097 86.1215 107.792 86.8734 108.261 87.8274C108.746 88.7815 108.989 89.8406 108.989 91.0049C108.989 91.3768 108.964 91.7326 108.916 92.0721H99.626C99.7877 93.0585 100.176 93.8105 100.79 94.3279C101.421 94.8292 102.173 95.0798 103.046 95.0798C103.774 95.0798 104.396 94.9262 104.914 94.619C105.447 94.2956 105.868 93.867 106.175 93.3334L108.746 94.5947C107.485 96.7939 105.569 97.8935 102.997 97.8935ZM105.932 89.8164C105.9 89.4283 105.755 89.0483 105.496 88.6764C105.253 88.2883 104.906 87.973 104.453 87.7304C104.016 87.4717 103.499 87.3423 102.9 87.3423C102.14 87.3423 101.486 87.5687 100.936 88.0215C100.402 88.4581 100.014 89.0564 99.7715 89.8164H105.932ZM111.436 85.1351H114.42V86.7844H114.614C114.921 86.2023 115.398 85.7253 116.045 85.3534C116.692 84.9653 117.403 84.7712 118.179 84.7712C118.745 84.7712 119.263 84.8602 119.732 85.0381V88.2155C119.295 88.0538 118.923 87.9406 118.616 87.8759C118.325 87.7951 118.01 87.7547 117.67 87.7547C116.732 87.7547 115.988 88.0942 115.438 88.7734C114.889 89.4526 114.614 90.3096 114.614 91.3445V97.5054H111.436V85.1351ZM132.414 97.8935C130.894 97.8935 129.552 97.4649 128.387 96.6079C127.223 95.7509 126.407 94.5381 125.938 92.9696L129.018 91.7568C129.261 92.6785 129.673 93.4143 130.255 93.9641C130.837 94.5139 131.565 94.7888 132.438 94.7888C133.166 94.7888 133.788 94.6109 134.306 94.2551C134.823 93.8832 135.082 93.3739 135.082 92.727C135.082 92.0802 134.831 91.5547 134.33 91.1504C133.845 90.73 132.972 90.2853 131.71 89.8164L130.643 89.4283C129.527 89.0402 128.573 88.45 127.781 87.6576C126.989 86.8491 126.593 85.8385 126.593 84.6257C126.593 83.7202 126.827 82.8955 127.296 82.1517C127.765 81.4078 128.428 80.8257 129.285 80.4053C130.142 79.9687 131.112 79.7504 132.196 79.7504C133.764 79.7504 135.001 80.1223 135.907 80.8661C136.812 81.5938 137.435 82.4508 137.774 83.4372L134.888 84.65C134.71 84.1163 134.395 83.6717 133.942 83.3159C133.505 82.944 132.939 82.758 132.244 82.758C131.533 82.758 130.942 82.9278 130.473 83.2674C130.021 83.5908 129.794 84.0193 129.794 84.5529C129.794 85.0704 130.013 85.5151 130.449 85.887C130.886 86.2427 131.605 86.5904 132.608 86.93L133.699 87.2938C135.203 87.8113 136.351 88.4985 137.144 89.3555C137.952 90.1964 138.356 91.3041 138.356 92.6785C138.356 93.8105 138.065 94.7726 137.483 95.5649C136.901 96.3411 136.149 96.9232 135.228 97.3113C134.322 97.6994 133.384 97.8935 132.414 97.8935ZM145.79 97.6994C145.176 97.6994 144.61 97.6105 144.092 97.4326C143.575 97.2386 143.154 96.9798 142.831 96.6564C142.071 95.9288 141.691 94.8939 141.691 93.5517V87.8517H139.532V85.1351H141.691V81.6423H144.869V85.1351H147.9V87.8517H144.869V92.9696C144.869 93.6002 145.006 94.053 145.281 94.3279C145.507 94.5866 145.895 94.716 146.445 94.716C146.752 94.716 147.003 94.6756 147.197 94.5947C147.407 94.5139 147.674 94.3764 147.997 94.1824V97.2871C147.302 97.562 146.566 97.6994 145.79 97.6994ZM155.007 97.8935C153.519 97.8935 152.387 97.4326 151.611 96.5109C150.835 95.5892 150.447 94.3036 150.447 92.6543V85.1351H153.624V92.2662C153.624 93.107 153.826 93.77 154.23 94.2551C154.635 94.7241 155.168 94.9585 155.831 94.9585C156.737 94.9585 157.456 94.6271 157.99 93.9641C158.524 93.3011 158.79 92.4602 158.79 91.4415V85.1351H161.968V97.5054H158.984V95.953H158.79C158.418 96.5513 157.893 97.0283 157.214 97.3841C156.551 97.7237 155.815 97.8935 155.007 97.8935ZM170.257 97.8935C169.141 97.8935 168.123 97.6186 167.201 97.0688C166.295 96.5028 165.576 95.7266 165.042 94.7402C164.525 93.7377 164.266 92.5977 164.266 91.3202C164.266 90.0589 164.525 88.927 165.042 87.9245C165.576 86.9219 166.295 86.1457 167.201 85.5959C168.123 85.03 169.141 84.747 170.257 84.747C171.098 84.747 171.842 84.9329 172.489 85.3049C173.135 85.6606 173.629 86.1053 173.968 86.6389H174.162L173.968 84.8925V80.1384H177.121V97.5054H174.162V96.0258H173.968C173.645 96.5594 173.152 97.0041 172.489 97.3598C171.842 97.7156 171.098 97.8935 170.257 97.8935ZM170.791 94.9585C171.389 94.9585 171.947 94.8049 172.464 94.4977C172.982 94.1905 173.394 93.7619 173.701 93.2122C174.009 92.6624 174.162 92.0317 174.162 91.3202C174.162 90.6087 174.009 89.9781 173.701 89.4283C173.394 88.8785 172.982 88.4581 172.464 88.167C171.947 87.8598 171.389 87.7062 170.791 87.7062C170.209 87.7062 169.659 87.8598 169.141 88.167C168.624 88.4581 168.212 88.8785 167.904 89.4283C167.597 89.9781 167.444 90.6087 167.444 91.3202C167.444 92.0317 167.597 92.6624 167.904 93.2122C168.212 93.7619 168.624 94.1905 169.141 94.4977C169.659 94.8049 170.209 94.9585 170.791 94.9585ZM185.926 97.8935C184.697 97.8935 183.589 97.6105 182.603 97.0445C181.616 96.4786 180.84 95.7024 180.274 94.716C179.724 93.7134 179.449 92.5896 179.449 91.3445C179.449 90.164 179.724 89.0725 180.274 88.07C180.824 87.0513 181.584 86.2427 182.554 85.6444C183.524 85.0461 184.608 84.747 185.804 84.747C187.082 84.747 188.181 85.0219 189.103 85.5717C190.025 86.1215 190.72 86.8734 191.189 87.8274C191.674 88.7815 191.917 89.8406 191.917 91.0049C191.917 91.3768 191.892 91.7326 191.844 92.0721H182.554C182.716 93.0585 183.104 93.8105 183.718 94.3279C184.349 94.8292 185.101 95.0798 185.974 95.0798C186.702 95.0798 187.324 94.9262 187.842 94.619C188.375 94.2956 188.796 93.867 189.103 93.3334L191.674 94.5947C190.413 96.7939 188.497 97.8935 185.926 97.8935ZM188.861 89.8164C188.828 89.4283 188.683 89.0483 188.424 88.6764C188.181 88.2883 187.834 87.973 187.381 87.7304C186.944 87.4717 186.427 87.3423 185.829 87.3423C185.069 87.3423 184.414 87.5687 183.864 88.0215C183.33 88.4581 182.942 89.0564 182.7 89.8164H188.861ZM194.364 85.1351H197.348V86.6874H197.542C197.914 86.0891 198.439 85.6202 199.119 85.2806C199.798 84.9249 200.533 84.747 201.326 84.747C202.813 84.747 203.945 85.1998 204.722 86.1053C205.498 87.0108 205.886 88.2479 205.886 89.8164V97.5054H202.708V90.2045C202.708 89.4121 202.506 88.7977 202.102 88.3611C201.698 87.9245 201.132 87.7062 200.404 87.7062C199.547 87.7062 198.852 88.0376 198.318 88.7006C197.801 89.3636 197.542 90.1964 197.542 91.1989V97.5054H194.364V85.1351ZM213.653 97.6994C213.039 97.6994 212.473 97.6105 211.956 97.4326C211.438 97.2386 211.018 96.9798 210.694 96.6564C209.934 95.9288 209.554 94.8939 209.554 93.5517V87.8517H207.396V85.1351H209.554V81.6423H212.732V85.1351H215.764V87.8517H212.732V92.9696C212.732 93.6002 212.869 94.053 213.144 94.3279C213.37 94.5866 213.759 94.716 214.308 94.716C214.616 94.716 214.866 94.6756 215.06 94.5947C215.27 94.5139 215.537 94.3764 215.861 94.1824V97.2871C215.165 97.562 214.43 97.6994 213.653 97.6994ZM232.277 97.8935C230.595 97.8935 229.059 97.4973 227.669 96.7049C226.278 95.8964 225.178 94.8049 224.37 93.4305C223.577 92.0398 223.181 90.5036 223.181 88.8219C223.181 87.1402 223.577 85.6121 224.37 84.2376C225.178 82.847 226.278 81.7555 227.669 80.9631C229.059 80.1546 230.595 79.7504 232.277 79.7504C234.897 79.7504 237.064 80.6963 238.778 82.5883L236.473 84.8198C235.358 83.51 233.967 82.8551 232.301 82.8551C231.218 82.8551 230.232 83.1057 229.342 83.607C228.453 84.0921 227.749 84.7874 227.232 85.693C226.731 86.5985 226.48 87.6415 226.48 88.8219C226.48 90.0023 226.731 91.0453 227.232 91.9509C227.749 92.8564 228.453 93.5598 229.342 94.0611C230.232 94.5462 231.218 94.7888 232.301 94.7888C234.129 94.7888 235.657 94.0288 236.886 92.5087L239.214 94.716C238.357 95.7509 237.338 96.5432 236.158 97.093C234.994 97.6266 233.7 97.8935 232.277 97.8935ZM241.573 80.1384H244.75V97.5054H241.573V80.1384ZM252.336 97.8935C250.849 97.8935 249.717 97.4326 248.941 96.5109C248.164 95.5892 247.776 94.3036 247.776 92.6543V85.1351H250.954V92.2662C250.954 93.107 251.156 93.77 251.56 94.2551C251.964 94.7241 252.498 94.9585 253.161 94.9585C254.067 94.9585 254.786 94.6271 255.32 93.9641C255.853 93.3011 256.12 92.4602 256.12 91.4415V85.1351H259.298V97.5054H256.314V95.953H256.12C255.748 96.5513 255.223 97.0283 254.544 97.3841C253.881 97.7237 253.145 97.8935 252.336 97.8935ZM269.282 97.8935C268.441 97.8935 267.689 97.7156 267.026 97.3598C266.379 97.0041 265.894 96.5594 265.571 96.0258H265.377V97.5054H262.394V80.1384H265.571V84.8925L265.377 86.6389H265.571C265.911 86.1053 266.404 85.6606 267.051 85.3049C267.697 84.9329 268.441 84.747 269.282 84.747C270.398 84.747 271.408 85.03 272.314 85.5959C273.236 86.1457 273.955 86.9219 274.473 87.9245C274.99 88.927 275.249 90.0589 275.249 91.3202C275.249 92.5977 274.99 93.7377 274.473 94.7402C273.955 95.7266 273.236 96.5028 272.314 97.0688C271.408 97.6186 270.398 97.8935 269.282 97.8935ZM268.724 94.9585C269.322 94.9585 269.88 94.8049 270.398 94.4977C270.915 94.1905 271.328 93.7619 271.635 93.2122C271.942 92.6624 272.096 92.0317 272.096 91.3202C272.096 90.6087 271.942 89.9781 271.635 89.4283C271.328 88.8785 270.915 88.4581 270.398 88.167C269.88 87.8598 269.322 87.7062 268.724 87.7062C268.142 87.7062 267.592 87.8598 267.075 88.167C266.557 88.4581 266.145 88.8785 265.838 89.4283C265.531 89.9781 265.377 90.6087 265.377 91.3202C265.377 92.0317 265.531 92.6624 265.838 93.2122C266.145 93.7619 266.557 94.1905 267.075 94.4977C267.592 94.8049 268.142 94.9585 268.724 94.9585ZM282.282 97.8935C280.779 97.8935 279.558 97.5862 278.62 96.9718C277.698 96.3573 277.051 95.5568 276.679 94.5705L279.517 93.3334C279.776 93.9156 280.14 94.3602 280.609 94.6675C281.094 94.9585 281.652 95.1041 282.282 95.1041C282.865 95.1041 283.35 95.0151 283.738 94.8373C284.126 94.6432 284.32 94.336 284.32 93.9156C284.32 93.5113 284.142 93.2122 283.786 93.0181C283.431 92.8079 282.897 92.6219 282.185 92.4602L280.73 92.1449C279.728 91.9024 278.895 91.4658 278.232 90.8351C277.569 90.1883 277.237 89.3879 277.237 88.4338C277.237 87.7223 277.447 87.0836 277.868 86.5176C278.305 85.9517 278.887 85.5151 279.614 85.2078C280.358 84.9006 281.175 84.747 282.064 84.747C284.619 84.747 286.325 85.6444 287.182 87.4393L284.465 88.6279C283.98 87.7547 283.204 87.3181 282.137 87.3181C281.587 87.3181 281.15 87.4232 280.827 87.6334C280.504 87.8274 280.342 88.0781 280.342 88.3853C280.342 88.9674 280.892 89.404 281.991 89.6951L283.811 90.1317C285.039 90.4389 285.961 90.9079 286.576 91.5385C287.206 92.1692 287.522 92.9453 287.522 93.867C287.522 94.6594 287.287 95.3628 286.818 95.9773C286.365 96.5756 285.735 97.0445 284.926 97.3841C284.134 97.7237 283.253 97.8935 282.282 97.8935Z" fill="#434343"/>
<path d="M14.1272 124.246C13.2472 124.246 12.4786 124.006 11.8213 123.527C11.1641 123.037 10.7018 122.352 10.4344 121.472L11.7712 120.921C12.1722 122.235 12.9576 122.893 14.1272 122.893C14.7844 122.893 15.308 122.664 15.6979 122.207C16.0989 121.751 16.2994 121.149 16.2994 120.403V112.015H17.7197V120.286C17.7197 121.121 17.5638 121.84 17.2519 122.441C16.9511 123.032 16.5278 123.483 15.9819 123.795C15.4472 124.096 14.829 124.246 14.1272 124.246ZM23.5391 124.246C22.6034 124.246 21.7457 123.962 20.9659 123.394C20.1861 122.826 19.6514 122.029 19.3618 121.004L20.7153 120.453C20.9046 121.166 21.2555 121.751 21.7679 122.207C22.2804 122.664 22.8819 122.893 23.5725 122.893C24.2632 122.893 24.848 122.709 25.327 122.341C25.806 121.962 26.0455 121.45 26.0455 120.804C26.0455 120.247 25.8394 119.79 25.4273 119.434C25.0263 119.066 24.3635 118.726 23.4389 118.414L22.687 118.147C21.8403 117.846 21.1497 117.451 20.615 116.961C20.0803 116.471 19.8129 115.791 19.8129 114.922C19.8129 114.354 19.9689 113.831 20.2808 113.352C20.5927 112.861 21.0272 112.471 21.5841 112.182C22.1411 111.892 22.7649 111.747 23.4556 111.747C24.1462 111.747 24.7478 111.876 25.2602 112.132C25.7726 112.388 26.1792 112.7 26.48 113.067C26.7919 113.435 27.0091 113.797 27.1316 114.154L25.7949 114.722C25.6835 114.31 25.4273 113.936 25.0263 113.602C24.6364 113.268 24.1184 113.101 23.4723 113.101C22.8596 113.101 22.3361 113.274 21.9016 113.619C21.4672 113.964 21.2499 114.399 21.2499 114.922C21.2499 115.39 21.4338 115.774 21.8014 116.075C22.169 116.365 22.7259 116.638 23.4723 116.894L24.2576 117.161C25.2713 117.529 26.0622 117.991 26.6304 118.548C27.1985 119.094 27.4825 119.84 27.4825 120.787C27.4825 121.556 27.282 122.202 26.881 122.725C26.4911 123.249 25.9954 123.633 25.3939 123.878C24.7923 124.123 24.1741 124.246 23.5391 124.246ZM32.9055 124.246C31.9698 124.246 31.112 123.962 30.3323 123.394C29.5525 122.826 29.0178 122.029 28.7282 121.004L30.0816 120.453C30.271 121.166 30.6219 121.751 31.1343 122.207C31.6467 122.664 32.2483 122.893 32.9389 122.893C33.6296 122.893 34.2144 122.709 34.6934 122.341C35.1724 121.962 35.4119 121.45 35.4119 120.804C35.4119 120.247 35.2058 119.79 34.7936 119.434C34.3926 119.066 33.7298 118.726 32.8052 118.414L32.0533 118.147C31.2067 117.846 30.5161 117.451 29.9814 116.961C29.4467 116.471 29.1793 115.791 29.1793 114.922C29.1793 114.354 29.3353 113.831 29.6472 113.352C29.9591 112.861 30.3935 112.471 30.9505 112.182C31.5075 111.892 32.1313 111.747 32.8219 111.747C33.5126 111.747 34.1141 111.876 34.6266 112.132C35.139 112.388 35.5456 112.7 35.8463 113.067C36.1582 113.435 36.3755 113.797 36.498 114.154L35.1613 114.722C35.0499 114.31 34.7936 113.936 34.3926 113.602C34.0027 113.268 33.4847 113.101 32.8387 113.101C32.226 113.101 31.7024 113.274 31.268 113.619C30.8335 113.964 30.6163 114.399 30.6163 114.922C30.6163 115.39 30.8001 115.774 31.1677 116.075C31.5353 116.365 32.0923 116.638 32.8387 116.894L33.624 117.161C34.6377 117.529 35.4286 117.991 35.9967 118.548C36.5648 119.094 36.8489 119.84 36.8489 120.787C36.8489 121.556 36.6484 122.202 36.2474 122.725C35.8575 123.249 35.3618 123.633 34.7602 123.878C34.1587 124.123 33.5404 124.246 32.9055 124.246ZM45.7499 112.015H47.354L51.8989 123.979H50.3449L49.1419 120.687H43.9787L42.7756 123.979H41.2216L45.7499 112.015ZM48.6573 119.35L47.0699 115.039L46.5853 113.753H46.5185L46.0506 115.039L44.4633 119.35H48.6573ZM56.8164 124.246C55.9921 124.246 55.2513 124.051 54.5941 123.661C53.9368 123.26 53.4244 122.72 53.0568 122.04C52.6892 121.35 52.5054 120.576 52.5054 119.718C52.5054 118.86 52.6892 118.086 53.0568 117.395C53.4244 116.705 53.9368 116.164 54.5941 115.774C55.2513 115.384 55.9921 115.19 56.8164 115.19C57.741 115.19 58.5152 115.407 59.139 115.841C59.774 116.264 60.2251 116.833 60.4925 117.546L59.2058 118.08C58.9942 117.557 58.6767 117.161 58.2534 116.894C57.8413 116.615 57.34 116.476 56.7496 116.476C56.2483 116.476 55.7804 116.615 55.346 116.894C54.9115 117.161 54.5607 117.54 54.2933 118.03C54.0371 118.52 53.909 119.083 53.909 119.718C53.909 120.353 54.0371 120.915 54.2933 121.405C54.5607 121.896 54.9115 122.28 55.346 122.558C55.7804 122.826 56.2483 122.959 56.7496 122.959C57.3511 122.959 57.8691 122.82 58.3035 122.542C58.738 122.263 59.061 121.868 59.2727 121.355L60.5426 121.89C60.253 122.592 59.7851 123.16 59.139 123.594C58.5041 124.029 57.7299 124.246 56.8164 124.246ZM64.7202 124.246C64.0964 124.246 63.5394 124.123 63.0493 123.878C62.5591 123.633 62.1804 123.299 61.913 122.876C61.6457 122.441 61.512 121.951 61.512 121.405C61.512 120.503 61.8518 119.801 62.5313 119.3C63.2108 118.788 64.0685 118.531 65.1045 118.531C65.6169 118.531 66.0904 118.587 66.5248 118.698C66.9704 118.81 67.3101 118.938 67.5441 119.083V118.565C67.5441 117.93 67.3213 117.423 66.8757 117.044C66.4301 116.654 65.8676 116.459 65.188 116.459C64.709 116.459 64.269 116.565 63.868 116.777C63.467 116.977 63.1495 117.261 62.9156 117.629L61.8462 116.827C62.1804 116.315 62.6371 115.914 63.2163 115.624C63.8067 115.334 64.4584 115.19 65.1713 115.19C66.3299 115.19 67.2377 115.496 67.895 116.109C68.5633 116.71 68.8975 117.534 68.8975 118.582V123.979H67.5441V122.759H67.4772C67.2322 123.171 66.8646 123.522 66.3744 123.812C65.8843 124.101 65.3329 124.246 64.7202 124.246ZM64.8539 122.993C65.3329 122.993 65.7784 122.87 66.1906 122.625C66.6028 122.38 66.9314 122.051 67.1765 121.639C67.4215 121.227 67.5441 120.776 67.5441 120.286C67.2767 120.108 66.9481 119.963 66.5582 119.851C66.1683 119.74 65.7562 119.684 65.3217 119.684C64.542 119.684 63.9516 119.846 63.5505 120.169C63.1606 120.492 62.9657 120.91 62.9657 121.422C62.9657 121.89 63.1439 122.269 63.5004 122.558C63.8569 122.848 64.308 122.993 64.8539 122.993ZM74.401 124.246C73.6435 124.246 72.9529 124.051 72.3291 123.661C71.7164 123.271 71.2318 122.737 70.8754 122.057C70.5189 121.366 70.3407 120.587 70.3407 119.718C70.3407 118.86 70.5189 118.086 70.8754 117.395C71.2318 116.705 71.7164 116.164 72.3291 115.774C72.9529 115.384 73.6435 115.19 74.401 115.19C75.0583 115.19 75.6431 115.34 76.1555 115.641C76.6679 115.93 77.0578 116.292 77.3252 116.727H77.392L77.3252 115.54V112.015H78.7455V123.979H77.392V122.725H77.3252C77.0578 123.149 76.6679 123.511 76.1555 123.812C75.6431 124.101 75.0583 124.246 74.401 124.246ZM74.5681 122.959C75.0694 122.959 75.5317 122.826 75.955 122.558C76.3894 122.291 76.7348 121.912 76.991 121.422C77.2583 120.932 77.392 120.364 77.392 119.718C77.392 119.072 77.2583 118.504 76.991 118.013C76.7348 117.523 76.3894 117.145 75.955 116.877C75.5317 116.61 75.0694 116.476 74.5681 116.476C74.078 116.476 73.6157 116.61 73.1812 116.877C72.7468 117.145 72.3959 117.529 72.1286 118.03C71.8723 118.52 71.7442 119.083 71.7442 119.718C71.7442 120.353 71.8723 120.921 72.1286 121.422C72.3959 121.912 72.7468 122.291 73.1812 122.558C73.6157 122.826 74.078 122.959 74.5681 122.959ZM84.555 124.246C83.7418 124.246 83.0121 124.051 82.366 123.661C81.7199 123.271 81.2131 122.737 80.8455 122.057C80.489 121.366 80.3108 120.592 80.3108 119.734C80.3108 118.91 80.4779 118.153 80.8121 117.462C81.1574 116.771 81.642 116.22 82.2658 115.808C82.8896 115.396 83.6137 115.19 84.438 115.19C85.2735 115.19 85.9975 115.379 86.6102 115.758C87.2229 116.125 87.6907 116.638 88.0138 117.295C88.348 117.952 88.5151 118.704 88.5151 119.551C88.5151 119.718 88.4984 119.863 88.4649 119.985H81.7311C81.7645 120.631 81.9204 121.177 82.1989 121.623C82.4774 122.068 82.8283 122.402 83.2516 122.625C83.6861 122.848 84.1372 122.959 84.6051 122.959C85.6968 122.959 86.5378 122.447 87.1282 121.422L88.3313 122.007C87.9637 122.698 87.4624 123.243 86.8274 123.644C86.2036 124.045 85.4461 124.246 84.555 124.246ZM87.0112 118.815C86.9889 118.459 86.8887 118.103 86.7105 117.746C86.5322 117.39 86.2482 117.089 85.8583 116.844C85.4795 116.599 85.0005 116.476 84.4213 116.476C83.7529 116.476 83.1848 116.693 82.7169 117.128C82.2602 117.551 81.9594 118.114 81.8146 118.815H87.0112ZM90.1772 115.457H91.5307V116.71H91.5975C91.8426 116.276 92.2102 115.914 92.7004 115.624C93.1905 115.334 93.7085 115.19 94.2543 115.19C94.8781 115.19 95.4184 115.34 95.8751 115.641C96.343 115.941 96.6772 116.342 96.8777 116.844C97.1785 116.342 97.5739 115.941 98.0641 115.641C98.5653 115.34 99.1446 115.19 99.8018 115.19C100.782 115.19 101.517 115.49 102.007 116.092C102.509 116.682 102.759 117.49 102.759 118.515V123.979H101.356V118.732C101.356 117.941 101.194 117.367 100.871 117.011C100.548 116.654 100.069 116.476 99.4342 116.476C99.0109 116.476 98.6266 116.599 98.2813 116.844C97.9359 117.089 97.663 117.417 97.4625 117.83C97.2731 118.242 97.1785 118.687 97.1785 119.166V123.979H95.7582V118.749C95.7582 117.947 95.5966 117.367 95.2736 117.011C94.9505 116.654 94.4771 116.476 93.8533 116.476C93.43 116.476 93.0457 116.604 92.7004 116.86C92.355 117.106 92.0821 117.44 91.8816 117.863C91.6922 118.275 91.5975 118.721 91.5975 119.2V123.979H90.1772V115.457ZM107.176 123.444L103.65 115.457H105.188L107.861 121.79H107.895L110.468 115.457H112.005L106.742 127.588H105.271L107.176 123.444ZM120.996 124.246C120.16 124.246 119.408 124.045 118.74 123.644C118.071 123.243 117.548 122.698 117.169 122.007C116.801 121.316 116.618 120.553 116.618 119.718C116.618 118.882 116.801 118.119 117.169 117.429C117.548 116.738 118.071 116.192 118.74 115.791C119.408 115.39 120.16 115.19 120.996 115.19C121.831 115.19 122.583 115.39 123.251 115.791C123.92 116.192 124.438 116.738 124.805 117.429C125.184 118.119 125.373 118.882 125.373 119.718C125.373 120.553 125.184 121.316 124.805 122.007C124.438 122.698 123.92 123.243 123.251 123.644C122.583 124.045 121.831 124.246 120.996 124.246ZM120.996 122.959C121.519 122.959 122.004 122.831 122.449 122.575C122.906 122.308 123.268 121.929 123.535 121.439C123.814 120.949 123.953 120.375 123.953 119.718C123.953 119.061 123.814 118.487 123.535 117.997C123.268 117.507 122.906 117.133 122.449 116.877C122.004 116.61 121.519 116.476 120.996 116.476C120.472 116.476 119.982 116.61 119.525 116.877C119.068 117.133 118.701 117.507 118.422 117.997C118.155 118.487 118.021 119.061 118.021 119.718C118.021 120.375 118.155 120.949 118.422 121.439C118.701 121.929 119.068 122.308 119.525 122.575C119.982 122.831 120.472 122.959 120.996 122.959ZM127.764 116.743H126.193V115.457H127.764V114.538C127.764 114.003 127.886 113.535 128.131 113.134C128.376 112.733 128.705 112.427 129.117 112.215C129.529 111.992 129.986 111.881 130.487 111.881C130.966 111.881 131.384 111.948 131.741 112.082V113.468C131.54 113.39 131.351 113.329 131.172 113.285C130.994 113.229 130.783 113.201 130.537 113.201C130.17 113.201 129.852 113.335 129.585 113.602C129.318 113.858 129.184 114.22 129.184 114.688V115.457H131.373V116.743H129.184V123.979H127.764V116.743ZM139.064 113.368H135.705V112.015H143.826V113.368H140.484V123.979H139.064V113.368ZM147.786 124.246C146.973 124.246 146.243 124.051 145.597 123.661C144.951 123.271 144.444 122.737 144.077 122.057C143.72 121.366 143.542 120.592 143.542 119.734C143.542 118.91 143.709 118.153 144.043 117.462C144.388 116.771 144.873 116.22 145.497 115.808C146.121 115.396 146.845 115.19 147.669 115.19C148.505 115.19 149.229 115.379 149.841 115.758C150.454 116.125 150.922 116.638 151.245 117.295C151.579 117.952 151.746 118.704 151.746 119.551C151.746 119.718 151.729 119.863 151.696 119.985H144.962C144.996 120.631 145.152 121.177 145.43 121.623C145.709 122.068 146.059 122.402 146.483 122.625C146.917 122.848 147.368 122.959 147.836 122.959C148.928 122.959 149.769 122.447 150.359 121.422L151.562 122.007C151.195 122.698 150.693 123.243 150.059 123.644C149.435 124.045 148.677 124.246 147.786 124.246ZM150.242 118.815C150.22 118.459 150.12 118.103 149.942 117.746C149.763 117.39 149.479 117.089 149.089 116.844C148.711 116.599 148.232 116.476 147.652 116.476C146.984 116.476 146.416 116.693 145.948 117.128C145.491 117.551 145.191 118.114 145.046 118.815H150.242ZM157.35 124.246C156.525 124.246 155.785 124.051 155.127 123.661C154.47 123.26 153.958 122.72 153.59 122.04C153.223 121.35 153.039 120.576 153.039 119.718C153.039 118.86 153.223 118.086 153.59 117.395C153.958 116.705 154.47 116.164 155.127 115.774C155.785 115.384 156.525 115.19 157.35 115.19C158.274 115.19 159.049 115.407 159.672 115.841C160.307 116.264 160.759 116.833 161.026 117.546L159.739 118.08C159.528 117.557 159.21 117.161 158.787 116.894C158.375 116.615 157.873 116.476 157.283 116.476C156.782 116.476 156.314 116.615 155.879 116.894C155.445 117.161 155.094 117.54 154.827 118.03C154.57 118.52 154.442 119.083 154.442 119.718C154.442 120.353 154.57 120.915 154.827 121.405C155.094 121.896 155.445 122.28 155.879 122.558C156.314 122.826 156.782 122.959 157.283 122.959C157.884 122.959 158.402 122.82 158.837 122.542C159.271 122.263 159.594 121.868 159.806 121.355L161.076 121.89C160.786 122.592 160.318 123.16 159.672 123.594C159.037 124.029 158.263 124.246 157.35 124.246ZM162.612 112.015H164.032V115.54L163.965 116.71H164.032C164.266 116.276 164.633 115.914 165.135 115.624C165.647 115.334 166.204 115.19 166.806 115.19C167.842 115.19 168.632 115.496 169.178 116.109C169.724 116.71 169.997 117.512 169.997 118.515V123.979H168.577V118.732C168.577 117.963 168.382 117.395 167.992 117.028C167.602 116.66 167.095 116.476 166.471 116.476C166.026 116.476 165.614 116.61 165.235 116.877C164.867 117.145 164.572 117.49 164.349 117.913C164.138 118.336 164.032 118.776 164.032 119.233V123.979H162.612V112.015ZM172.043 115.457H173.397V116.71H173.463C173.697 116.287 174.071 115.93 174.583 115.641C175.095 115.34 175.641 115.19 176.221 115.19C177.245 115.19 178.025 115.49 178.56 116.092C179.106 116.682 179.379 117.49 179.379 118.515V123.979H177.958V118.732C177.958 117.941 177.769 117.367 177.39 117.011C177.011 116.654 176.493 116.476 175.836 116.476C175.379 116.476 174.967 116.604 174.6 116.86C174.243 117.117 173.965 117.456 173.764 117.88C173.564 118.292 173.463 118.726 173.463 119.183V123.979H172.043V115.457ZM182.245 113.886C181.967 113.886 181.727 113.786 181.527 113.585C181.326 113.385 181.226 113.145 181.226 112.867C181.226 112.588 181.326 112.355 181.527 112.165C181.727 111.965 181.967 111.864 182.245 111.864C182.524 111.864 182.763 111.965 182.964 112.165C183.164 112.355 183.264 112.588 183.264 112.867C183.264 113.145 183.164 113.385 182.964 113.585C182.774 113.786 182.535 113.886 182.245 113.886ZM181.543 115.457H182.947V123.979H181.543V115.457ZM188.957 124.246C188.133 124.246 187.392 124.051 186.735 123.661C186.078 123.26 185.565 122.72 185.198 122.04C184.83 121.35 184.646 120.576 184.646 119.718C184.646 118.86 184.83 118.086 185.198 117.395C185.565 116.705 186.078 116.164 186.735 115.774C187.392 115.384 188.133 115.19 188.957 115.19C189.882 115.19 190.656 115.407 191.28 115.841C191.915 116.264 192.366 116.833 192.633 117.546L191.347 118.08C191.135 117.557 190.818 117.161 190.394 116.894C189.982 116.615 189.481 116.476 188.89 116.476C188.389 116.476 187.921 116.615 187.487 116.894C187.052 117.161 186.701 117.54 186.434 118.03C186.178 118.52 186.05 119.083 186.05 119.718C186.05 120.353 186.178 120.915 186.434 121.405C186.701 121.896 187.052 122.28 187.487 122.558C187.921 122.826 188.389 122.959 188.89 122.959C189.492 122.959 190.01 122.82 190.444 122.542C190.879 122.263 191.202 121.868 191.413 121.355L192.683 121.89C192.394 122.592 191.926 123.16 191.28 123.594C190.645 124.029 189.871 124.246 188.957 124.246ZM196.861 124.246C196.237 124.246 195.68 124.123 195.19 123.878C194.7 123.633 194.321 123.299 194.054 122.876C193.786 122.441 193.653 121.951 193.653 121.405C193.653 120.503 193.993 119.801 194.672 119.3C195.352 118.788 196.209 118.531 197.245 118.531C197.758 118.531 198.231 118.587 198.666 118.698C199.111 118.81 199.451 118.938 199.685 119.083V118.565C199.685 117.93 199.462 117.423 199.016 117.044C198.571 116.654 198.008 116.459 197.329 116.459C196.85 116.459 196.41 116.565 196.009 116.777C195.608 116.977 195.29 117.261 195.056 117.629L193.987 116.827C194.321 116.315 194.778 115.914 195.357 115.624C195.948 115.334 196.599 115.19 197.312 115.19C198.471 115.19 199.379 115.496 200.036 116.109C200.704 116.71 201.038 117.534 201.038 118.582V123.979H199.685V122.759H199.618C199.373 123.171 199.005 123.522 198.515 123.812C198.025 124.101 197.474 124.246 196.861 124.246ZM196.995 122.993C197.474 122.993 197.919 122.87 198.331 122.625C198.744 122.38 199.072 122.051 199.317 121.639C199.562 121.227 199.685 120.776 199.685 120.286C199.418 120.108 199.089 119.963 198.699 119.851C198.309 119.74 197.897 119.684 197.463 119.684C196.683 119.684 196.092 119.846 195.691 120.169C195.301 120.492 195.107 120.91 195.107 121.422C195.107 121.89 195.285 122.269 195.641 122.558C195.998 122.848 196.449 122.993 196.995 122.993ZM203.014 112.015H204.434V123.979H203.014V112.015ZM210.706 112.015H217.624V113.368H212.11V117.328H217.089V118.665H212.11V122.625H217.624V123.979H210.706V112.015ZM222.908 124.246C222.151 124.246 221.46 124.051 220.837 123.661C220.224 123.271 219.739 122.737 219.383 122.057C219.026 121.366 218.848 120.587 218.848 119.718C218.848 118.86 219.026 118.086 219.383 117.395C219.739 116.705 220.224 116.164 220.837 115.774C221.46 115.384 222.151 115.19 222.908 115.19C223.566 115.19 224.151 115.34 224.663 115.641C225.175 115.93 225.565 116.292 225.833 116.727H225.899L225.833 115.54V112.015H227.253V123.979H225.899V122.725H225.833C225.565 123.149 225.175 123.511 224.663 123.812C224.151 124.101 223.566 124.246 222.908 124.246ZM223.076 122.959C223.577 122.959 224.039 122.826 224.462 122.558C224.897 122.291 225.242 121.912 225.498 121.422C225.766 120.932 225.899 120.364 225.899 119.718C225.899 119.072 225.766 118.504 225.498 118.013C225.242 117.523 224.897 117.145 224.462 116.877C224.039 116.61 223.577 116.476 223.076 116.476C222.585 116.476 222.123 116.61 221.689 116.877C221.254 117.145 220.903 117.529 220.636 118.03C220.38 118.52 220.252 119.083 220.252 119.718C220.252 120.353 220.38 120.921 220.636 121.422C220.903 121.912 221.254 122.291 221.689 122.558C222.123 122.826 222.585 122.959 223.076 122.959ZM232.442 124.246C231.417 124.246 230.632 123.945 230.086 123.344C229.551 122.742 229.284 121.901 229.284 120.821V115.457H230.704V120.603C230.704 121.417 230.888 122.013 231.256 122.391C231.623 122.77 232.119 122.959 232.743 122.959C233.222 122.959 233.645 122.831 234.013 122.575C234.392 122.319 234.681 121.985 234.882 121.572C235.093 121.16 235.199 120.726 235.199 120.269V115.457H236.62V123.979H235.266V122.742H235.199C234.965 123.165 234.592 123.522 234.08 123.812C233.567 124.101 233.021 124.246 232.442 124.246ZM242.496 124.246C241.671 124.246 240.93 124.051 240.273 123.661C239.616 123.26 239.104 122.72 238.736 122.04C238.368 121.35 238.185 120.576 238.185 119.718C238.185 118.86 238.368 118.086 238.736 117.395C239.104 116.705 239.616 116.164 240.273 115.774C240.93 115.384 241.671 115.19 242.496 115.19C243.42 115.19 244.194 115.407 244.818 115.841C245.453 116.264 245.904 116.833 246.172 117.546L244.885 118.08C244.673 117.557 244.356 117.161 243.933 116.894C243.52 116.615 243.019 116.476 242.429 116.476C241.927 116.476 241.46 116.615 241.025 116.894C240.591 117.161 240.24 117.54 239.972 118.03C239.716 118.52 239.588 119.083 239.588 119.718C239.588 120.353 239.716 120.915 239.972 121.405C240.24 121.896 240.591 122.28 241.025 122.558C241.46 122.826 241.927 122.959 242.429 122.959C243.03 122.959 243.548 122.82 243.983 122.542C244.417 122.263 244.74 121.868 244.952 121.355L246.222 121.89C245.932 122.592 245.464 123.16 244.818 123.594C244.183 124.029 243.409 124.246 242.496 124.246ZM250.399 124.246C249.776 124.246 249.219 124.123 248.728 123.878C248.238 123.633 247.86 123.299 247.592 122.876C247.325 122.441 247.191 121.951 247.191 121.405C247.191 120.503 247.531 119.801 248.21 119.3C248.89 118.788 249.748 118.531 250.784 118.531C251.296 118.531 251.77 118.587 252.204 118.698C252.65 118.81 252.989 118.938 253.223 119.083V118.565C253.223 117.93 253 117.423 252.555 117.044C252.109 116.654 251.547 116.459 250.867 116.459C250.388 116.459 249.948 116.565 249.547 116.777C249.146 116.977 248.829 117.261 248.595 117.629L247.525 116.827C247.86 116.315 248.316 115.914 248.896 115.624C249.486 115.334 250.138 115.19 250.851 115.19C252.009 115.19 252.917 115.496 253.574 116.109C254.243 116.71 254.577 117.534 254.577 118.582V123.979H253.223V122.759H253.156C252.911 123.171 252.544 123.522 252.054 123.812C251.563 124.101 251.012 124.246 250.399 124.246ZM250.533 122.993C251.012 122.993 251.458 122.87 251.87 122.625C252.282 122.38 252.611 122.051 252.856 121.639C253.101 121.227 253.223 120.776 253.223 120.286C252.956 120.108 252.627 119.963 252.237 119.851C251.848 119.74 251.435 119.684 251.001 119.684C250.221 119.684 249.631 119.846 249.23 120.169C248.84 120.492 248.645 120.91 248.645 121.422C248.645 121.89 248.823 122.269 249.18 122.558C249.536 122.848 249.987 122.993 250.533 122.993ZM259.664 124.112C259.319 124.112 258.996 124.057 258.695 123.945C258.406 123.834 258.161 123.683 257.96 123.494C257.737 123.282 257.57 123.037 257.459 122.759C257.347 122.48 257.292 122.141 257.292 121.74V116.743H255.805V115.457H257.292V113.051H258.712V115.457H260.784V116.743H258.712V121.389C258.712 121.857 258.801 122.202 258.979 122.425C259.191 122.67 259.497 122.792 259.898 122.792C260.221 122.792 260.533 122.698 260.834 122.508V123.895C260.667 123.973 260.494 124.029 260.316 124.062C260.149 124.096 259.932 124.112 259.664 124.112ZM263.426 113.886C263.147 113.886 262.908 113.786 262.707 113.585C262.507 113.385 262.406 113.145 262.406 112.867C262.406 112.588 262.507 112.355 262.707 112.165C262.908 111.965 263.147 111.864 263.426 111.864C263.704 111.864 263.944 111.965 264.144 112.165C264.345 112.355 264.445 112.588 264.445 112.867C264.445 113.145 264.345 113.385 264.144 113.585C263.955 113.786 263.715 113.886 263.426 113.886ZM262.724 115.457H264.127V123.979H262.724V115.457ZM270.205 124.246C269.369 124.246 268.617 124.045 267.949 123.644C267.28 123.243 266.757 122.698 266.378 122.007C266.011 121.316 265.827 120.553 265.827 119.718C265.827 118.882 266.011 118.119 266.378 117.429C266.757 116.738 267.28 116.192 267.949 115.791C268.617 115.39 269.369 115.19 270.205 115.19C271.04 115.19 271.792 115.39 272.46 115.791C273.129 116.192 273.647 116.738 274.014 117.429C274.393 118.119 274.582 118.882 274.582 119.718C274.582 120.553 274.393 121.316 274.014 122.007C273.647 122.698 273.129 123.243 272.46 123.644C271.792 124.045 271.04 124.246 270.205 124.246ZM270.205 122.959C270.728 122.959 271.213 122.831 271.658 122.575C272.115 122.308 272.477 121.929 272.744 121.439C273.023 120.949 273.162 120.375 273.162 119.718C273.162 119.061 273.023 118.487 272.744 117.997C272.477 117.507 272.115 117.133 271.658 116.877C271.213 116.61 270.728 116.476 270.205 116.476C269.681 116.476 269.191 116.61 268.734 116.877C268.277 117.133 267.91 117.507 267.631 117.997C267.364 118.487 267.23 119.061 267.23 119.718C267.23 120.375 267.364 120.949 267.631 121.439C267.91 121.929 268.277 122.308 268.734 122.575C269.191 122.831 269.681 122.959 270.205 122.959ZM276.069 115.457H277.422V116.71H277.489C277.723 116.287 278.096 115.93 278.608 115.641C279.121 115.34 279.667 115.19 280.246 115.19C281.271 115.19 282.05 115.49 282.585 116.092C283.131 116.682 283.404 117.49 283.404 118.515V123.979H281.984V118.732C281.984 117.941 281.794 117.367 281.416 117.011C281.037 116.654 280.519 116.476 279.862 116.476C279.405 116.476 278.993 116.604 278.625 116.86C278.269 117.117 277.99 117.456 277.79 117.88C277.589 118.292 277.489 118.726 277.489 119.183V123.979H276.069V115.457Z" fill="#585858"/>
</svg>
